Blinker-Black_15.ufo
<glyph name="exclam" format="1">
  <advance width="277.0"/>
  <unicode hex="0021"/>
  <outline>
    <contour>
      <point x="14" y="627" type="line"/>
      <point x="263" y="627" type="line"/>
      <point x="236" y="233" type="line"/>
      <point x="41" y="233" type="line"/>
    </contour>
    <contour>
      <point x="250" y="189" type="line"/>
      <point x="250" y="0" type="line"/>
      <point x="26" y="0" type="line"/>
      <point x="26" y="189" type="line"/>
    </contour>
  </outline>
</glyph>
<glyph name="quotedbl" format="1">
  <advance width="339.0"/>
  <unicode hex="0022"/>
  <outline>
    <contour>
      <point x="17" y="627" type="line"/>
      <point x="148" y="627" type="line"/>
      <point x="148" y="399" type="line"/>
      <point x="17" y="399" type="line"/>
    </contour>
    <contour>
      <point x="190" y="627" type="line"/>
      <point x="322" y="627" type="line"/>
      <point x="322" y="399" type="line"/>
      <point x="190" y="399" type="line"/>
    </contour>
  </outline>
</glyph>
<glyph name="numbersign" format="1">
  <advance width="544.0"/>
  <unicode hex="0023"/>
  <outline>
    <contour>
      <point x="532" y="493" type="line"/>
      <point x="532" y="353" type="line"/>
      <point x="452" y="353" type="line"/>
      <point x="444" y="284" type="line"/>
      <point x="497" y="284" type="line"/>
      <point x="497" y="144" type="line"/>
      <point x="421" y="144" type="line"/>
      <point x="397" y="0" type="line"/>
      <point x="252" y="0" type="line"/>
      <point x="275" y="144" type="line"/>
      <point x="216" y="144" type="line"/>
      <point x="193" y="0" type="line"/>
      <point x="47" y="0" type="line"/>
      <point x="71" y="144" type="line"/>
      <point x="13" y="144" type="line"/>
      <point x="13" y="284" type="line"/>
      <point x="93" y="284" type="line"/>
      <point x="103" y="353" type="line"/>
      <point x="48" y="353" type="line"/>
      <point x="48" y="493" type="line"/>
      <point x="128" y="493" type="line"/>
      <point x="151" y="627" type="line"/>
      <point x="296" y="627" type="line"/>
      <point x="274" y="493" type="line"/>
      <point x="331" y="493" type="line"/>
      <point x="355" y="627" type="line"/>
      <point x="500" y="627" type="line"/>
      <point x="478" y="493" type="line"/>
    </contour>
    <contour>
      <point x="297" y="284" type="line"/>
      <point x="307" y="353" type="line"/>
      <point x="249" y="353" type="line"/>
      <point x="238" y="284" type="line"/>
    </contour>
  </outline>
</glyph>
<glyph name="dollar" format="1">
  <advance width="490.0"/>
  <unicode hex="0024"/>
  <outline>
    <contour>
      <point x="250" y="219" type="qcurve"/>
      <point x="165" y="239" type="line" smooth="yes"/>
      <point x="85" y="258"/>
      <point x="18" y="345"/>
      <point x="18" y="421" type="qcurve"/>
      <point x="18" y="517"/>
      <point x="99" y="620"/>
      <point x="186" y="632" type="qcurve"/>
      <point x="186" y="714" type="line"/>
      <point x="296" y="714" type="line"/>
      <point x="296" y="636" type="line"/>
      <point x="337" y="635"/>
      <point x="406" y="626"/>
      <point x="430" y="619" type="qcurve"/>
      <point x="430" y="420" type="line"/>
      <point x="380" y="429"/>
      <point x="307" y="436"/>
      <point x="267" y="436" type="qcurve" smooth="yes"/>
      <point x="247" y="436"/>
      <point x="231" y="432"/>
      <point x="231" y="426" type="qcurve" smooth="yes"/>
      <point x="231" y="423"/>
      <point x="239" y="419"/>
      <point x="250" y="416" type="qcurve"/>
      <point x="326" y="396" type="line" smooth="yes"/>
      <point x="378" y="382"/>
      <point x="429" y="357"/>
      <point x="445" y="339" type="qcurve" smooth="yes"/>
      <point x="462" y="318"/>
      <point x="478" y="257"/>
      <point x="478" y="211" type="qcurve"/>
      <point x="478" y="112"/>
      <point x="388" y="8"/>
      <point x="296" y="-5" type="qcurve"/>
      <point x="296" y="-87" type="line"/>
      <point x="186" y="-87" type="line"/>
      <point x="186" y="-9" type="line"/>
      <point x="134" y="-7"/>
      <point x="43" y="5"/>
      <point x="22" y="13" type="qcurve"/>
      <point x="22" y="223" type="line"/>
      <point x="58" y="211"/>
      <point x="172" y="196"/>
      <point x="227" y="196" type="qcurve" smooth="yes"/>
      <point x="252" y="196"/>
      <point x="270" y="201"/>
      <point x="270" y="208" type="qcurve" smooth="yes"/>
      <point x="270" y="212"/>
      <point x="264" y="216"/>
    </contour>
  </outline>
</glyph>
<glyph name="percent" format="1">
  <advance width="708.0"/>
  <unicode hex="0025"/>
  <outline>
    <contour>
      <point x="304" y="478" type="qcurve"/>
      <point x="304" y="394"/>
      <point x="235" y="320"/>
      <point x="158" y="320" type="qcurve"/>
      <point x="80" y="320"/>
      <point x="10" y="395"/>
      <point x="10" y="478" type="qcurve"/>
      <point x="10" y="561"/>
      <point x="80" y="636"/>
      <point x="158" y="636" type="qcurve"/>
      <point x="235" y="636"/>
      <point x="304" y="562"/>
    </contour>
    <contour>
      <point x="574" y="627" type="line"/>
      <point x="274" y="0" type="line"/>
      <point x="134" y="0" type="line"/>
      <point x="434" y="627" type="line"/>
    </contour>
    <contour>
      <point x="180" y="478" type="qcurve"/>
      <point x="180" y="507"/>
      <point x="171" y="530"/>
      <point x="158" y="530" type="qcurve"/>
      <point x="145" y="530"/>
      <point x="136" y="507"/>
      <point x="136" y="478" type="qcurve"/>
      <point x="136" y="453"/>
      <point x="146" y="432"/>
      <point x="158" y="432" type="qcurve"/>
      <point x="170" y="432"/>
      <point x="180" y="453"/>
    </contour>
    <contour>
      <point x="698" y="150" type="qcurve"/>
      <point x="698" y="66"/>
      <point x="629" y="-8"/>
      <point x="552" y="-8" type="qcurve"/>
      <point x="474" y="-8"/>
      <point x="404" y="67"/>
      <point x="404" y="150" type="qcurve"/>
      <point x="404" y="233"/>
      <point x="474" y="308"/>
      <point x="552" y="308" type="qcurve"/>
      <point x="629" y="308"/>
      <point x="698" y="234"/>
    </contour>
    <contour>
      <point x="574" y="150" type="qcurve"/>
      <point x="574" y="179"/>
      <point x="565" y="202"/>
      <point x="552" y="202" type="qcurve"/>
      <point x="539" y="202"/>
      <point x="530" y="179"/>
      <point x="530" y="150" type="qcurve"/>
      <point x="530" y="125"/>
      <point x="540" y="104"/>
      <point x="552" y="104" type="qcurve"/>
      <point x="564" y="104"/>
      <point x="574" y="125"/>
    </contour>
  </outline>
</glyph>
<glyph name="ampersand" format="1">
  <advance width="654.0"/>
  <unicode hex="0026"/>
  <outline>
    <contour>
      <point x="575" y="218" type="line"/>
      <point x="575" y="61" type="line"/>
      <point x="552" y="33"/>
      <point x="400" y="-12"/>
      <point x="322" y="-12" type="qcurve"/>
      <point x="162" y="-12"/>
      <point x="13" y="150"/>
      <point x="13" y="323" type="qcurve"/>
      <point x="13" y="475"/>
      <point x="160" y="637"/>
      <point x="298" y="637" type="qcurve" smooth="yes"/>
      <point x="406" y="637"/>
      <point x="522" y="537"/>
      <point x="522" y="446" type="qcurve"/>
      <point x="522" y="433"/>
      <point x="518" y="408"/>
      <point x="514" y="395" type="qcurve"/>
      <point x="649" y="395" type="line"/>
      <point x="649" y="218" type="line"/>
    </contour>
    <contour>
      <point x="318" y="423" type="qcurve"/>
      <point x="318" y="436"/>
      <point x="302" y="448"/>
      <point x="286" y="448" type="qcurve"/>
      <point x="262" y="448"/>
      <point x="242" y="420"/>
      <point x="240" y="380" type="qcurve"/>
      <point x="280" y="384"/>
      <point x="318" y="405"/>
    </contour>
    <contour>
      <point x="324" y="188" type="qcurve"/>
      <point x="337" y="188"/>
      <point x="359" y="191"/>
      <point x="368" y="194" type="qcurve"/>
      <point x="368" y="267" type="line"/>
      <point x="340" y="258"/>
      <point x="279" y="246"/>
      <point x="247" y="244" type="qcurve"/>
      <point x="255" y="214"/>
      <point x="290" y="188"/>
    </contour>
  </outline>
</glyph>
<glyph name="parenleft" format="1">
  <advance width="212.0"/>
  <unicode hex="0028"/>
  <outline>
    <contour>
      <point x="147" y="313" type="qcurve"/>
      <point x="147" y="206"/>
      <point x="178" y="12"/>
      <point x="207" y="-48" type="qcurve"/>
      <point x="105" y="-80" type="line"/>
      <point x="60" y="0"/>
      <point x="13" y="200"/>
      <point x="13" y="313" type="qcurve"/>
      <point x="13" y="430"/>
      <point x="60" y="631"/>
      <point x="105" y="707" type="qcurve"/>
      <point x="204" y="675" type="line"/>
      <point x="176" y="617"/>
      <point x="147" y="428"/>
    </contour>
  </outline>
</glyph>
<glyph name="parenright" format="1">
  <advance width="212.0"/>
  <unicode hex="0029"/>
  <outline>
    <contour>
      <point x="65" y="313" type="qcurve"/>
      <point x="65" y="428"/>
      <point x="36" y="617"/>
      <point x="8" y="675" type="qcurve"/>
      <point x="107" y="707" type="line"/>
      <point x="152" y="631"/>
      <point x="199" y="430"/>
      <point x="199" y="313" type="qcurve"/>
      <point x="199" y="200"/>
      <point x="152" y="0"/>
      <point x="107" y="-80" type="qcurve"/>
      <point x="5" y="-48" type="line"/>
      <point x="34" y="12"/>
      <point x="65" y="206"/>
    </contour>
  </outline>
</glyph>
<glyph name="asterisk" format="1">
  <advance width="362.0"/>
  <unicode hex="002A"/>
  <outline>
    <contour>
      <point x="324" y="370" type="line"/>
      <point x="227" y="301" type="line"/>
      <point x="181" y="377" type="line"/>
      <point x="132" y="300" type="line"/>
      <point x="37" y="372" type="line"/>
      <point x="95" y="438" type="line"/>
      <point x="8" y="461" type="line"/>
      <point x="46" y="574" type="line"/>
      <point x="127" y="538" type="line"/>
      <point x="119" y="627" type="line"/>
      <point x="238" y="627" type="line"/>
      <point x="231" y="538" type="line"/>
      <point x="315" y="573" type="line"/>
      <point x="352" y="460" type="line"/>
      <point x="266" y="440" type="line"/>
    </contour>
  </outline>
</glyph>
<glyph name="comma" format="1">
  <advance width="225.0"/>
  <unicode hex="002C"/>
  <outline>
    <contour>
      <point x="220" y="195" type="line"/>
      <point x="185" y="-10" type="line" smooth="yes"/>
      <point x="180" y="-41"/>
      <point x="132" y="-80"/>
      <point x="98" y="-80" type="qcurve"/>
      <point x="17" y="-80" type="line"/>
      <point x="17" y="195" type="line"/>
    </contour>
  </outline>
</glyph>
<glyph name="period" format="1">
  <advance width="244.0"/>
  <unicode hex="002E"/>
  <outline>
    <contour>
      <point x="227" y="0" type="line"/>
      <point x="17" y="0" type="line"/>
      <point x="17" y="195" type="line"/>
      <point x="227" y="195" type="line"/>
    </contour>
  </outline>
</glyph>
<glyph name="slash" format="1">
  <advance width="366.0"/>
  <unicode hex="002F"/>
  <outline>
    <contour>
      <point x="360" y="707" type="line"/>
      <point x="134" y="-80" type="line"/>
      <point x="7" y="-80" type="line"/>
      <point x="232" y="707" type="line"/>
    </contour>
  </outline>
</glyph>
<glyph name="zero" format="1">
  <advance width="573.0"/>
  <unicode hex="0030"/>
  <outline>
    <contour>
      <point x="506" y="74" type="qcurve" smooth="yes"/>
      <point x="477" y="29"/>
      <point x="374" y="-12"/>
      <point x="287" y="-12" type="qcurve"/>
      <point x="195" y="-12"/>
      <point x="91" y="26"/>
      <point x="63" y="70" type="qcurve" smooth="yes"/>
      <point x="39" y="106"/>
      <point x="18" y="222"/>
      <point x="18" y="313" type="qcurve"/>
      <point x="18" y="490"/>
      <point x="135" y="637"/>
      <point x="287" y="637" type="qcurve"/>
      <point x="379" y="637"/>
      <point x="483" y="599"/>
      <point x="511" y="556" type="qcurve" smooth="yes"/>
      <point x="534" y="520"/>
      <point x="555" y="404"/>
      <point x="555" y="313" type="qcurve"/>
      <point x="555" y="229"/>
      <point x="531" y="111"/>
    </contour>
    <contour>
      <point x="325" y="313" type="qcurve"/>
      <point x="325" y="391"/>
      <point x="312" y="432"/>
      <point x="287" y="432" type="qcurve"/>
      <point x="261" y="432"/>
      <point x="248" y="391"/>
      <point x="248" y="313" type="qcurve"/>
      <point x="248" y="239"/>
      <point x="262" y="200"/>
      <point x="287" y="200" type="qcurve"/>
      <point x="312" y="200"/>
      <point x="325" y="239"/>
    </contour>
  </outline>
</glyph>
<glyph name="two" format="1">
  <advance width="472.0"/>
  <unicode hex="0032"/>
  <outline>
    <contour>
      <point x="445" y="212" type="line"/>
      <point x="445" y="0" type="line"/>
      <point x="17" y="0" type="line"/>
      <point x="17" y="212" type="line"/>
      <point x="217" y="381" type="line" smooth="yes"/>
      <point x="227" y="390"/>
      <point x="236" y="405"/>
      <point x="236" y="414" type="qcurve" smooth="yes"/>
      <point x="236" y="423"/>
      <point x="224" y="432"/>
      <point x="212" y="432" type="qcurve"/>
      <point x="174" y="432"/>
      <point x="83" y="423"/>
      <point x="44" y="415" type="qcurve"/>
      <point x="44" y="612" type="line"/>
      <point x="82" y="623"/>
      <point x="205" y="637"/>
      <point x="264" y="637" type="qcurve"/>
      <point x="353" y="637"/>
      <point x="454" y="548"/>
      <point x="454" y="471" type="qcurve"/>
      <point x="454" y="416"/>
      <point x="424" y="342"/>
      <point x="388" y="310" type="qcurve"/>
      <point x="277" y="212" type="line"/>
    </contour>
  </outline>
</glyph>
<glyph name="three" format="1">
  <advance width="462.0"/>
  <unicode hex="0033"/>
  <outline>
    <contour>
      <point x="428" y="473" type="qcurve" smooth="yes"/>
      <point x="428" y="412"/>
      <point x="384" y="344"/>
      <point x="337" y="331" type="qcurve"/>
      <point x="337" y="329" type="line"/>
      <point x="392" y="324"/>
      <point x="447" y="251"/>
      <point x="447" y="183" type="qcurve"/>
      <point x="447" y="90"/>
      <point x="324" y="-12"/>
      <point x="215" y="-12" type="qcurve"/>
      <point x="156" y="-12"/>
      <point x="46" y="1"/>
      <point x="21" y="10" type="qcurve"/>
      <point x="21" y="200" type="line"/>
      <point x="51" y="195"/>
      <point x="123" y="190"/>
      <point x="194" y="190" type="qcurve"/>
      <point x="216" y="190"/>
      <point x="235" y="199"/>
      <point x="235" y="211" type="qcurve" smooth="yes"/>
      <point x="235" y="219"/>
      <point x="224" y="227"/>
      <point x="211" y="227" type="qcurve"/>
      <point x="75" y="227" type="line"/>
      <point x="75" y="409" type="line"/>
      <point x="186" y="409" type="line" smooth="yes"/>
      <point x="203" y="409"/>
      <point x="216" y="416"/>
      <point x="216" y="425" type="qcurve"/>
      <point x="216" y="435"/>
      <point x="198" y="442"/>
      <point x="178" y="442" type="qcurve"/>
      <point x="150" y="442"/>
      <point x="58" y="433"/>
      <point x="28" y="428" type="qcurve"/>
      <point x="28" y="611" type="line"/>
      <point x="61" y="622"/>
      <point x="189" y="637"/>
      <point x="248" y="637" type="qcurve"/>
      <point x="337" y="637"/>
      <point x="428" y="554"/>
    </contour>
  </outline>
</glyph>
<glyph name="four" format="1">
  <advance width="535.0"/>
  <unicode hex="0034"/>
  <outline>
    <contour>
      <point x="524" y="315" type="line"/>
      <point x="524" y="117" type="line"/>
      <point x="474" y="117" type="line"/>
      <point x="474" y="0" type="line"/>
      <point x="247" y="0" type="line"/>
      <point x="247" y="117" type="line"/>
      <point x="17" y="117" type="line"/>
      <point x="17" y="315" type="line"/>
      <point x="83" y="627" type="line"/>
      <point x="293" y="627" type="line"/>
      <point x="239" y="315" type="line"/>
      <point x="265" y="315" type="line"/>
      <point x="300" y="517" type="line"/>
      <point x="474" y="517" type="line"/>
      <point x="474" y="315" type="line"/>
    </contour>
  </outline>
</glyph>
<glyph name="five" format="1">
  <advance width="461.0"/>
  <unicode hex="0035"/>
  <outline>
    <contour>
      <point x="446" y="203" type="qcurve" smooth="yes"/>
      <point x="446" y="98"/>
      <point x="327" y="-12"/>
      <point x="216" y="-12" type="qcurve"/>
      <point x="157" y="-12"/>
      <point x="45" y="1"/>
      <point x="20" y="10" type="qcurve"/>
      <point x="20" y="202" type="line"/>
      <point x="51" y="197"/>
      <point x="113" y="192"/>
      <point x="178" y="192" type="qcurve"/>
      <point x="201" y="192"/>
      <point x="219" y="201"/>
      <point x="219" y="214" type="qcurve"/>
      <point x="219" y="227"/>
      <point x="197" y="236"/>
      <point x="171" y="236" type="qcurve"/>
      <point x="122" y="236"/>
      <point x="65" y="233"/>
      <point x="38" y="229" type="qcurve"/>
      <point x="38" y="627" type="line"/>
      <point x="406" y="627" type="line"/>
      <point x="406" y="422" type="line"/>
      <point x="265" y="422" type="line"/>
      <point x="265" y="393" type="line"/>
      <point x="273" y="394"/>
      <point x="300" y="396"/>
      <point x="310" y="396" type="qcurve" smooth="yes"/>
      <point x="380" y="396"/>
      <point x="446" y="301"/>
    </contour>
  </outline>
</glyph>
<glyph name="six" format="1">
  <advance width="516.0"/>
  <unicode hex="0036"/>
  <outline>
    <contour>
      <point x="272" y="-12" type="qcurve"/>
      <point x="130" y="-12"/>
      <point x="17" y="126"/>
      <point x="17" y="297" type="qcurve"/>
      <point x="17" y="468"/>
      <point x="174" y="637"/>
      <point x="334" y="637" type="qcurve"/>
      <point x="371" y="637"/>
      <point x="438" y="631"/>
      <point x="452" y="626" type="qcurve"/>
      <point x="452" y="438" type="line"/>
      <point x="417" y="443"/>
      <point x="373" y="446"/>
      <point x="349" y="446" type="qcurve"/>
      <point x="295" y="446"/>
      <point x="254" y="422"/>
      <point x="245" y="391" type="qcurve"/>
      <point x="269" y="403"/>
      <point x="318" y="415"/>
      <point x="342" y="415" type="qcurve"/>
      <point x="424" y="415"/>
      <point x="501" y="319"/>
      <point x="501" y="218" type="qcurve"/>
      <point x="501" y="107"/>
      <point x="383" y="-12"/>
    </contour>
    <contour>
      <point x="296" y="215" type="qcurve"/>
      <point x="296" y="234"/>
      <point x="282" y="251"/>
      <point x="265" y="251" type="qcurve"/>
      <point x="259" y="251"/>
      <point x="245" y="248"/>
      <point x="237" y="246" type="qcurve"/>
      <point x="237" y="198"/>
      <point x="248" y="174"/>
      <point x="268" y="174" type="qcurve"/>
      <point x="282" y="174"/>
      <point x="296" y="194"/>
    </contour>
  </outline>
</glyph>
<glyph name="seven" format="1">
  <advance width="459.0"/>
  <unicode hex="0037"/>
  <outline>
    <contour>
      <point x="446" y="627" type="line"/>
      <point x="446" y="422" type="line"/>
      <point x="256" y="0" type="line"/>
      <point x="-1" y="0" type="line"/>
      <point x="203" y="422" type="line"/>
      <point x="23" y="422" type="line"/>
      <point x="23" y="627" type="line"/>
    </contour>
  </outline>
</glyph>
<glyph name="eight" format="1">
  <advance width="515.0"/>
  <unicode hex="0038"/>
  <outline>
    <contour>
      <point x="499" y="169" type="qcurve"/>
      <point x="499" y="74"/>
      <point x="384" y="-12"/>
      <point x="258" y="-12" type="qcurve"/>
      <point x="124" y="-12"/>
      <point x="16" y="71"/>
      <point x="16" y="174" type="qcurve"/>
      <point x="16" y="231"/>
      <point x="62" y="307"/>
      <point x="108" y="326" type="qcurve"/>
      <point x="65" y="347"/>
      <point x="25" y="413"/>
      <point x="26" y="467" type="qcurve"/>
      <point x="26" y="557"/>
      <point x="135" y="637"/>
      <point x="258" y="637" type="qcurve"/>
      <point x="387" y="637"/>
      <point x="488" y="561"/>
      <point x="488" y="464" type="qcurve"/>
      <point x="488" y="411"/>
      <point x="449" y="346"/>
      <point x="408" y="326" type="qcurve"/>
      <point x="453" y="307"/>
      <point x="499" y="227"/>
    </contour>
    <contour>
      <point x="292" y="431" type="qcurve"/>
      <point x="292" y="447"/>
      <point x="275" y="463"/>
      <point x="258" y="463" type="qcurve"/>
      <point x="240" y="463"/>
      <point x="223" y="448"/>
      <point x="223" y="432" type="qcurve"/>
      <point x="223" y="416"/>
      <point x="240" y="401"/>
      <point x="258" y="401" type="qcurve"/>
      <point x="275" y="401"/>
      <point x="292" y="416"/>
    </contour>
    <contour>
      <point x="293" y="202" type="qcurve"/>
      <point x="293" y="218"/>
      <point x="276" y="234"/>
      <point x="258" y="234" type="qcurve"/>
      <point x="240" y="234"/>
      <point x="223" y="218"/>
      <point x="223" y="202" type="qcurve"/>
      <point x="223" y="186"/>
      <point x="240" y="170"/>
      <point x="258" y="170" type="qcurve"/>
      <point x="276" y="170"/>
      <point x="293" y="186"/>
    </contour>
  </outline>
</glyph>
<glyph name="nine" format="1">
  <advance width="516.0"/>
  <unicode hex="0039"/>
  <outline>
    <contour>
      <point x="244" y="638" type="qcurve"/>
      <point x="386" y="638"/>
      <point x="499" y="500"/>
      <point x="499" y="329" type="qcurve"/>
      <point x="499" y="158"/>
      <point x="342" y="-11"/>
      <point x="182" y="-11" type="qcurve"/>
      <point x="145" y="-11"/>
      <point x="78" y="-5"/>
      <point x="64" y="0" type="qcurve"/>
      <point x="64" y="188" type="line"/>
      <point x="99" y="183"/>
      <point x="143" y="180"/>
      <point x="167" y="180" type="qcurve"/>
      <point x="221" y="180"/>
      <point x="262" y="204"/>
      <point x="270" y="235" type="qcurve"/>
      <point x="248" y="224"/>
      <point x="198" y="213"/>
      <point x="174" y="213" type="qcurve"/>
      <point x="92" y="213"/>
      <point x="15" y="308"/>
      <point x="15" y="408" type="qcurve"/>
      <point x="15" y="519"/>
      <point x="133" y="638"/>
    </contour>
    <contour>
      <point x="248" y="452" type="qcurve"/>
      <point x="234" y="452"/>
      <point x="220" y="430"/>
      <point x="220" y="409" type="qcurve"/>
      <point x="220" y="390"/>
      <point x="234" y="373"/>
      <point x="251" y="373" type="qcurve"/>
      <point x="256" y="373"/>
      <point x="270" y="376"/>
      <point x="279" y="380" type="qcurve"/>
      <point x="279" y="428"/>
      <point x="268" y="452"/>
    </contour>
  </outline>
</glyph>
<glyph name="greater" format="1">
  <advance width="500.0"/>
  <unicode hex="003E"/>
  <outline>
    <contour>
      <point x="463" y="220" type="line"/>
      <point x="37" y="75" type="line"/>
      <point x="37" y="249" type="line"/>
      <point x="279" y="314" type="line"/>
      <point x="37" y="378" type="line"/>
      <point x="37" y="549" type="line"/>
      <point x="463" y="404" type="line"/>
    </contour>
  </outline>
</glyph>
<glyph name="question" format="1">
  <advance width="379.0"/>
  <unicode hex="003F"/>
  <outline>
    <contour>
      <point x="199" y="637" type="qcurve" smooth="yes"/>
      <point x="276" y="637"/>
      <point x="368" y="561"/>
      <point x="368" y="495" type="qcurve" smooth="yes"/>
      <point x="368" y="440"/>
      <point x="324" y="365"/>
      <point x="265" y="325" type="qcurve"/>
      <point x="265" y="234" type="line"/>
      <point x="66" y="234" type="line"/>
      <point x="66" y="362" type="line"/>
      <point x="126" y="388"/>
      <point x="170" y="417"/>
      <point x="170" y="429" type="qcurve"/>
      <point x="170" y="437"/>
      <point x="159" y="446"/>
      <point x="148" y="446" type="qcurve"/>
      <point x="124" y="446"/>
      <point x="46" y="432"/>
      <point x="19" y="423" type="qcurve"/>
      <point x="19" y="609" type="line"/>
      <point x="59" y="625"/>
      <point x="139" y="637"/>
    </contour>
    <contour>
      <point x="278" y="189" type="line"/>
      <point x="278" y="0" type="line"/>
      <point x="53" y="0" type="line"/>
      <point x="53" y="189" type="line"/>
    </contour>
  </outline>
</glyph>
<glyph name="at" format="1">
  <advance width="595.0"/>
  <unicode hex="0040"/>
  <outline>
    <contour>
      <point x="268" y="85" type="qcurve"/>
      <point x="222" y="85"/>
      <point x="179" y="132"/>
      <point x="179" y="182" type="qcurve"/>
      <point x="179" y="235"/>
      <point x="228" y="275"/>
      <point x="291" y="275" type="qcurve"/>
      <point x="301" y="275"/>
      <point x="323" y="273"/>
      <point x="333" y="271" type="qcurve"/>
      <point x="333" y="279" type="line" smooth="yes"/>
      <point x="333" y="287"/>
      <point x="317" y="293"/>
      <point x="296" y="293" type="qcurve" smooth="yes"/>
      <point x="264" y="293"/>
      <point x="217" y="290"/>
      <point x="202" y="287" type="qcurve"/>
      <point x="202" y="387" type="line"/>
      <point x="230" y="392"/>
      <point x="295" y="397"/>
      <point x="331" y="397" type="qcurve"/>
      <point x="383" y="397"/>
      <point x="440" y="348"/>
      <point x="440" y="301" type="qcurve"/>
      <point x="440" y="194" type="line" smooth="yes"/>
      <point x="440" y="189"/>
      <point x="442" y="184"/>
      <point x="445" y="184" type="qcurve"/>
      <point x="455" y="184"/>
      <point x="473" y="245"/>
      <point x="473" y="288" type="qcurve"/>
      <point x="473" y="363"/>
      <point x="393" y="444"/>
      <point x="317" y="444" type="qcurve"/>
      <point x="219" y="444"/>
      <point x="138" y="353"/>
      <point x="138" y="244" type="qcurve"/>
      <point x="138" y="139"/>
      <point x="237" y="41"/>
      <point x="349" y="41" type="qcurve"/>
      <point x="386" y="41"/>
      <point x="471" y="60"/>
      <point x="501" y="76" type="qcurve"/>
      <point x="501" y="-36" type="line"/>
      <point x="467" y="-56"/>
      <point x="375" y="-76"/>
      <point x="316" y="-76" type="qcurve"/>
      <point x="171" y="-76"/>
      <point x="12" y="89"/>
      <point x="12" y="245" type="qcurve"/>
      <point x="12" y="394"/>
      <point x="171" y="557"/>
      <point x="315" y="557" type="qcurve"/>
      <point x="447" y="557"/>
      <point x="589" y="425"/>
      <point x="589" y="302" type="qcurve"/>
      <point x="589" y="209"/>
      <point x="497" y="85"/>
      <point x="428" y="85" type="qcurve"/>
      <point x="405" y="85"/>
      <point x="373" y="105"/>
      <point x="366" y="124" type="qcurve"/>
      <point x="349" y="106"/>
      <point x="294" y="85"/>
    </contour>
    <contour>
      <point x="309" y="202" type="qcurve"/>
      <point x="295" y="202"/>
      <point x="286" y="198"/>
      <point x="286" y="189" type="qcurve"/>
      <point x="286" y="183"/>
      <point x="292" y="179"/>
      <point x="301" y="179" type="qcurve"/>
      <point x="309" y="179"/>
      <point x="326" y="183"/>
      <point x="333" y="186" type="qcurve"/>
      <point x="333" y="201" type="line"/>
      <point x="330" y="202"/>
      <point x="321" y="202"/>
    </contour>
  </outline>
</glyph>
<glyph name="A" format="1">
  <advance width="642.0"/>
  <unicode hex="0041"/>
  <outline>
    <contour>
      <point x="219" y="0" type="line"/>
      <point x="-10" y="0" type="line"/>
      <point x="206" y="627" type="line"/>
      <point x="442" y="627" type="line"/>
      <point x="649" y="0" type="line"/>
      <point x="422" y="0" type="line"/>
      <point x="405" y="64" type="line"/>
      <point x="235" y="64" type="line"/>
    </contour>
    <contour>
      <point x="291" y="285" type="qcurve" smooth="yes"/>
      <point x="287" y="269"/>
      <point x="284" y="257"/>
      <point x="283" y="252" type="qcurve"/>
      <point x="279" y="236" type="line"/>
      <point x="360" y="236" type="line"/>
      <point x="356" y="252" type="line" smooth="yes"/>
      <point x="355" y="257"/>
      <point x="351" y="272"/>
      <point x="346" y="291" type="qcurve" smooth="yes"/>
      <point x="336" y="329"/>
      <point x="324" y="374"/>
      <point x="319" y="395" type="qcurve"/>
      <point x="314" y="373"/>
      <point x="302" y="325"/>
    </contour>
    <contour>
      <point x="322.0" y="645" type="move" name="top"/>
    </contour>
    <contour>
      <point x="644.0" y="0" type="move" name="ogonek"/>
    </contour>
  </outline>
</glyph>
<glyph name="B" format="1">
  <advance width="564.0"/>
  <unicode hex="0042"/>
  <outline>
    <contour>
      <point x="556" y="188" type="qcurve"/>
      <point x="556" y="93"/>
      <point x="437" y="0"/>
      <point x="314" y="0" type="qcurve"/>
      <point x="26" y="0" type="line"/>
      <point x="26" y="627" type="line"/>
      <point x="315" y="627" type="line" smooth="yes"/>
      <point x="424" y="627"/>
      <point x="522" y="549"/>
      <point x="522" y="462" type="qcurve"/>
      <point x="522" y="410"/>
      <point x="491" y="345"/>
      <point x="460" y="333" type="qcurve"/>
      <point x="510" y="320"/>
      <point x="556" y="250"/>
    </contour>
    <contour>
      <point x="331" y="418" type="qcurve"/>
      <point x="331" y="432"/>
      <point x="320" y="446"/>
      <point x="310" y="446" type="qcurve"/>
      <point x="244" y="446" type="line"/>
      <point x="244" y="388" type="line"/>
      <point x="310" y="388" type="line" smooth="yes"/>
      <point x="321" y="388"/>
      <point x="331" y="403"/>
    </contour>
    <contour>
      <point x="334" y="218" type="qcurve"/>
      <point x="334" y="232"/>
      <point x="324" y="247"/>
      <point x="314" y="247" type="qcurve"/>
      <point x="244" y="247" type="line"/>
      <point x="244" y="189" type="line"/>
      <point x="314" y="189" type="line" smooth="yes"/>
      <point x="324" y="189"/>
      <point x="334" y="204"/>
    </contour>
  </outline>
</glyph>
<glyph name="C" format="1">
  <advance width="505.0"/>
  <unicode hex="0043"/>
  <outline>
    <contour>
      <point x="328" y="200" type="qcurve"/>
      <point x="366" y="200"/>
      <point x="459" y="215"/>
      <point x="494" y="226" type="qcurve"/>
      <point x="494" y="27" type="line"/>
      <point x="439" y="5"/>
      <point x="349" y="-12"/>
      <point x="298" y="-12" type="qcurve"/>
      <point x="203" y="-12"/>
      <point x="98" y="26"/>
      <point x="68" y="68" type="qcurve" smooth="yes"/>
      <point x="40" y="105"/>
      <point x="14" y="226"/>
      <point x="14" y="313" type="qcurve" smooth="yes"/>
      <point x="14" y="481"/>
      <point x="166" y="637"/>
      <point x="333" y="637" type="qcurve"/>
      <point x="379" y="637"/>
      <point x="451" y="633"/>
      <point x="480" y="628" type="qcurve"/>
      <point x="480" y="428" type="line"/>
      <point x="417" y="431"/>
      <point x="363" y="432"/>
      <point x="338" y="432" type="qcurve"/>
      <point x="285" y="432"/>
      <point x="249" y="382"/>
      <point x="249" y="313" type="qcurve" smooth="yes"/>
      <point x="249" y="252"/>
      <point x="284" y="200"/>
    </contour>
    <contour>
      <point x="274.0" y="655" type="move" name="top"/>
    </contour>
    <contour>
      <point x="275.0" y="0" type="move" name="bottom"/>
    </contour>
  </outline>
</glyph>
<glyph name="D" format="1">
  <advance width="605.0"/>
  <unicode hex="0044"/>
  <outline>
    <contour>
      <point x="283" y="0" type="qcurve"/>
      <point x="26" y="0" type="line"/>
      <point x="26" y="627" type="line"/>
      <point x="283" y="627" type="line" smooth="yes"/>
      <point x="458" y="627"/>
      <point x="591" y="484"/>
      <point x="591" y="314" type="qcurve"/>
      <point x="591" y="151"/>
      <point x="445" y="0"/>
    </contour>
    <contour>
      <point x="356" y="314" type="qcurve"/>
      <point x="356" y="386"/>
      <point x="329" y="432"/>
      <point x="283" y="432" type="qcurve"/>
      <point x="253" y="432" type="line"/>
      <point x="253" y="200" type="line"/>
      <point x="283" y="200" type="line" smooth="yes"/>
      <point x="328" y="200"/>
      <point x="356" y="245"/>
    </contour>
    <contour>
      <point x="280.0" y="645" type="move" name="top"/>
    </contour>
  </outline>
</glyph>
<glyph name="E" format="1">
  <advance width="492.0"/>
  <unicode hex="0045"/>
  <outline>
    <contour>
      <point x="474" y="197" type="line"/>
      <point x="474" y="0" type="line"/>
      <point x="26" y="0" type="line"/>
      <point x="26" y="627" type="line"/>
      <point x="465" y="627" type="line"/>
      <point x="465" y="434" type="line"/>
      <point x="253" y="434" type="line"/>
      <point x="253" y="407" type="line"/>
      <point x="428" y="407" type="line"/>
      <point x="428" y="224" type="line"/>
      <point x="253" y="224" type="line"/>
      <point x="253" y="197" type="line"/>
    </contour>
    <contour>
      <point x="251.0" y="645" type="move" name="top"/>
    </contour>
    <contour>
      <point x="456.0" y="0.0" type="move" name="ogonek"/>
    </contour>
  </outline>
</glyph>
<glyph name="F" format="1">
  <advance width="485.0"/>
  <unicode hex="0046"/>
  <outline>
    <contour>
      <point x="253" y="197" type="line"/>
      <point x="253" y="0" type="line"/>
      <point x="26" y="0" type="line"/>
      <point x="26" y="627" type="line"/>
      <point x="470" y="627" type="line"/>
      <point x="470" y="422" type="line"/>
      <point x="253" y="422" type="line"/>
      <point x="253" y="384" type="line"/>
      <point x="433" y="384" type="line"/>
      <point x="433" y="197" type="line"/>
    </contour>
  </outline>
</glyph>
<glyph name="G" format="1">
  <advance width="570.0"/>
  <unicode hex="0047"/>
  <outline>
    <contour>
      <point x="349" y="228" type="line"/>
      <point x="287" y="228" type="line"/>
      <point x="287" y="385" type="line"/>
      <point x="550" y="385" type="line"/>
      <point x="550" y="27" type="line"/>
      <point x="499" y="7"/>
      <point x="386" y="-12"/>
      <point x="317" y="-12" type="qcurve"/>
      <point x="151" y="-12"/>
      <point x="13" y="140"/>
      <point x="13" y="313" type="qcurve" smooth="yes"/>
      <point x="13" y="481"/>
      <point x="165" y="637"/>
      <point x="332" y="637" type="qcurve"/>
      <point x="388" y="637"/>
      <point x="479" y="631"/>
      <point x="517" y="625" type="qcurve"/>
      <point x="517" y="427" type="line"/>
      <point x="462" y="430"/>
      <point x="379" y="432"/>
      <point x="337" y="432" type="qcurve"/>
      <point x="284" y="432"/>
      <point x="248" y="382"/>
      <point x="248" y="313" type="qcurve" smooth="yes"/>
      <point x="248" y="237"/>
      <point x="280" y="181"/>
      <point x="323" y="181" type="qcurve"/>
      <point x="333" y="181"/>
      <point x="344" y="181"/>
      <point x="349" y="182" type="qcurve"/>
    </contour>
    <contour>
      <point x="317.0" y="655" type="move" name="top"/>
    </contour>
    <contour>
      <point x="316.0" y="0" type="move" name="bottom"/>
    </contour>
  </outline>
</glyph>
<glyph name="J" format="1">
  <advance width="409.0"/>
  <unicode hex="004A"/>
  <outline>
    <contour>
      <point x="160" y="259" type="qcurve"/>
      <point x="160" y="627" type="line"/>
      <point x="387" y="627" type="line"/>
      <point x="387" y="239" type="line"/>
      <point x="387" y="102"/>
      <point x="267" y="-12"/>
      <point x="122" y="-12" type="qcurve"/>
      <point x="89" y="-12"/>
      <point x="35" y="-8"/>
      <point x="12" y="-3" type="qcurve"/>
      <point x="12" y="204" type="line"/>
      <point x="25" y="202"/>
      <point x="56" y="200"/>
      <point x="82" y="200" type="qcurve"/>
      <point x="126" y="200"/>
      <point x="160" y="225"/>
    </contour>
    <contour>
      <point x="275.0" y="645" type="move" name="top"/>
    </contour>
  </outline>
</glyph>
<glyph name="K" format="1">
  <advance width="638.0"/>
  <unicode hex="004B"/>
  <outline>
    <contour>
      <point x="472" y="325" type="line"/>
      <point x="655" y="0" type="line"/>
      <point x="377" y="0" type="line"/>
      <point x="273" y="230" type="line"/>
      <point x="253" y="230" type="line"/>
      <point x="253" y="0" type="line"/>
      <point x="26" y="0" type="line"/>
      <point x="26" y="627" type="line"/>
      <point x="253" y="627" type="line"/>
      <point x="253" y="405" type="line"/>
      <point x="273" y="405" type="line"/>
      <point x="383" y="627" type="line"/>
      <point x="649" y="627" type="line"/>
    </contour>
    <contour>
      <point x="301.0" y="0" type="move" name="bottom"/>
    </contour>
  </outline>
</glyph>
<glyph name="L" format="1">
  <advance width="454.0"/>
  <unicode hex="004C"/>
  <outline>
    <contour>
      <point x="442" y="212" type="line"/>
      <point x="442" y="0" type="line"/>
      <point x="26" y="0" type="line"/>
      <point x="26" y="627" type="line"/>
      <point x="253" y="627" type="line"/>
      <point x="253" y="212" type="line"/>
    </contour>
    <contour>
      <point x="140.0" y="645" type="move" name="top"/>
    </contour>
    <contour>
      <point x="283.0" y="627" type="move" name="caronalt"/>
    </contour>
    <contour>
      <point x="250.0" y="0" type="move" name="bottom"/>
    </contour>
  </outline>
</glyph>
<glyph name="M" format="1">
  <advance width="739.0"/>
  <unicode hex="004D"/>
  <outline>
    <contour>
      <point x="713" y="627" type="line"/>
      <point x="713" y="0" type="line"/>
      <point x="501" y="0" type="line"/>
      <point x="501" y="275" type="line"/>
      <point x="453" y="115" type="line"/>
      <point x="281" y="115" type="line"/>
      <point x="238" y="274" type="line"/>
      <point x="238" y="0" type="line"/>
      <point x="26" y="0" type="line"/>
      <point x="26" y="627" type="line"/>
      <point x="300" y="627" type="line"/>
      <point x="372" y="396" type="line"/>
      <point x="449" y="627" type="line"/>
    </contour>
  </outline>
</glyph>
<glyph name="N" format="1">
  <advance width="629.0"/>
  <unicode hex="004E"/>
  <outline>
    <contour>
      <point x="603" y="627" type="line"/>
      <point x="603" y="0" type="line"/>
      <point x="392" y="0" type="line"/>
      <point x="238" y="242" type="line"/>
      <point x="238" y="0" type="line"/>
      <point x="26" y="0" type="line"/>
      <point x="26" y="627" type="line"/>
      <point x="235" y="627" type="line"/>
      <point x="392" y="364" type="line"/>
      <point x="392" y="627" type="line"/>
    </contour>
    <contour>
      <point x="322.0" y="645" type="move" name="top"/>
    </contour>
    <contour>
      <point x="308.0" y="0" type="move" name="bottom"/>
    </contour>
  </outline>
</glyph>
<glyph name="O" format="1">
  <advance width="647.0"/>
  <unicode hex="004F"/>
  <outline>
    <contour>
      <point x="634" y="313" type="qcurve"/>
      <point x="634" y="142"/>
      <point x="486" y="-12"/>
      <point x="323" y="-12" type="qcurve"/>
      <point x="156" y="-12"/>
      <point x="13" y="136"/>
      <point x="13" y="313" type="qcurve"/>
      <point x="13" y="484"/>
      <point x="160" y="637"/>
      <point x="323" y="637" type="qcurve"/>
      <point x="491" y="637"/>
      <point x="634" y="489"/>
    </contour>
    <contour>
      <point x="243" y="313" type="qcurve"/>
      <point x="243" y="247"/>
      <point x="276" y="200"/>
      <point x="323" y="200" type="qcurve"/>
      <point x="370" y="200"/>
      <point x="404" y="247"/>
      <point x="404" y="313" type="qcurve"/>
      <point x="404" y="382"/>
      <point x="370" y="432"/>
      <point x="323" y="432" type="qcurve"/>
      <point x="277" y="432"/>
      <point x="243" y="382"/>
    </contour>
    <contour>
      <point x="323.0" y="655" type="move" name="top"/>
    </contour>
  </outline>
</glyph>
<glyph name="P" format="1">
  <advance width="568.0"/>
  <unicode hex="0050"/>
  <outline>
    <contour>
      <point x="253" y="152" type="line"/>
      <point x="253" y="0" type="line"/>
      <point x="26" y="0" type="line"/>
      <point x="26" y="627" type="line"/>
      <point x="271" y="627" type="line" smooth="yes"/>
      <point x="429" y="627"/>
      <point x="558" y="520"/>
      <point x="558" y="392" type="qcurve"/>
      <point x="558" y="268"/>
      <point x="421" y="152"/>
      <point x="274" y="152" type="qcurve"/>
    </contour>
    <contour>
      <point x="327" y="385" type="qcurve"/>
      <point x="327" y="404"/>
      <point x="310" y="422"/>
      <point x="291" y="422" type="qcurve"/>
      <point x="253" y="422" type="line"/>
      <point x="253" y="347" type="line"/>
      <point x="291" y="347" type="line" smooth="yes"/>
      <point x="311" y="347"/>
      <point x="327" y="365"/>
    </contour>
  </outline>
</glyph>
<glyph name="Q" format="1">
  <advance width="647.0"/>
  <unicode hex="0051"/>
  <outline>
    <contour>
      <point x="323" y="637" type="qcurve"/>
      <point x="491" y="637"/>
      <point x="634" y="489"/>
      <point x="634" y="313" type="qcurve"/>
      <point x="634" y="214"/>
      <point x="587" y="82"/>
      <point x="538" y="45" type="qcurve"/>
      <point x="654" y="-128" type="line"/>
      <point x="397" y="-128" type="line"/>
      <point x="323" y="-12" type="line"/>
      <point x="156" y="-12"/>
      <point x="13" y="136"/>
      <point x="13" y="313" type="qcurve"/>
      <point x="13" y="484"/>
      <point x="160" y="637"/>
    </contour>
    <contour>
      <point x="243" y="313" type="qcurve"/>
      <point x="243" y="247"/>
      <point x="276" y="200"/>
      <point x="323" y="200" type="qcurve"/>
      <point x="370" y="200"/>
      <point x="404" y="247"/>
      <point x="404" y="313" type="qcurve"/>
      <point x="404" y="382"/>
      <point x="370" y="432"/>
      <point x="323" y="432" type="qcurve"/>
      <point x="277" y="432"/>
      <point x="243" y="382"/>
    </contour>
  </outline>
</glyph>
<glyph name="R" format="1">
  <advance width="591.0"/>
  <unicode hex="0052"/>
  <outline>
    <contour>
      <point x="253" y="187" type="line"/>
      <point x="253" y="0" type="line"/>
      <point x="26" y="0" type="line"/>
      <point x="26" y="627" type="line"/>
      <point x="271" y="627" type="line" smooth="yes"/>
      <point x="429" y="627"/>
      <point x="558" y="522"/>
      <point x="558" y="396" type="qcurve"/>
      <point x="558" y="333"/>
      <point x="517" y="249"/>
      <point x="474" y="225" type="qcurve"/>
      <point x="589" y="0" type="line"/>
      <point x="342" y="0" type="line"/>
      <point x="269" y="187" type="line"/>
    </contour>
    <contour>
      <point x="327" y="390" type="qcurve"/>
      <point x="327" y="409"/>
      <point x="310" y="427"/>
      <point x="291" y="427" type="qcurve"/>
      <point x="253" y="427" type="line"/>
      <point x="253" y="352" type="line"/>
      <point x="291" y="352" type="line" smooth="yes"/>
      <point x="311" y="352"/>
      <point x="327" y="370"/>
    </contour>
    <contour>
      <point x="261.0" y="645" type="move" name="top"/>
    </contour>
    <contour>
      <point x="290.0" y="0" type="move" name="bottom"/>
    </contour>
  </outline>
</glyph>
<glyph name="S" format="1">
  <advance width="509.0"/>
  <unicode hex="0053"/>
  <outline>
    <contour>
      <point x="269" y="219" type="qcurve"/>
      <point x="165" y="239" type="line" smooth="yes"/>
      <point x="88" y="254"/>
      <point x="18" y="342"/>
      <point x="18" y="421" type="qcurve"/>
      <point x="18" y="533"/>
      <point x="136" y="637"/>
      <point x="266" y="637" type="qcurve" smooth="yes"/>
      <point x="324" y="637"/>
      <point x="420" y="628"/>
      <point x="450" y="619" type="qcurve"/>
      <point x="450" y="420" type="line"/>
      <point x="394" y="429"/>
      <point x="311" y="436"/>
      <point x="267" y="436" type="qcurve" smooth="yes"/>
      <point x="247" y="436"/>
      <point x="231" y="432"/>
      <point x="231" y="426" type="qcurve" smooth="yes"/>
      <point x="231" y="422"/>
      <point x="240" y="418"/>
      <point x="250" y="416" type="qcurve"/>
      <point x="345" y="396" type="line" smooth="yes"/>
      <point x="437" y="376"/>
      <point x="498" y="297"/>
      <point x="498" y="211" type="qcurve"/>
      <point x="498" y="95"/>
      <point x="373" y="-12"/>
      <point x="245" y="-12" type="qcurve" smooth="yes"/>
      <point x="177" y="-12"/>
      <point x="49" y="1"/>
      <point x="22" y="11" type="qcurve"/>
      <point x="22" y="223" type="line"/>
      <point x="58" y="211"/>
      <point x="183" y="196"/>
      <point x="246" y="196" type="qcurve" smooth="yes"/>
      <point x="271" y="196"/>
      <point x="289" y="201"/>
      <point x="289" y="208" type="qcurve" smooth="yes"/>
      <point x="289" y="213"/>
      <point x="281" y="217"/>
    </contour>
    <contour>
      <point x="255.0" y="655" type="move" name="top"/>
    </contour>
    <contour>
      <point x="242.0" y="0" type="move" name="bottom"/>
    </contour>
  </outline>
</glyph>
<glyph name="T" format="1">
  <advance width="517.0"/>
  <unicode hex="0054"/>
  <outline>
    <contour>
      <point x="505" y="627" type="line"/>
      <point x="505" y="422" type="line"/>
      <point x="372" y="422" type="line"/>
      <point x="372" y="0" type="line"/>
      <point x="145" y="0" type="line"/>
      <point x="145" y="422" type="line"/>
      <point x="12" y="422" type="line"/>
      <point x="12" y="627" type="line"/>
    </contour>
    <contour>
      <point x="259.0" y="645" type="move" name="top"/>
    </contour>
    <contour>
      <point x="259.0" y="0" type="move" name="bottom"/>
    </contour>
  </outline>
</glyph>
<glyph name="U" format="1">
  <advance width="620.0"/>
  <unicode hex="0055"/>
  <outline>
    <contour>
      <point x="372" y="278" type="qcurve"/>
      <point x="372" y="627" type="line"/>
      <point x="599" y="627" type="line"/>
      <point x="599" y="276" type="line" smooth="yes"/>
      <point x="599" y="134"/>
      <point x="453" y="-12"/>
      <point x="312" y="-12" type="qcurve"/>
      <point x="159" y="-12"/>
      <point x="21" y="124"/>
      <point x="21" y="276" type="qcurve"/>
      <point x="21" y="627" type="line"/>
      <point x="248" y="627" type="line"/>
      <point x="248" y="278" type="line" smooth="yes"/>
      <point x="248" y="232"/>
      <point x="275" y="200"/>
      <point x="311" y="200" type="qcurve"/>
      <point x="345" y="200"/>
      <point x="372" y="233"/>
    </contour>
    <contour>
      <point x="311" y="645" type="move" name="top"/>
    </contour>
    <contour>
      <point x="479" y="27" type="move" name="ogonekalt"/>
    </contour>
  </outline>
</glyph>
<glyph name="V" format="1">
  <advance width="654.0"/>
  <unicode hex="0056"/>
  <outline>
    <contour>
      <point x="191" y="0" type="line"/>
      <point x="-8" y="627" type="line"/>
      <point x="236" y="627" type="line"/>
      <point x="305" y="333" type="line" smooth="yes"/>
      <point x="308" y="319"/>
      <point x="319" y="265"/>
      <point x="333" y="180" type="qcurve"/>
      <point x="336" y="196"/>
      <point x="355" y="314"/>
      <point x="359" y="331" type="qcurve"/>
      <point x="425" y="627" type="line"/>
      <point x="662" y="627" type="line"/>
      <point x="465" y="0" type="line"/>
    </contour>
  </outline>
</glyph>
<glyph name="W" format="1">
  <advance width="858.0"/>
  <unicode hex="0057"/>
  <outline>
    <contour>
      <point x="149" y="0" type="line"/>
      <point x="-7" y="627" type="line"/>
      <point x="227" y="627" type="line"/>
      <point x="267" y="407" type="line" smooth="yes"/>
      <point x="270" y="390"/>
      <point x="280" y="315"/>
      <point x="286" y="260" type="qcurve"/>
      <point x="287" y="265"/>
      <point x="300" y="387"/>
      <point x="302" y="405" type="qcurve"/>
      <point x="332" y="627" type="line"/>
      <point x="533" y="627" type="line"/>
      <point x="565" y="407" type="line" smooth="yes"/>
      <point x="567" y="396"/>
      <point x="571" y="358"/>
      <point x="582" y="257" type="qcurve"/>
      <point x="586" y="298"/>
      <point x="597" y="380"/>
      <point x="601" y="405" type="qcurve"/>
      <point x="638" y="627" type="line"/>
      <point x="864" y="627" type="line"/>
      <point x="710" y="0" type="line"/>
      <point x="474" y="0" type="line"/>
      <point x="459" y="100" type="line" smooth="yes"/>
      <point x="454" y="131"/>
      <point x="443" y="212"/>
      <point x="429" y="321" type="qcurve"/>
      <point x="423" y="271"/>
      <point x="408" y="160"/>
      <point x="399" y="100" type="qcurve"/>
      <point x="384" y="0" type="line"/>
    </contour>
    <contour>
      <point x="429.0" y="645" type="move" name="top"/>
    </contour>
  </outline>
</glyph>
<glyph name="X" format="1">
  <advance width="620.0"/>
  <unicode hex="0058"/>
  <outline>
    <contour>
      <point x="447" y="327" type="line"/>
      <point x="638" y="0" type="line"/>
      <point x="361" y="0" type="line"/>
      <point x="294" y="140" type="line"/>
      <point x="230" y="0" type="line"/>
      <point x="-17" y="0" type="line"/>
      <point x="178" y="318" type="line"/>
      <point x="-2" y="627" type="line"/>
      <point x="276" y="627" type="line"/>
      <point x="328" y="513" type="line"/>
      <point x="378" y="627" type="line"/>
      <point x="617" y="627" type="line"/>
    </contour>
    <contour>
      <point x="324.0" y="645" type="move" name="top"/>
    </contour>
  </outline>
</glyph>
<glyph name="Y" format="1">
  <advance width="629.0"/>
  <unicode hex="0059"/>
  <outline>
    <contour>
      <point x="404" y="627" type="line"/>
      <point x="635" y="627" type="line"/>
      <point x="430" y="218" type="line"/>
      <point x="430" y="0" type="line"/>
      <point x="203" y="0" type="line"/>
      <point x="203" y="218" type="line"/>
      <point x="-8" y="627" type="line"/>
      <point x="247" y="627" type="line"/>
      <point x="321" y="423" type="line"/>
    </contour>
    <contour>
      <point x="320.0" y="645" type="move" name="top"/>
    </contour>
  </outline>
</glyph>
<glyph name="Z" format="1">
  <advance width="505.0"/>
  <unicode hex="005A"/>
  <outline>
    <contour>
      <point x="489" y="212" type="line"/>
      <point x="489" y="0" type="line"/>
      <point x="16" y="0" type="line"/>
      <point x="16" y="212" type="line"/>
      <point x="214" y="422" type="line"/>
      <point x="45" y="422" type="line"/>
      <point x="45" y="627" type="line"/>
      <point x="470" y="627" type="line"/>
      <point x="470" y="422" type="line"/>
      <point x="273" y="212" type="line"/>
    </contour>
    <contour>
      <point x="263.0" y="645" type="move" name="top"/>
    </contour>
  </outline>
</glyph>
<glyph name="backslash" format="1">
  <advance width="366.0"/>
  <unicode hex="005C"/>
  <outline>
    <contour>
      <point x="133" y="707" type="line"/>
      <point x="359" y="-80" type="line"/>
      <point x="231" y="-80" type="line"/>
      <point x="6" y="707" type="line"/>
    </contour>
  </outline>
</glyph>
<glyph name="bracketright" format="1">
  <advance width="219.0"/>
  <unicode hex="005D"/>
  <outline>
    <contour>
      <point x="194" y="-82" type="line"/>
      <point x="14" y="-82" type="line"/>
      <point x="14" y="30" type="line"/>
      <point x="72" y="30" type="line"/>
      <point x="72" y="598" type="line"/>
      <point x="14" y="598" type="line"/>
      <point x="14" y="707" type="line"/>
      <point x="194" y="707" type="line"/>
    </contour>
  </outline>
</glyph>
<glyph name="asciicircum" format="1">
  <advance width="500.0"/>
  <unicode hex="005E"/>
  <outline>
    <contour>
      <point x="218" y="365" type="line"/>
      <point x="55" y="365" type="line"/>
      <point x="170" y="627" type="line"/>
      <point x="330" y="627" type="line"/>
      <point x="446" y="365" type="line"/>
      <point x="288" y="365" type="line"/>
      <point x="253" y="462" type="line"/>
    </contour>
  </outline>
</glyph>
<glyph name="a" format="1">
  <advance width="495.0"/>
  <unicode hex="0061"/>
  <outline>
    <contour>
      <point x="134" y="-12" type="qcurve"/>
      <point x="69" y="-12"/>
      <point x="9" y="63"/>
      <point x="9" y="144" type="qcurve"/>
      <point x="9" y="218"/>
      <point x="90" y="287"/>
      <point x="178" y="287" type="qcurve"/>
      <point x="199" y="287"/>
      <point x="239" y="284"/>
      <point x="256" y="282" type="qcurve"/>
      <point x="256" y="292" type="line" smooth="yes"/>
      <point x="256" y="306"/>
      <point x="222" y="316"/>
      <point x="179" y="316" type="qcurve"/>
      <point x="141" y="316"/>
      <point x="83" y="312"/>
      <point x="52" y="307" type="qcurve"/>
      <point x="52" y="486" type="line"/>
      <point x="92" y="495"/>
      <point x="209" y="504"/>
      <point x="276" y="504" type="qcurve" smooth="yes"/>
      <point x="372" y="504"/>
      <point x="476" y="419"/>
      <point x="476" y="340" type="qcurve"/>
      <point x="476" y="0" type="line"/>
      <point x="268" y="0" type="line"/>
      <point x="263" y="35" type="line"/>
      <point x="260" y="35" type="line"/>
      <point x="231" y="9"/>
      <point x="171" y="-12"/>
    </contour>
    <contour>
      <point x="219" y="180" type="qcurve"/>
      <point x="209" y="180"/>
      <point x="200" y="169"/>
      <point x="200" y="157" type="qcurve" smooth="yes"/>
      <point x="200" y="144"/>
      <point x="209" y="133"/>
      <point x="219" y="133" type="qcurve"/>
      <point x="231" y="133"/>
      <point x="248" y="135"/>
      <point x="256" y="137" type="qcurve"/>
      <point x="256" y="178" type="line"/>
      <point x="244" y="179"/>
      <point x="227" y="180"/>
    </contour>
    <contour>
      <point x="260.0" y="530" type="move" name="top"/>
    </contour>
    <contour>
      <point x="476.0" y="0" type="move" name="ogonek"/>
    </contour>
  </outline>
</glyph>
<glyph name="b" format="1">
  <advance width="547.0"/>
  <unicode hex="0062"/>
  <outline>
    <contour>
      <point x="362" y="504" type="qcurve"/>
      <point x="456" y="504"/>
      <point x="535" y="390"/>
      <point x="535" y="252" type="qcurve"/>
      <point x="535" y="117"/>
      <point x="420" y="-12"/>
      <point x="300" y="-12" type="qcurve"/>
      <point x="215" y="-12"/>
      <point x="74" y="3"/>
      <point x="21" y="18" type="qcurve"/>
      <point x="21" y="665" type="line"/>
      <point x="241" y="665" type="line"/>
      <point x="241" y="475" type="line"/>
      <point x="271" y="489"/>
      <point x="333" y="504"/>
    </contour>
    <contour>
      <point x="315" y="252" type="qcurve"/>
      <point x="315" y="281"/>
      <point x="299" y="306"/>
      <point x="279" y="306" type="qcurve"/>
      <point x="269" y="306"/>
      <point x="250" y="302"/>
      <point x="241" y="298" type="qcurve"/>
      <point x="241" y="195" type="line"/>
      <point x="249" y="193"/>
      <point x="268" y="192"/>
      <point x="278" y="192" type="qcurve"/>
      <point x="299" y="192"/>
      <point x="315" y="219"/>
    </contour>
  </outline>
</glyph>
<glyph name="c" format="1">
  <advance width="425.0"/>
  <unicode hex="0063"/>
  <outline>
    <contour>
      <point x="412" y="204" type="qcurve"/>
      <point x="412" y="25" type="line"/>
      <point x="389" y="10"/>
      <point x="273" y="-12"/>
      <point x="212" y="-12" type="qcurve" smooth="yes"/>
      <point x="101" y="-12"/>
      <point x="12" y="103"/>
      <point x="12" y="246" type="qcurve" smooth="yes"/>
      <point x="12" y="392"/>
      <point x="127" y="504"/>
      <point x="274" y="504" type="qcurve" smooth="yes"/>
      <point x="293" y="504"/>
      <point x="329" y="502"/>
      <point x="399" y="494" type="qcurve"/>
      <point x="399" y="303" type="line"/>
      <point x="354" y="305"/>
      <point x="293" y="306"/>
      <point x="277" y="306" type="qcurve"/>
      <point x="251" y="306"/>
      <point x="232" y="282"/>
      <point x="232" y="246" type="qcurve" smooth="yes"/>
      <point x="232" y="214"/>
      <point x="253" y="192"/>
      <point x="281" y="192" type="qcurve"/>
      <point x="312" y="192"/>
      <point x="378" y="198"/>
    </contour>
    <contour>
      <point x="249.0" y="530.0" type="move" name="top"/>
    </contour>
    <contour>
      <point x="247.0" y="0.0" type="move" name="bottom"/>
    </contour>
  </outline>
</glyph>
<glyph name="d" format="1">
  <advance width="547.0"/>
  <unicode hex="0064"/>
  <outline>
    <contour>
      <point x="306" y="665" type="line"/>
      <point x="526" y="665" type="line"/>
      <point x="526" y="0" type="line"/>
      <point x="331" y="0" type="line"/>
      <point x="320" y="46" type="line"/>
      <point x="316" y="46" type="line"/>
      <point x="292" y="16"/>
      <point x="227" y="-12"/>
      <point x="183" y="-12" type="qcurve"/>
      <point x="92" y="-12"/>
      <point x="12" y="107"/>
      <point x="12" y="246" type="qcurve"/>
      <point x="12" y="379"/>
      <point x="112" y="504"/>
      <point x="218" y="504" type="qcurve"/>
      <point x="243" y="504"/>
      <point x="288" y="498"/>
      <point x="306" y="493" type="qcurve"/>
    </contour>
    <contour>
      <point x="268" y="306" type="qcurve"/>
      <point x="247" y="306"/>
      <point x="232" y="279"/>
      <point x="232" y="247" type="qcurve"/>
      <point x="232" y="216"/>
      <point x="247" y="192"/>
      <point x="268" y="192" type="qcurve"/>
      <point x="277" y="192"/>
      <point x="296" y="196"/>
      <point x="306" y="201" type="qcurve"/>
      <point x="306" y="302" type="line"/>
      <point x="298" y="304"/>
      <point x="280" y="306"/>
    </contour>
    <contour>
      <point x="556.0" y="665" type="move" name="caronalt"/>
    </contour>
  </outline>
</glyph>
<glyph name="e" format="1">
  <advance width="492.0"/>
  <unicode hex="0065"/>
  <outline>
    <contour>
      <point x="459" y="181" type="qcurve"/>
      <point x="459" y="21" type="line"/>
      <point x="424" y="7"/>
      <point x="305" y="-12"/>
      <point x="242" y="-12" type="qcurve"/>
      <point x="120" y="-12"/>
      <point x="11" y="109"/>
      <point x="11" y="244" type="qcurve" smooth="yes"/>
      <point x="11" y="377"/>
      <point x="130" y="504"/>
      <point x="254" y="504" type="qcurve"/>
      <point x="372" y="504"/>
      <point x="480" y="412"/>
      <point x="480" y="308" type="qcurve"/>
      <point x="480" y="272"/>
      <point x="478" y="225"/>
      <point x="475" y="199" type="qcurve"/>
      <point x="226" y="199" type="line"/>
      <point x="227" y="181"/>
      <point x="250" y="168"/>
      <point x="277" y="168" type="qcurve"/>
      <point x="325" y="168"/>
      <point x="427" y="176"/>
    </contour>
    <contour>
      <point x="288" y="319" type="qcurve" smooth="yes"/>
      <point x="286" y="334"/>
      <point x="272" y="344"/>
      <point x="257" y="344" type="qcurve"/>
      <point x="241" y="344"/>
      <point x="226" y="324"/>
      <point x="226" y="296" type="qcurve"/>
      <point x="289" y="296" type="line"/>
      <point x="289" y="303"/>
      <point x="289" y="313"/>
    </contour>
    <contour>
      <point x="253.0" y="530.0" type="move" name="top"/>
    </contour>
    <contour>
      <point x="423.0" y="10" type="move" name="ogonekalt"/>
    </contour>
  </outline>
</glyph>
<glyph name="f" format="1">
  <advance width="365.0"/>
  <unicode hex="0066"/>
  <outline>
    <contour>
      <point x="55" y="312" type="line"/>
      <point x="13" y="312" type="line"/>
      <point x="13" y="494" type="line"/>
      <point x="55" y="494" type="line"/>
      <point x="55" y="504" type="line"/>
      <point x="55" y="585"/>
      <point x="156" y="675"/>
      <point x="246" y="675" type="qcurve"/>
      <point x="282" y="675"/>
      <point x="355" y="669"/>
      <point x="375" y="665" type="qcurve"/>
      <point x="375" y="524" type="line"/>
      <point x="344" y="527"/>
      <point x="324" y="528"/>
      <point x="317" y="528" type="qcurve" smooth="yes"/>
      <point x="292" y="528"/>
      <point x="275" y="516"/>
      <point x="275" y="498" type="qcurve"/>
      <point x="275" y="494" type="line"/>
      <point x="360" y="494" type="line"/>
      <point x="360" y="312" type="line"/>
      <point x="275" y="312" type="line"/>
      <point x="275" y="0" type="line"/>
      <point x="55" y="0" type="line"/>
    </contour>
  </outline>
</glyph>
<glyph name="g" format="1">
  <advance width="543.0"/>
  <unicode hex="0067"/>
  <outline>
    <contour>
      <point x="261" y="-162" type="qcurve"/>
      <point x="207" y="-162"/>
      <point x="104" y="-148"/>
      <point x="70" y="-136" type="qcurve"/>
      <point x="70" y="37" type="line"/>
      <point x="95" y="32"/>
      <point x="197" y="24"/>
      <point x="246" y="24" type="qcurve"/>
      <point x="276" y="24"/>
      <point x="299" y="35"/>
      <point x="302" y="48" type="qcurve"/>
      <point x="302" y="78" type="line"/>
      <point x="267" y="65"/>
      <point x="209" y="53"/>
      <point x="184" y="53" type="qcurve"/>
      <point x="88" y="53"/>
      <point x="11" y="151"/>
      <point x="11" y="269" type="qcurve" smooth="yes"/>
      <point x="11" y="394"/>
      <point x="133" y="504"/>
      <point x="269" y="504" type="qcurve" smooth="yes"/>
      <point x="327" y="504"/>
      <point x="487" y="492"/>
      <point x="522" y="485" type="qcurve"/>
      <point x="522" y="120" type="line" smooth="yes"/>
      <point x="522" y="-37"/>
      <point x="407" y="-162"/>
    </contour>
    <contour>
      <point x="259" y="311" type="qcurve" smooth="yes"/>
      <point x="239" y="311"/>
      <point x="225" y="295"/>
      <point x="225" y="271" type="qcurve" smooth="yes"/>
      <point x="225" y="251"/>
      <point x="240" y="237"/>
      <point x="258" y="237" type="qcurve" smooth="yes"/>
      <point x="267" y="237"/>
      <point x="288" y="241"/>
      <point x="302" y="246" type="qcurve"/>
      <point x="302" y="309" type="line"/>
      <point x="290" y="310"/>
      <point x="270" y="311"/>
    </contour>
    <contour>
      <point x="280.0" y="530" type="move" name="top"/>
    </contour>
  </outline>
</glyph>
<glyph name="h" format="1">
  <advance width="525.0"/>
  <unicode hex="0068"/>
  <outline>
    <contour>
      <point x="241" y="0" type="line"/>
      <point x="21" y="0" type="line"/>
      <point x="21" y="665" type="line"/>
      <point x="241" y="665" type="line"/>
      <point x="241" y="460" type="line"/>
      <point x="265" y="482"/>
      <point x="325" y="504"/>
      <point x="363" y="504" type="qcurve"/>
      <point x="433" y="504"/>
      <point x="506" y="422"/>
      <point x="506" y="342" type="qcurve"/>
      <point x="506" y="0" type="line"/>
      <point x="286" y="0" type="line"/>
      <point x="286" y="282" type="line" smooth="yes"/>
      <point x="286" y="295"/>
      <point x="276" y="306"/>
      <point x="265" y="306" type="qcurve"/>
      <point x="258" y="306"/>
      <point x="246" y="304"/>
      <point x="241" y="302" type="qcurve"/>
    </contour>
    <contour>
      <point x="131.0" y="683" type="move" name="top"/>
    </contour>
  </outline>
</glyph>
<glyph name="j" format="1">
  <advance width="266.0"/>
  <unicode hex="006A"/>
  <outline>
    <contour>
      <point x="245" y="517" type="line"/>
      <point x="25" y="517" type="line"/>
      <point x="25" y="665" type="line"/>
      <point x="245" y="665" type="line"/>
    </contour>
    <contour>
      <point x="62" y="-162" type="qcurve"/>
      <point x="41" y="-162"/>
      <point x="6" y="-160"/>
      <point x="-16" y="-156" type="qcurve"/>
      <point x="-16" y="-16" type="line"/>
      <point x="-11" y="-17"/>
      <point x="-4" y="-17"/>
      <point x="2" y="-17" type="qcurve" smooth="yes"/>
      <point x="14" y="-17"/>
      <point x="25" y="-10"/>
      <point x="25" y="-1" type="qcurve"/>
      <point x="25" y="494" type="line"/>
      <point x="245" y="494" type="line"/>
      <point x="245" y="3" type="line" smooth="yes"/>
      <point x="245" y="-76"/>
      <point x="148" y="-162"/>
    </contour>
  </outline>
</glyph>
<glyph name="k" format="1">
  <advance width="544.0"/>
  <unicode hex="006B"/>
  <outline>
    <contour>
      <point x="241" y="169" type="line"/>
      <point x="241" y="0" type="line"/>
      <point x="21" y="0" type="line"/>
      <point x="21" y="665" type="line"/>
      <point x="241" y="665" type="line"/>
      <point x="241" y="332" type="line"/>
      <point x="245" y="332" type="line"/>
      <point x="295" y="494" type="line"/>
      <point x="538" y="494" type="line"/>
      <point x="443" y="258" type="line"/>
      <point x="548" y="0" type="line"/>
      <point x="299" y="0" type="line"/>
      <point x="245" y="169" type="line"/>
    </contour>
    <contour>
      <point x="267.0" y="-10" type="move" name="bottom"/>
    </contour>
  </outline>
</glyph>
<glyph name="m" format="1">
  <advance width="780.0"/>
  <unicode hex="006D"/>
  <outline>
    <contour>
      <point x="241" y="0" type="line"/>
      <point x="21" y="0" type="line"/>
      <point x="21" y="494" type="line"/>
      <point x="211" y="494" type="line"/>
      <point x="220" y="446" type="line"/>
      <point x="225" y="446" type="line"/>
      <point x="251" y="476"/>
      <point x="317" y="504"/>
      <point x="362" y="504" type="qcurve"/>
      <point x="403" y="504"/>
      <point x="460" y="477"/>
      <point x="477" y="449" type="qcurve"/>
      <point x="481" y="449" type="line"/>
      <point x="508" y="477"/>
      <point x="577" y="504"/>
      <point x="622" y="504" type="qcurve"/>
      <point x="692" y="504"/>
      <point x="761" y="423"/>
      <point x="761" y="342" type="qcurve"/>
      <point x="761" y="0" type="line"/>
      <point x="541" y="0" type="line"/>
      <point x="541" y="289" type="line" smooth="yes"/>
      <point x="541" y="298"/>
      <point x="533" y="306"/>
      <point x="524" y="306" type="qcurve" smooth="yes"/>
      <point x="517" y="306"/>
      <point x="506" y="304"/>
      <point x="501" y="302" type="qcurve"/>
      <point x="501" y="0" type="line"/>
      <point x="281" y="0" type="line"/>
      <point x="281" y="289" type="line" smooth="yes"/>
      <point x="281" y="298"/>
      <point x="273" y="306"/>
      <point x="264" y="306" type="qcurve" smooth="yes"/>
      <point x="257" y="306"/>
      <point x="246" y="304"/>
      <point x="241" y="302" type="qcurve"/>
    </contour>
  </outline>
</glyph>
<glyph name="n" format="1">
  <advance width="525.0"/>
  <unicode hex="006E"/>
  <outline>
    <contour>
      <point x="241" y="0" type="line"/>
      <point x="21" y="0" type="line"/>
      <point x="21" y="494" type="line"/>
      <point x="211" y="494" type="line"/>
      <point x="219" y="441" type="line"/>
      <point x="222" y="441" type="line"/>
      <point x="248" y="473"/>
      <point x="317" y="504"/>
      <point x="363" y="504" type="qcurve"/>
      <point x="433" y="504"/>
      <point x="506" y="422"/>
      <point x="506" y="342" type="qcurve"/>
      <point x="506" y="0" type="line"/>
      <point x="286" y="0" type="line"/>
      <point x="286" y="282" type="line" smooth="yes"/>
      <point x="286" y="295"/>
      <point x="276" y="306"/>
      <point x="266" y="306" type="qcurve"/>
      <point x="259" y="306"/>
      <point x="246" y="304"/>
      <point x="241" y="302" type="qcurve"/>
    </contour>
    <contour>
      <point x="264.0" y="530" type="move" name="top"/>
    </contour>
    <contour>
      <point x="-147.0" y="665" type="move" name="caronalt"/>
    </contour>
    <contour>
      <point x="263.0" y="-10" type="move" name="bottom"/>
    </contour>
  </outline>
</glyph>
<glyph name="o" format="1">
  <advance width="541.0"/>
  <unicode hex="006F"/>
  <outline>
    <contour>
      <point x="530" y="246" type="qcurve"/>
      <point x="530" y="108"/>
      <point x="409" y="-12"/>
      <point x="270" y="-12" type="qcurve"/>
      <point x="135" y="-12"/>
      <point x="11" y="112"/>
      <point x="11" y="246" type="qcurve"/>
      <point x="11" y="384"/>
      <point x="131" y="504"/>
      <point x="270" y="504" type="qcurve"/>
      <point x="406" y="504"/>
      <point x="530" y="380"/>
    </contour>
    <contour>
      <point x="231" y="249" type="qcurve"/>
      <point x="231" y="216"/>
      <point x="247" y="192"/>
      <point x="270" y="192" type="qcurve"/>
      <point x="293" y="192"/>
      <point x="310" y="216"/>
      <point x="310" y="249" type="qcurve"/>
      <point x="310" y="282"/>
      <point x="293" y="306"/>
      <point x="270" y="306" type="qcurve"/>
      <point x="247" y="306"/>
      <point x="231" y="282"/>
    </contour>
    <contour>
      <point x="270.0" y="530.0" type="move" name="top"/>
    </contour>
  </outline>
</glyph>
<glyph name="q" format="1">
  <advance width="546.0"/>
  <unicode hex="0071"/>
  <outline>
    <contour>
      <point x="525" y="485" type="qcurve"/>
      <point x="525" y="-152" type="line"/>
      <point x="305" y="-152" type="line"/>
      <point x="305" y="37" type="line"/>
      <point x="282" y="13"/>
      <point x="221" y="-10"/>
      <point x="182" y="-10" type="qcurve"/>
      <point x="91" y="-10"/>
      <point x="11" y="109"/>
      <point x="11" y="248" type="qcurve"/>
      <point x="11" y="382"/>
      <point x="134" y="506"/>
      <point x="267" y="506" type="qcurve"/>
      <point x="323" y="506"/>
      <point x="453" y="495"/>
    </contour>
    <contour>
      <point x="267" y="306" type="qcurve"/>
      <point x="247" y="306"/>
      <point x="231" y="278"/>
      <point x="231" y="247" type="qcurve"/>
      <point x="231" y="215"/>
      <point x="245" y="192"/>
      <point x="267" y="192" type="qcurve"/>
      <point x="276" y="192"/>
      <point x="295" y="196"/>
      <point x="305" y="201" type="qcurve"/>
      <point x="305" y="302" type="line"/>
      <point x="297" y="304"/>
      <point x="279" y="306"/>
    </contour>
  </outline>
</glyph>
<glyph name="r" format="1">
  <advance width="364.0"/>
  <unicode hex="0072"/>
  <outline>
    <contour>
      <point x="241" y="0" type="line"/>
      <point x="21" y="0" type="line"/>
      <point x="21" y="494" type="line"/>
      <point x="227" y="494" type="line"/>
      <point x="233" y="456" type="line"/>
      <point x="237" y="456" type="line"/>
      <point x="258" y="482"/>
      <point x="303" y="506"/>
      <point x="328" y="506" type="qcurve" smooth="yes"/>
      <point x="340" y="506"/>
      <point x="350" y="506"/>
      <point x="356" y="505" type="qcurve"/>
      <point x="356" y="292" type="line"/>
      <point x="343" y="294"/>
      <point x="321" y="295"/>
      <point x="310" y="295" type="qcurve" smooth="yes"/>
      <point x="288" y="295"/>
      <point x="255" y="290"/>
      <point x="241" y="284" type="qcurve"/>
    </contour>
    <contour>
      <point x="185.0" y="530" type="move" name="top"/>
    </contour>
    <contour>
      <point x="130.0" y="-10" type="move" name="bottom"/>
    </contour>
  </outline>
</glyph>
<glyph name="s" format="1">
  <advance width="445.0"/>
  <unicode hex="0073"/>
  <outline>
    <contour>
      <point x="247" y="348" type="qcurve" smooth="yes"/>
      <point x="220" y="348"/>
      <point x="204" y="344"/>
      <point x="204" y="338" type="qcurve"/>
      <point x="204" y="332"/>
      <point x="210" y="328"/>
      <point x="217" y="327" type="qcurve"/>
      <point x="307" y="317" type="line" smooth="yes"/>
      <point x="384" y="308"/>
      <point x="435" y="243"/>
      <point x="435" y="167" type="qcurve"/>
      <point x="435" y="76"/>
      <point x="333" y="-12"/>
      <point x="221" y="-12" type="qcurve" smooth="yes"/>
      <point x="161" y="-12"/>
      <point x="56" y="1"/>
      <point x="27" y="12" type="qcurve"/>
      <point x="27" y="174" type="line"/>
      <point x="107" y="158"/>
      <point x="179" y="150"/>
      <point x="210" y="150" type="qcurve"/>
      <point x="237" y="150"/>
      <point x="249" y="155"/>
      <point x="249" y="162" type="qcurve"/>
      <point x="249" y="168"/>
      <point x="243" y="172"/>
      <point x="235" y="173" type="qcurve"/>
      <point x="128" y="186" type="line" smooth="yes"/>
      <point x="64" y="193"/>
      <point x="11" y="260"/>
      <point x="11" y="331" type="qcurve"/>
      <point x="11" y="418"/>
      <point x="123" y="504"/>
      <point x="237" y="504" type="qcurve" smooth="yes"/>
      <point x="288" y="504"/>
      <point x="376" y="499"/>
      <point x="408" y="494" type="qcurve"/>
      <point x="408" y="335" type="line"/>
      <point x="360" y="341"/>
      <point x="279" y="348"/>
    </contour>
    <contour>
      <point x="226.0" y="530.0" type="move" name="top"/>
    </contour>
    <contour>
      <point x="222.0" y="-10.0" type="move" name="bottom"/>
    </contour>
    <contour>
      <point x="-180.0" y="530.0" type="move" name="top"/>
    </contour>
    <contour>
      <point x="-192.0" y="0.0" type="move" name="bottom"/>
    </contour>
  </outline>
</glyph>
<glyph name="t" format="1">
  <advance width="393.0"/>
  <unicode hex="0074"/>
  <outline>
    <contour>
      <point x="54" y="312" type="line"/>
      <point x="12" y="312" type="line"/>
      <point x="12" y="494" type="line"/>
      <point x="64" y="494" type="line"/>
      <point x="88" y="604" type="line"/>
      <point x="274" y="604" type="line"/>
      <point x="274" y="494" type="line"/>
      <point x="376" y="494" type="line"/>
      <point x="376" y="312" type="line"/>
      <point x="274" y="312" type="line"/>
      <point x="274" y="222" type="line" smooth="yes"/>
      <point x="274" y="206"/>
      <point x="293" y="192"/>
      <point x="315" y="192" type="qcurve" smooth="yes"/>
      <point x="329" y="192"/>
      <point x="372" y="196"/>
      <point x="384" y="199" type="qcurve"/>
      <point x="384" y="7" type="line"/>
      <point x="371" y="1"/>
      <point x="277" y="-12"/>
      <point x="241" y="-12" type="qcurve"/>
      <point x="141" y="-12"/>
      <point x="54" y="75"/>
      <point x="54" y="172" type="qcurve"/>
    </contour>
    <contour>
      <point x="304.0" y="730" type="move" name="caronalt"/>
    </contour>
    <contour>
      <point x="226.0" y="-10" type="move" name="bottom"/>
    </contour>
  </outline>
</glyph>
<glyph name="u" format="1">
  <advance width="522.0"/>
  <unicode hex="0075"/>
  <outline>
    <contour>
      <point x="172" y="-10" type="qcurve"/>
      <point x="96" y="-10"/>
      <point x="19" y="71"/>
      <point x="19" y="152" type="qcurve"/>
      <point x="19" y="494" type="line"/>
      <point x="239" y="494" type="line"/>
      <point x="239" y="212" type="line" smooth="yes"/>
      <point x="239" y="201"/>
      <point x="249" y="192"/>
      <point x="259" y="192" type="qcurve"/>
      <point x="263" y="192"/>
      <point x="275" y="195"/>
      <point x="281" y="197" type="qcurve"/>
      <point x="281" y="494" type="line"/>
      <point x="501" y="494" type="line"/>
      <point x="501" y="0" type="line"/>
      <point x="311" y="0" type="line"/>
      <point x="303" y="55" type="line"/>
      <point x="299" y="55" type="line"/>
      <point x="273" y="23"/>
      <point x="208" y="-10"/>
    </contour>
    <contour>
      <point x="261.0" y="530" type="move" name="top"/>
    </contour>
    <contour>
      <point x="488.0" y="0" type="move" name="ogonek"/>
    </contour>
  </outline>
</glyph>
<glyph name="v" format="1">
  <advance width="543.0"/>
  <unicode hex="0076"/>
  <outline>
    <contour>
      <point x="309" y="494" type="line"/>
      <point x="548" y="494" type="line"/>
      <point x="398" y="0" type="line"/>
      <point x="146" y="0" type="line"/>
      <point x="-6" y="494" type="line"/>
      <point x="236" y="494" type="line"/>
      <point x="273" y="199" type="line"/>
    </contour>
  </outline>
</glyph>
<glyph name="w" format="1">
  <advance width="793.0"/>
  <unicode hex="0077"/>
  <outline>
    <contour>
      <point x="558" y="494" type="line"/>
      <point x="799" y="494" type="line"/>
      <point x="672" y="0" type="line"/>
      <point x="414" y="0" type="line"/>
      <point x="393" y="176" type="line"/>
      <point x="372" y="0" type="line"/>
      <point x="123" y="0" type="line"/>
      <point x="-6" y="494" type="line"/>
      <point x="236" y="494" type="line"/>
      <point x="255" y="197" type="line"/>
      <point x="301" y="494" type="line"/>
      <point x="496" y="494" type="line"/>
      <point x="539" y="197" type="line"/>
    </contour>
    <contour>
      <point x="396.0" y="530" type="move" name="top"/>
    </contour>
  </outline>
</glyph>
<glyph name="x" format="1">
  <advance width="511.0"/>
  <unicode hex="0078"/>
  <outline>
    <contour>
      <point x="383" y="257" type="line"/>
      <point x="520" y="0" type="line"/>
      <point x="281" y="0" type="line"/>
      <point x="249" y="105" type="line"/>
      <point x="216" y="0" type="line"/>
      <point x="-10" y="0" type="line"/>
      <point x="129" y="258" type="line"/>
      <point x="-13" y="494" type="line"/>
      <point x="240" y="494" type="line"/>
      <point x="269" y="396" type="line"/>
      <point x="300" y="494" type="line"/>
      <point x="523" y="494" type="line"/>
    </contour>
    <contour>
      <point x="268.0" y="530" type="move" name="top"/>
    </contour>
  </outline>
</glyph>
<glyph name="y" format="1">
  <advance width="539.0"/>
  <unicode hex="0079"/>
  <outline>
    <contour>
      <point x="115" y="12" type="qcurve" smooth="yes"/>
      <point x="137" y="12"/>
      <point x="159" y="19"/>
      <point x="159" y="26" type="qcurve"/>
      <point x="-6" y="494" type="line"/>
      <point x="236" y="494" type="line"/>
      <point x="274" y="225" type="line"/>
      <point x="312" y="494" type="line"/>
      <point x="545" y="494" type="line"/>
      <point x="395" y="14" type="line" smooth="yes"/>
      <point x="364" y="-79"/>
      <point x="256" y="-162"/>
      <point x="162" y="-162" type="qcurve" smooth="yes"/>
      <point x="138" y="-162"/>
      <point x="84" y="-157"/>
      <point x="66" y="-153" type="qcurve"/>
      <point x="66" y="16" type="line"/>
      <point x="73" y="14"/>
      <point x="100" y="12"/>
    </contour>
    <contour>
      <point x="275.0" y="530" type="move" name="top"/>
    </contour>
  </outline>
</glyph>
<glyph name="z" format="1">
  <advance width="426.0"/>
  <unicode hex="007A"/>
  <outline>
    <contour>
      <point x="412" y="190" type="line"/>
      <point x="412" y="0" type="line"/>
      <point x="15" y="0" type="line"/>
      <point x="15" y="190" type="line"/>
      <point x="150" y="312" type="line"/>
      <point x="33" y="312" type="line"/>
      <point x="33" y="494" type="line"/>
      <point x="395" y="494" type="line"/>
      <point x="395" y="312" type="line"/>
      <point x="266" y="190" type="line"/>
    </contour>
    <contour>
      <point x="222.0" y="530" type="move" name="top"/>
    </contour>
  </outline>
</glyph>
<glyph name="braceleft" format="1">
  <advance width="286.0"/>
  <unicode hex="007B"/>
  <outline>
    <contour>
      <point x="127" y="317" type="qcurve"/>
      <point x="127" y="313" type="line"/>
      <point x="167" y="306"/>
      <point x="218" y="221"/>
      <point x="218" y="157" type="qcurve"/>
      <point x="218" y="58" type="line" smooth="yes"/>
      <point x="218" y="33"/>
      <point x="238" y="19"/>
      <point x="277" y="19" type="qcurve"/>
      <point x="277" y="-92" type="line"/>
      <point x="183" y="-92"/>
      <point x="98" y="-25"/>
      <point x="98" y="48" type="qcurve"/>
      <point x="98" y="157" type="line" smooth="yes"/>
      <point x="98" y="207"/>
      <point x="47" y="267"/>
      <point x="14" y="267" type="qcurve"/>
      <point x="-4" y="267" type="line"/>
      <point x="-4" y="363" type="line"/>
      <point x="14" y="363" type="line" smooth="yes"/>
      <point x="47" y="363"/>
      <point x="98" y="423"/>
      <point x="98" y="473" type="qcurve"/>
      <point x="98" y="578" type="line" smooth="yes"/>
      <point x="98" y="651"/>
      <point x="183" y="718"/>
      <point x="277" y="718" type="qcurve"/>
      <point x="277" y="607" type="line"/>
      <point x="238" y="607"/>
      <point x="218" y="593"/>
      <point x="218" y="568" type="qcurve"/>
      <point x="218" y="473" type="line" smooth="yes"/>
      <point x="218" y="409"/>
      <point x="167" y="325"/>
    </contour>
  </outline>
</glyph>
<glyph name="braceright" format="1">
  <advance width="286.0"/>
  <unicode hex="007D"/>
  <outline>
    <contour>
      <point x="159" y="313" type="qcurve"/>
      <point x="159" y="317" type="line"/>
      <point x="119" y="325"/>
      <point x="68" y="409"/>
      <point x="68" y="473" type="qcurve"/>
      <point x="68" y="568" type="line" smooth="yes"/>
      <point x="68" y="593"/>
      <point x="48" y="607"/>
      <point x="9" y="607" type="qcurve"/>
      <point x="9" y="718" type="line"/>
      <point x="103" y="718"/>
      <point x="188" y="651"/>
      <point x="188" y="578" type="qcurve"/>
      <point x="188" y="473" type="line" smooth="yes"/>
      <point x="188" y="423"/>
      <point x="239" y="363"/>
      <point x="272" y="363" type="qcurve"/>
      <point x="290" y="363" type="line"/>
      <point x="290" y="267" type="line"/>
      <point x="272" y="267" type="line" smooth="yes"/>
      <point x="239" y="267"/>
      <point x="188" y="207"/>
      <point x="188" y="157" type="qcurve"/>
      <point x="188" y="48" type="line" smooth="yes"/>
      <point x="188" y="-25"/>
      <point x="103" y="-92"/>
      <point x="9" y="-92" type="qcurve"/>
      <point x="9" y="19" type="line"/>
      <point x="48" y="19"/>
      <point x="68" y="33"/>
      <point x="68" y="58" type="qcurve"/>
      <point x="68" y="157" type="line" smooth="yes"/>
      <point x="68" y="221"/>
      <point x="119" y="306"/>
    </contour>
  </outline>
</glyph>
<glyph name="asciitilde" format="1">
  <advance width="602.0"/>
  <unicode hex="007E"/>
  <outline>
    <contour>
      <point x="421" y="446" type="qcurve"/>
      <point x="590" y="446" type="line"/>
      <point x="590" y="322"/>
      <point x="509" y="186"/>
      <point x="432" y="186" type="qcurve"/>
      <point x="402" y="186"/>
      <point x="337" y="210"/>
      <point x="281" y="245" type="qcurve" smooth="yes"/>
      <point x="251" y="265"/>
      <point x="226" y="276"/>
      <point x="218" y="276" type="qcurve"/>
      <point x="200" y="276"/>
      <point x="180" y="232"/>
      <point x="180" y="193" type="qcurve"/>
      <point x="12" y="193" type="line"/>
      <point x="12" y="317"/>
      <point x="92" y="454"/>
      <point x="168" y="454" type="qcurve"/>
      <point x="198" y="454"/>
      <point x="264" y="431"/>
      <point x="320" y="397" type="qcurve" smooth="yes"/>
      <point x="350" y="379"/>
      <point x="375" y="368"/>
      <point x="383" y="368" type="qcurve"/>
      <point x="402" y="368"/>
      <point x="421" y="408"/>
    </contour>
  </outline>
</glyph>
<glyph name="exclamdown" format="1">
  <advance width="275.0"/>
  <unicode hex="00A1"/>
  <outline>
    <contour>
      <point x="25" y="494" type="line"/>
      <point x="249" y="494" type="line"/>
      <point x="249" y="305" type="line"/>
      <point x="25" y="305" type="line"/>
    </contour>
    <contour>
      <point x="235" y="261" type="line"/>
      <point x="262" y="-133" type="line"/>
      <point x="13" y="-133" type="line"/>
      <point x="40" y="261" type="line"/>
    </contour>
  </outline>
</glyph>
<glyph name="cent" format="1">
  <advance width="427.0"/>
  <unicode hex="00A2"/>
  <outline>
    <contour>
      <point x="293" y="59" type="qcurve"/>
      <point x="293" y="-18" type="line"/>
      <point x="184" y="-18" type="line"/>
      <point x="184" y="55" type="line"/>
      <point x="91" y="62"/>
      <point x="13" y="178"/>
      <point x="13" y="312" type="qcurve" smooth="yes"/>
      <point x="13" y="434"/>
      <point x="91" y="549"/>
      <point x="184" y="564" type="qcurve"/>
      <point x="184" y="645" type="line"/>
      <point x="293" y="645" type="line"/>
      <point x="293" y="570" type="line"/>
      <point x="310" y="570"/>
      <point x="341" y="568"/>
      <point x="400" y="560" type="qcurve"/>
      <point x="400" y="369" type="line"/>
      <point x="355" y="371"/>
      <point x="294" y="372"/>
      <point x="278" y="372" type="qcurve"/>
      <point x="252" y="372"/>
      <point x="233" y="348"/>
      <point x="233" y="312" type="qcurve" smooth="yes"/>
      <point x="233" y="280"/>
      <point x="254" y="258"/>
      <point x="282" y="258" type="qcurve"/>
      <point x="313" y="258"/>
      <point x="379" y="264"/>
      <point x="413" y="270" type="qcurve"/>
      <point x="413" y="91" type="line"/>
      <point x="398" y="82"/>
      <point x="333" y="64"/>
    </contour>
  </outline>
</glyph>
<glyph name="sterling" format="1">
  <advance width="461.0"/>
  <unicode hex="00A3"/>
  <outline>
    <contour>
      <point x="19" y="262" type="line"/>
      <point x="19" y="374" type="line"/>
      <point x="77" y="374" type="line"/>
      <point x="77" y="450" type="line" smooth="yes"/>
      <point x="77" y="542"/>
      <point x="184" y="637"/>
      <point x="286" y="637" type="qcurve" smooth="yes"/>
      <point x="326" y="637"/>
      <point x="384" y="631"/>
      <point x="429" y="621" type="qcurve"/>
      <point x="429" y="431" type="line"/>
      <point x="408" y="435"/>
      <point x="364" y="440"/>
      <point x="347" y="440" type="qcurve" smooth="yes"/>
      <point x="325" y="440"/>
      <point x="304" y="424"/>
      <point x="304" y="408" type="qcurve"/>
      <point x="304" y="374" type="line"/>
      <point x="395" y="374" type="line"/>
      <point x="395" y="262" type="line"/>
      <point x="304" y="262" type="line" smooth="yes"/>
      <point x="304" y="239"/>
      <point x="268" y="201"/>
      <point x="238" y="195" type="qcurve"/>
      <point x="238" y="192" type="line"/>
      <point x="445" y="192" type="line"/>
      <point x="445" y="0" type="line"/>
      <point x="19" y="0" type="line"/>
      <point x="19" y="193" type="line"/>
      <point x="49" y="199"/>
      <point x="77" y="230"/>
      <point x="77" y="255" type="qcurve"/>
      <point x="77" y="262" type="line"/>
    </contour>
  </outline>
</glyph>
<glyph name="currency" format="1">
  <advance width="586.0"/>
  <unicode hex="00A4"/>
  <outline>
    <contour>
      <point x="92" y="37" type="line"/>
      <point x="12" y="117" type="line"/>
      <point x="71" y="178" type="line"/>
      <point x="52" y="209"/>
      <point x="32" y="279"/>
      <point x="33" y="316" type="qcurve" smooth="yes"/>
      <point x="32" y="354"/>
      <point x="53" y="426"/>
      <point x="74" y="458" type="qcurve"/>
      <point x="14" y="517" type="line"/>
      <point x="94" y="596" type="line"/>
      <point x="153" y="537" type="line"/>
      <point x="185" y="557"/>
      <point x="255" y="576"/>
      <point x="292" y="575" type="qcurve" smooth="yes"/>
      <point x="329" y="576"/>
      <point x="400" y="556"/>
      <point x="431" y="537" type="qcurve"/>
      <point x="491" y="596" type="line"/>
      <point x="571" y="514" type="line"/>
      <point x="514" y="456" type="line"/>
      <point x="535" y="424"/>
      <point x="556" y="353"/>
      <point x="555" y="315" type="qcurve" smooth="yes"/>
      <point x="555" y="278"/>
      <point x="535" y="207"/>
      <point x="515" y="176" type="qcurve"/>
      <point x="574" y="116" type="line"/>
      <point x="494" y="36" type="line"/>
      <point x="434" y="96" type="line"/>
      <point x="402" y="76"/>
      <point x="331" y="55"/>
      <point x="294" y="56" type="qcurve" smooth="yes"/>
      <point x="256" y="55"/>
      <point x="184" y="76"/>
      <point x="152" y="96" type="qcurve"/>
    </contour>
    <contour>
      <point x="296" y="385" type="qcurve" smooth="yes"/>
      <point x="265" y="385"/>
      <point x="235" y="353"/>
      <point x="233" y="320" type="qcurve" smooth="yes"/>
      <point x="234" y="286"/>
      <point x="265" y="254"/>
      <point x="294" y="255" type="qcurve" smooth="yes"/>
      <point x="325" y="254"/>
      <point x="355" y="286"/>
      <point x="355" y="320" type="qcurve" smooth="yes"/>
      <point x="355" y="353"/>
      <point x="326" y="385"/>
    </contour>
  </outline>
</glyph>
<glyph name="yen" format="1">
  <advance width="585.0"/>
  <unicode hex="00A5"/>
  <outline>
    <contour>
      <point x="81" y="100" type="line"/>
      <point x="81" y="192" type="line"/>
      <point x="181" y="192" type="line"/>
      <point x="181" y="212" type="line"/>
      <point x="81" y="212" type="line"/>
      <point x="81" y="304" type="line"/>
      <point x="149" y="304" type="line"/>
      <point x="6" y="627" type="line"/>
      <point x="255" y="627" type="line"/>
      <point x="295" y="412" type="line"/>
      <point x="346" y="627" type="line"/>
      <point x="579" y="627" type="line"/>
      <point x="440" y="304" type="line"/>
      <point x="508" y="304" type="line"/>
      <point x="508" y="212" type="line"/>
      <point x="409" y="212" type="line"/>
      <point x="409" y="192" type="line"/>
      <point x="508" y="192" type="line"/>
      <point x="508" y="100" type="line"/>
      <point x="409" y="100" type="line"/>
      <point x="409" y="0" type="line"/>
      <point x="181" y="0" type="line"/>
      <point x="181" y="100" type="line"/>
    </contour>
  </outline>
</glyph>
<glyph name="section" format="1">
  <advance width="446.0"/>
  <unicode hex="00A7"/>
  <outline>
    <contour>
      <point x="261" y="505" type="qcurve"/>
      <point x="242" y="505"/>
      <point x="226" y="500"/>
      <point x="226" y="492" type="qcurve"/>
      <point x="226" y="487"/>
      <point x="234" y="478"/>
      <point x="262" y="466" type="qcurve"/>
      <point x="352" y="429" type="line" smooth="yes"/>
      <point x="390" y="413"/>
      <point x="434" y="357"/>
      <point x="434" y="323" type="qcurve"/>
      <point x="434" y="289"/>
      <point x="407" y="233"/>
      <point x="379" y="210" type="qcurve"/>
      <point x="391" y="195"/>
      <point x="402" y="159"/>
      <point x="402" y="135" type="qcurve"/>
      <point x="402" y="67"/>
      <point x="309" y="-10"/>
      <point x="226" y="-10" type="qcurve"/>
      <point x="177" y="-10"/>
      <point x="103" y="-3"/>
      <point x="69" y="5" type="qcurve"/>
      <point x="69" y="140" type="line"/>
      <point x="102" y="131"/>
      <point x="159" y="122"/>
      <point x="185" y="122" type="qcurve"/>
      <point x="204" y="122"/>
      <point x="220" y="127"/>
      <point x="220" y="135" type="qcurve"/>
      <point x="220" y="140"/>
      <point x="212" y="149"/>
      <point x="184" y="161" type="qcurve"/>
      <point x="90" y="199" type="line" smooth="yes"/>
      <point x="54" y="214"/>
      <point x="12" y="270"/>
      <point x="12" y="304" type="qcurve"/>
      <point x="12" y="338"/>
      <point x="39" y="394"/>
      <point x="67" y="417" type="qcurve"/>
      <point x="55" y="432"/>
      <point x="43" y="468"/>
      <point x="43" y="492" type="qcurve"/>
      <point x="43" y="559"/>
      <point x="136" y="637"/>
      <point x="217" y="637" type="qcurve"/>
      <point x="270" y="637"/>
      <point x="345" y="630"/>
      <point x="378" y="621" type="qcurve"/>
      <point x="378" y="486" type="line"/>
      <point x="345" y="496"/>
      <point x="288" y="505"/>
    </contour>
    <contour>
      <point x="174" y="334" type="qcurve"/>
      <point x="174" y="323"/>
      <point x="184" y="310"/>
      <point x="198" y="303" type="qcurve"/>
      <point x="268" y="273" type="line"/>
      <point x="270" y="280"/>
      <point x="272" y="288"/>
      <point x="272" y="292" type="qcurve"/>
      <point x="272" y="304"/>
      <point x="262" y="317"/>
      <point x="248" y="323" type="qcurve"/>
      <point x="179" y="354" type="line"/>
      <point x="177" y="349"/>
      <point x="174" y="339"/>
    </contour>
  </outline>
</glyph>
<glyph name="copyright" format="1">
  <advance width="654.0"/>
  <unicode hex="00A9"/>
  <outline>
    <contour>
      <point x="641" y="314" type="qcurve"/>
      <point x="641" y="162"/>
      <point x="475" y="-10"/>
      <point x="328" y="-10" type="qcurve"/>
      <point x="175" y="-10"/>
      <point x="13" y="157"/>
      <point x="13" y="314" type="qcurve"/>
      <point x="13" y="466"/>
      <point x="180" y="637"/>
      <point x="328" y="637" type="qcurve"/>
      <point x="481" y="637"/>
      <point x="641" y="472"/>
    </contour>
    <contour>
      <point x="528" y="312" type="qcurve"/>
      <point x="528" y="424"/>
      <point x="431" y="532"/>
      <point x="330" y="532" type="qcurve"/>
      <point x="226" y="532"/>
      <point x="126" y="424"/>
      <point x="126" y="312" type="qcurve"/>
      <point x="126" y="206"/>
      <point x="227" y="103"/>
      <point x="330" y="103" type="qcurve"/>
      <point x="430" y="103"/>
      <point x="528" y="206"/>
    </contour>
    <contour>
      <point x="356" y="261" type="qcurve"/>
      <point x="377" y="261"/>
      <point x="420" y="268"/>
      <point x="447" y="275" type="qcurve"/>
      <point x="447" y="160" type="line"/>
      <point x="426" y="149"/>
      <point x="362" y="137"/>
      <point x="325" y="137" type="qcurve"/>
      <point x="240" y="137"/>
      <point x="160" y="225"/>
      <point x="160" y="316" type="qcurve" smooth="yes"/>
      <point x="160" y="406"/>
      <point x="246" y="494"/>
      <point x="334" y="494" type="qcurve"/>
      <point x="362" y="494"/>
      <point x="409" y="488"/>
      <point x="438" y="481" type="qcurve"/>
      <point x="438" y="372" type="line"/>
      <point x="436" y="372"/>
      <point x="380" y="377"/>
      <point x="355" y="377" type="qcurve"/>
      <point x="330" y="377"/>
      <point x="309" y="349"/>
      <point x="309" y="318" type="qcurve" smooth="yes"/>
      <point x="309" y="289"/>
      <point x="332" y="261"/>
    </contour>
  </outline>
</glyph>
<glyph name="ordfeminine" format="1">
  <advance width="309.0"/>
  <unicode hex="00AA"/>
  <outline>
    <contour>
      <point x="285" y="354" type="line"/>
      <point x="178" y="354" type="line"/>
      <point x="175" y="374" type="line"/>
      <point x="173" y="374" type="line"/>
      <point x="156" y="360"/>
      <point x="121" y="347"/>
      <point x="101" y="347" type="qcurve"/>
      <point x="59" y="347"/>
      <point x="17" y="393"/>
      <point x="17" y="439" type="qcurve"/>
      <point x="17" y="485"/>
      <point x="69" y="522"/>
      <point x="130" y="522" type="qcurve"/>
      <point x="139" y="522"/>
      <point x="162" y="520"/>
      <point x="171" y="519" type="qcurve"/>
      <point x="171" y="527" type="line" smooth="yes"/>
      <point x="171" y="535"/>
      <point x="155" y="542"/>
      <point x="133" y="542" type="qcurve" smooth="yes"/>
      <point x="117" y="542"/>
      <point x="82" y="539"/>
      <point x="44" y="534" type="qcurve"/>
      <point x="44" y="626" type="line"/>
      <point x="76" y="631"/>
      <point x="135" y="636"/>
      <point x="171" y="636" type="qcurve"/>
      <point x="226" y="636"/>
      <point x="285" y="592"/>
      <point x="285" y="549" type="qcurve"/>
    </contour>
    <contour>
      <point x="144" y="458" type="qcurve"/>
      <point x="132" y="458"/>
      <point x="123" y="453"/>
      <point x="123" y="445" type="qcurve"/>
      <point x="123" y="439"/>
      <point x="131" y="434"/>
      <point x="140" y="434" type="qcurve"/>
      <point x="149" y="434"/>
      <point x="165" y="437"/>
      <point x="171" y="439" type="qcurve"/>
      <point x="171" y="456" type="line"/>
      <point x="164" y="457"/>
      <point x="151" y="458"/>
    </contour>
    <contour>
      <point x="289" y="220" type="line"/>
      <point x="17" y="220" type="line"/>
      <point x="17" y="318" type="line"/>
      <point x="289" y="318" type="line"/>
    </contour>
  </outline>
</glyph>
<glyph name="guillemotleft" format="1">
  <advance width="494.0"/>
  <unicode hex="00AB"/>
  <outline>
    <contour>
      <point x="282" y="64" type="line"/>
      <point x="130" y="64" type="line"/>
      <point x="9" y="282" type="line"/>
      <point x="130" y="494" type="line"/>
      <point x="282" y="494" type="line"/>
      <point x="163" y="285" type="line"/>
    </contour>
    <contour>
      <point x="486" y="64" type="line"/>
      <point x="334" y="64" type="line"/>
      <point x="212" y="282" type="line"/>
      <point x="334" y="494" type="line"/>
      <point x="486" y="494" type="line"/>
      <point x="366" y="285" type="line"/>
    </contour>
  </outline>
</glyph>
<glyph name="registered" format="1">
  <advance width="386.0"/>
  <unicode hex="00AE"/>
  <outline>
    <contour>
      <point x="375" y="454" type="qcurve"/>
      <point x="375" y="365"/>
      <point x="281" y="270"/>
      <point x="193" y="270" type="qcurve"/>
      <point x="102" y="270"/>
      <point x="11" y="362"/>
      <point x="11" y="454" type="qcurve"/>
      <point x="11" y="543"/>
      <point x="106" y="637"/>
      <point x="195" y="637" type="qcurve"/>
      <point x="284" y="637"/>
      <point x="375" y="545"/>
    </contour>
    <contour>
      <point x="175" y="417" type="line"/>
      <point x="175" y="355" type="line"/>
      <point x="116" y="355" type="line"/>
      <point x="116" y="557" type="line"/>
      <point x="192" y="557" type="line" smooth="yes"/>
      <point x="240" y="557"/>
      <point x="279" y="524"/>
      <point x="279" y="487" type="qcurve"/>
      <point x="279" y="463"/>
      <point x="260" y="431"/>
      <point x="240" y="424" type="qcurve"/>
      <point x="277" y="355" type="line"/>
      <point x="294" y="370"/>
      <point x="310" y="420"/>
      <point x="310" y="454" type="qcurve"/>
      <point x="310" y="519"/>
      <point x="253" y="581"/>
      <point x="194" y="581" type="qcurve"/>
      <point x="134" y="581"/>
      <point x="76" y="519"/>
      <point x="76" y="454" type="qcurve"/>
      <point x="76" y="390"/>
      <point x="133" y="330"/>
      <point x="194" y="330" type="qcurve"/>
      <point x="222" y="330"/>
      <point x="263" y="342"/>
      <point x="277" y="355" type="qcurve"/>
      <point x="206" y="355" type="line"/>
      <point x="178" y="417" type="line"/>
    </contour>
    <contour>
      <point x="219" y="487" type="qcurve"/>
      <point x="219" y="497"/>
      <point x="208" y="504"/>
      <point x="192" y="504" type="qcurve"/>
      <point x="175" y="504" type="line"/>
      <point x="175" y="464" type="line"/>
      <point x="192" y="464" type="line" smooth="yes"/>
      <point x="208" y="464"/>
      <point x="219" y="474"/>
    </contour>
  </outline>
</glyph>
<glyph name="macron" format="1">
  <advance width="363.0"/>
  <unicode hex="00AF"/>
  <outline>
    <contour>
      <point x="313" y="676" type="line"/>
      <point x="313" y="535" type="line"/>
      <point x="50" y="535" type="line"/>
      <point x="50" y="676" type="line"/>
    </contour>
    <contour>
      <point x="182" y="530" type="move" name="_top"/>
    </contour>
  </outline>
</glyph>
<glyph name="degree" format="1">
  <advance width="290.0"/>
  <unicode hex="00B0"/>
  <outline>
    <contour>
      <point x="285" y="498" type="qcurve" smooth="yes"/>
      <point x="285" y="436"/>
      <point x="210" y="366"/>
      <point x="145" y="366" type="qcurve" smooth="yes"/>
      <point x="80" y="366"/>
      <point x="5" y="436"/>
      <point x="5" y="498" type="qcurve" smooth="yes"/>
      <point x="5" y="562"/>
      <point x="80" y="634"/>
      <point x="145" y="634" type="qcurve" smooth="yes"/>
      <point x="210" y="634"/>
      <point x="285" y="562"/>
    </contour>
    <contour>
      <point x="118" y="501" type="qcurve" smooth="yes"/>
      <point x="118" y="487"/>
      <point x="132" y="472"/>
      <point x="145" y="472" type="qcurve" smooth="yes"/>
      <point x="158" y="472"/>
      <point x="172" y="487"/>
      <point x="172" y="501" type="qcurve" smooth="yes"/>
      <point x="172" y="515"/>
      <point x="158" y="530"/>
      <point x="145" y="530" type="qcurve" smooth="yes"/>
      <point x="132" y="530"/>
      <point x="118" y="515"/>
    </contour>
  </outline>
</glyph>
<glyph name="plusminus" format="1">
  <advance width="500.0"/>
  <unicode hex="00B1"/>
  <outline>
    <contour>
      <point x="463" y="495" type="line"/>
      <point x="463" y="327" type="line"/>
      <point x="338" y="327" type="line"/>
      <point x="338" y="219" type="line"/>
      <point x="164" y="219" type="line"/>
      <point x="164" y="327" type="line"/>
      <point x="37" y="327" type="line"/>
      <point x="37" y="495" type="line"/>
      <point x="164" y="495" type="line"/>
      <point x="164" y="601" type="line"/>
      <point x="338" y="601" type="line"/>
      <point x="338" y="495" type="line"/>
    </contour>
    <contour>
      <point x="463" y="184" type="line"/>
      <point x="463" y="16" type="line"/>
      <point x="37" y="16" type="line"/>
      <point x="37" y="184" type="line"/>
    </contour>
  </outline>
</glyph>
<glyph name="uni00B2" format="1">
  <advance width="278.0"/>
  <unicode hex="00B2"/>
  <outline>
    <contour>
      <point x="262" y="384" type="line"/>
      <point x="262" y="270" type="line"/>
      <point x="9" y="270" type="line"/>
      <point x="9" y="384" type="line"/>
      <point x="130" y="486" type="line" smooth="yes"/>
      <point x="138" y="493"/>
      <point x="143" y="502"/>
      <point x="143" y="508" type="qcurve" smooth="yes"/>
      <point x="143" y="515"/>
      <point x="135" y="522"/>
      <point x="126" y="522" type="qcurve"/>
      <point x="106" y="522"/>
      <point x="55" y="517"/>
      <point x="26" y="513" type="qcurve"/>
      <point x="26" y="618" type="line"/>
      <point x="49" y="624"/>
      <point x="120" y="632"/>
      <point x="155" y="632" type="qcurve"/>
      <point x="207" y="632"/>
      <point x="266" y="582"/>
      <point x="266" y="538" type="qcurve"/>
      <point x="266" y="507"/>
      <point x="248" y="465"/>
      <point x="227" y="446" type="qcurve"/>
      <point x="156" y="384" type="line"/>
    </contour>
  </outline>
</glyph>
<glyph name="uni00B3" format="1">
  <advance width="271.0"/>
  <unicode hex="00B3"/>
  <outline>
    <contour>
      <point x="251" y="539" type="qcurve" smooth="yes"/>
      <point x="251" y="506"/>
      <point x="224" y="467"/>
      <point x="196" y="459" type="qcurve"/>
      <point x="196" y="457" type="line"/>
      <point x="229" y="454"/>
      <point x="262" y="413"/>
      <point x="262" y="374" type="qcurve"/>
      <point x="262" y="321"/>
      <point x="190" y="263"/>
      <point x="126" y="263" type="qcurve"/>
      <point x="92" y="263"/>
      <point x="27" y="270"/>
      <point x="11" y="276" type="qcurve"/>
      <point x="11" y="378" type="line"/>
      <point x="28" y="375"/>
      <point x="71" y="372"/>
      <point x="113" y="372" type="qcurve"/>
      <point x="130" y="372"/>
      <point x="143" y="379"/>
      <point x="143" y="388" type="qcurve" smooth="yes"/>
      <point x="143" y="396"/>
      <point x="134" y="402"/>
      <point x="123" y="402" type="qcurve"/>
      <point x="45" y="402" type="line"/>
      <point x="45" y="500" type="line"/>
      <point x="108" y="500" type="line" smooth="yes"/>
      <point x="121" y="500"/>
      <point x="132" y="506"/>
      <point x="132" y="514" type="qcurve"/>
      <point x="132" y="522"/>
      <point x="119" y="528"/>
      <point x="105" y="528" type="qcurve"/>
      <point x="88" y="528"/>
      <point x="31" y="522"/>
      <point x="16" y="519" type="qcurve"/>
      <point x="16" y="617" type="line"/>
      <point x="36" y="623"/>
      <point x="111" y="632"/>
      <point x="144" y="632" type="qcurve"/>
      <point x="197" y="632"/>
      <point x="251" y="585"/>
    </contour>
  </outline>
</glyph>
<glyph name="acute" format="1">
  <advance width="431.0"/>
  <unicode hex="00B4"/>
  <outline>
    <contour>
      <point x="158" y="672" type="line"/>
      <point x="381" y="672" type="line"/>
      <point x="216" y="530" type="line"/>
      <point x="50" y="530" type="line"/>
    </contour>
    <contour>
      <point x="171" y="530" type="move" name="_top"/>
    </contour>
  </outline>
</glyph>
<glyph name="paragraph" format="1">
  <advance width="496.0"/>
  <unicode hex="00B6"/>
  <outline>
    <contour>
      <point x="468" y="627" type="qcurve"/>
      <point x="468" y="26" type="line" smooth="yes"/>
      <point x="468" y="-65"/>
      <point x="375" y="-162"/>
      <point x="289" y="-162" type="qcurve"/>
      <point x="264" y="-162"/>
      <point x="218" y="-158"/>
      <point x="203" y="-155" type="qcurve"/>
      <point x="203" y="22" type="line"/>
      <point x="208" y="21"/>
      <point x="222" y="20"/>
      <point x="226" y="20" type="qcurve" smooth="yes"/>
      <point x="237" y="20"/>
      <point x="248" y="30"/>
      <point x="248" y="39" type="qcurve"/>
      <point x="248" y="134" type="line"/>
      <point x="242" y="133"/>
      <point x="226" y="133"/>
      <point x="211" y="133" type="qcurve" smooth="yes"/>
      <point x="100" y="133"/>
      <point x="11" y="244"/>
      <point x="11" y="381" type="qcurve" smooth="yes"/>
      <point x="11" y="527"/>
      <point x="126" y="639"/>
      <point x="273" y="639" type="qcurve" smooth="yes"/>
      <point x="302" y="639"/>
      <point x="363" y="637"/>
    </contour>
    <contour>
      <point x="232" y="446" type="qcurve"/>
      <point x="217" y="446"/>
      <point x="208" y="419"/>
      <point x="208" y="384" type="qcurve"/>
      <point x="208" y="352"/>
      <point x="217" y="328"/>
      <point x="232" y="328" type="qcurve"/>
      <point x="237" y="328"/>
      <point x="244" y="329"/>
      <point x="248" y="330" type="qcurve"/>
      <point x="248" y="445" type="line"/>
      <point x="244" y="446"/>
      <point x="237" y="446"/>
    </contour>
  </outline>
</glyph>
<glyph name="cedilla" format="1">
  <advance width="336.0"/>
  <unicode hex="00B8"/>
  <outline>
    <contour>
      <point x="283" y="-110" type="qcurve"/>
      <point x="283" y="-151"/>
      <point x="218" y="-195"/>
      <point x="159" y="-195" type="qcurve" smooth="yes"/>
      <point x="133" y="-195"/>
      <point x="76" y="-189"/>
      <point x="60" y="-185" type="qcurve"/>
      <point x="60" y="-106" type="line"/>
      <point x="76" y="-110"/>
      <point x="113" y="-115"/>
      <point x="132" y="-115" type="qcurve"/>
      <point x="150" y="-115"/>
      <point x="165" y="-107"/>
      <point x="165" y="-96" type="qcurve" smooth="yes"/>
      <point x="165" y="-86"/>
      <point x="145" y="-77"/>
      <point x="123" y="-77" type="qcurve"/>
      <point x="106" y="-77"/>
      <point x="87" y="-78"/>
      <point x="74" y="-79" type="qcurve"/>
      <point x="98" y="34" type="line"/>
      <point x="217" y="21" type="line"/>
      <point x="205" y="-35" type="line"/>
      <point x="238" y="-36"/>
      <point x="283" y="-76"/>
    </contour>
    <contour>
      <point x="152" y="0" type="move" name="_bottom"/>
    </contour>
  </outline>
</glyph>
<glyph name="uni00B9" format="1">
  <advance width="220.0"/>
  <unicode hex="00B9"/>
  <outline>
    <contour>
      <point x="203" y="270" type="line"/>
      <point x="75" y="270" type="line"/>
      <point x="75" y="518" type="line"/>
      <point x="5" y="511" type="line"/>
      <point x="5" y="612" type="line"/>
      <point x="203" y="632" type="line"/>
    </contour>
  </outline>
</glyph>
<glyph name="ordmasculine" format="1">
  <advance width="329.0"/>
  <unicode hex="00BA"/>
  <outline>
    <contour>
      <point x="314" y="492" type="qcurve" smooth="yes"/>
      <point x="314" y="418"/>
      <point x="242" y="347"/>
      <point x="166" y="347" type="qcurve" smooth="yes"/>
      <point x="90" y="347"/>
      <point x="16" y="419"/>
      <point x="16" y="492" type="qcurve" smooth="yes"/>
      <point x="16" y="565"/>
      <point x="89" y="636"/>
      <point x="166" y="636" type="qcurve" smooth="yes"/>
      <point x="240" y="636"/>
      <point x="314" y="565"/>
    </contour>
    <contour>
      <point x="129" y="493" type="qcurve" smooth="yes"/>
      <point x="129" y="471"/>
      <point x="146" y="452"/>
      <point x="166" y="452" type="qcurve" smooth="yes"/>
      <point x="185" y="452"/>
      <point x="201" y="470"/>
      <point x="201" y="493" type="qcurve" smooth="yes"/>
      <point x="201" y="515"/>
      <point x="185" y="534"/>
      <point x="166" y="534" type="qcurve" smooth="yes"/>
      <point x="145" y="534"/>
      <point x="129" y="516"/>
    </contour>
    <contour>
      <point x="307" y="220" type="line"/>
      <point x="21" y="220" type="line"/>
      <point x="21" y="318" type="line"/>
      <point x="307" y="318" type="line"/>
    </contour>
  </outline>
</glyph>
<glyph name="guillemotright" format="1">
  <advance width="494.0"/>
  <unicode hex="00BB"/>
  <outline>
    <contour>
      <point x="485" y="282" type="line"/>
      <point x="364" y="64" type="line"/>
      <point x="212" y="64" type="line"/>
      <point x="331" y="285" type="line"/>
      <point x="212" y="494" type="line"/>
      <point x="364" y="494" type="line"/>
    </contour>
    <contour>
      <point x="282" y="282" type="line"/>
      <point x="160" y="64" type="line"/>
      <point x="8" y="64" type="line"/>
      <point x="128" y="285" type="line"/>
      <point x="8" y="494" type="line"/>
      <point x="160" y="494" type="line"/>
    </contour>
  </outline>
</glyph>
<glyph name="questiondown" format="1">
  <advance width="377.0"/>
  <unicode hex="00BF"/>
  <outline>
    <contour>
      <point x="99" y="305" type="line"/>
      <point x="99" y="494" type="line"/>
      <point x="324" y="494" type="line"/>
      <point x="324" y="305" type="line"/>
    </contour>
    <contour>
      <point x="178" y="-143" type="qcurve" smooth="yes"/>
      <point x="101" y="-143"/>
      <point x="9" y="-67"/>
      <point x="9" y="-1" type="qcurve" smooth="yes"/>
      <point x="9" y="54"/>
      <point x="53" y="129"/>
      <point x="112" y="169" type="qcurve"/>
      <point x="112" y="260" type="line"/>
      <point x="311" y="260" type="line"/>
      <point x="311" y="132" type="line"/>
      <point x="251" y="106"/>
      <point x="207" y="77"/>
      <point x="207" y="65" type="qcurve"/>
      <point x="207" y="57"/>
      <point x="218" y="48"/>
      <point x="229" y="48" type="qcurve"/>
      <point x="253" y="48"/>
      <point x="331" y="62"/>
      <point x="358" y="71" type="qcurve"/>
      <point x="358" y="-115" type="line"/>
      <point x="318" y="-131"/>
      <point x="238" y="-143"/>
    </contour>
  </outline>
</glyph>
<glyph name="AE" format="1">
  <advance width="767.0"/>
  <unicode hex="00C6"/>
  <outline>
    <contour>
      <point x="219" y="0" type="line"/>
      <point x="-10" y="0" type="line"/>
      <point x="206" y="627" type="line"/>
      <point x="740" y="627" type="line"/>
      <point x="740" y="434" type="line"/>
      <point x="495" y="434" type="line"/>
      <point x="503" y="407" type="line"/>
      <point x="703" y="407" type="line"/>
      <point x="703" y="224" type="line"/>
      <point x="553" y="224" type="line"/>
      <point x="561" y="197" type="line"/>
      <point x="749" y="197" type="line"/>
      <point x="749" y="0" type="line"/>
      <point x="422" y="0" type="line"/>
      <point x="405" y="64" type="line"/>
      <point x="235" y="64" type="line"/>
    </contour>
    <contour>
      <point x="291" y="285" type="qcurve" smooth="yes"/>
      <point x="287" y="269"/>
      <point x="284" y="257"/>
      <point x="283" y="252" type="qcurve"/>
      <point x="279" y="236" type="line"/>
      <point x="360" y="236" type="line"/>
      <point x="356" y="252" type="line" smooth="yes"/>
      <point x="355" y="257"/>
      <point x="351" y="272"/>
      <point x="346" y="291" type="qcurve" smooth="yes"/>
      <point x="336" y="329"/>
      <point x="324" y="374"/>
      <point x="319" y="395" type="qcurve"/>
      <point x="314" y="373"/>
      <point x="302" y="325"/>
    </contour>
    <contour>
      <point x="415.0" y="645.0" type="move" name="top"/>
    </contour>
  </outline>
</glyph>
<glyph name="Ccedilla" format="1">
  <advance width="505.0"/>
  <unicode hex="00C7"/>
  <outline>
    <contour>
      <point x="406" y="-110" type="qcurve"/>
      <point x="406" y="-151"/>
      <point x="341" y="-195"/>
      <point x="282" y="-195" type="qcurve" smooth="yes"/>
      <point x="256" y="-195"/>
      <point x="199" y="-189"/>
      <point x="183" y="-185" type="qcurve"/>
      <point x="183" y="-106" type="line"/>
      <point x="199" y="-110"/>
      <point x="236" y="-115"/>
      <point x="255" y="-115" type="qcurve"/>
      <point x="273" y="-115"/>
      <point x="288" y="-107"/>
      <point x="288" y="-96" type="qcurve" smooth="yes"/>
      <point x="288" y="-86"/>
      <point x="268" y="-77"/>
      <point x="246" y="-77" type="qcurve"/>
      <point x="229" y="-77"/>
      <point x="210" y="-78"/>
      <point x="197" y="-79" type="qcurve"/>
      <point x="212" y="-7" type="line"/>
      <point x="103" y="7"/>
      <point x="14" y="156"/>
      <point x="14" y="313" type="qcurve" smooth="yes"/>
      <point x="14" y="481"/>
      <point x="166" y="637"/>
      <point x="333" y="637" type="qcurve"/>
      <point x="379" y="637"/>
      <point x="451" y="633"/>
      <point x="480" y="628" type="qcurve"/>
      <point x="480" y="428" type="line"/>
      <point x="417" y="431"/>
      <point x="363" y="432"/>
      <point x="338" y="432" type="qcurve"/>
      <point x="285" y="432"/>
      <point x="249" y="382"/>
      <point x="249" y="313" type="qcurve" smooth="yes"/>
      <point x="249" y="252"/>
      <point x="284" y="200"/>
      <point x="328" y="200" type="qcurve"/>
      <point x="366" y="200"/>
      <point x="459" y="215"/>
      <point x="494" y="226" type="qcurve"/>
      <point x="494" y="27" type="line"/>
      <point x="451" y="9"/>
      <point x="375" y="-8"/>
      <point x="333" y="-11" type="qcurve"/>
      <point x="328" y="-35" type="line"/>
      <point x="361" y="-36"/>
      <point x="406" y="-76"/>
    </contour>
  </outline>
</glyph>
<glyph name="multiply" format="1">
  <advance width="500.0"/>
  <unicode hex="00D7"/>
  <outline>
    <contour>
      <point x="26" y="424" type="line"/>
      <point x="148" y="547" type="line"/>
      <point x="252" y="443" type="line"/>
      <point x="356" y="547" type="line"/>
      <point x="475" y="428" type="line"/>
      <point x="371" y="324" type="line"/>
      <point x="477" y="218" type="line"/>
      <point x="354" y="96" type="line"/>
      <point x="249" y="202" type="line"/>
      <point x="144" y="97" type="line"/>
      <point x="25" y="216" type="line"/>
      <point x="130" y="321" type="line"/>
    </contour>
  </outline>
</glyph>
<glyph name="Oslash" format="1">
  <advance width="647.0"/>
  <unicode hex="00D8"/>
  <outline>
    <contour>
      <point x="149" y="-83" type="line"/>
      <point x="31" y="-5" type="line"/>
      <point x="79" y="68" type="line"/>
      <point x="45" y="106"/>
      <point x="13" y="225"/>
      <point x="13" y="313" type="qcurve"/>
      <point x="13" y="484"/>
      <point x="160" y="637"/>
      <point x="323" y="637" type="qcurve"/>
      <point x="357" y="637"/>
      <point x="416" y="631"/>
      <point x="443" y="625" type="qcurve"/>
      <point x="500" y="712" type="line"/>
      <point x="620" y="635" type="line"/>
      <point x="568" y="557" type="line"/>
      <point x="602" y="519"/>
      <point x="634" y="400"/>
      <point x="634" y="313" type="qcurve"/>
      <point x="634" y="142"/>
      <point x="486" y="-12"/>
      <point x="323" y="-12" type="qcurve"/>
      <point x="289" y="-12"/>
      <point x="230" y="-6"/>
      <point x="203" y="0" type="qcurve"/>
    </contour>
    <contour>
      <point x="243" y="313" type="qcurve"/>
      <point x="243" y="247"/>
      <point x="276" y="200"/>
      <point x="323" y="200" type="qcurve"/>
      <point x="370" y="200"/>
      <point x="404" y="247"/>
      <point x="404" y="313" type="qcurve"/>
      <point x="404" y="382"/>
      <point x="370" y="432"/>
      <point x="323" y="432" type="qcurve"/>
      <point x="277" y="432"/>
      <point x="243" y="382"/>
    </contour>
    <contour>
      <point x="323.0" y="655" type="move" name="top"/>
    </contour>
  </outline>
</glyph>
<glyph name="Thorn" format="1">
  <advance width="569.0"/>
  <unicode hex="00DE"/>
  <outline>
    <contour>
      <point x="253" y="79" type="line"/>
      <point x="253" y="0" type="line"/>
      <point x="26" y="0" type="line"/>
      <point x="26" y="627" type="line"/>
      <point x="253" y="627" type="line"/>
      <point x="253" y="554" type="line"/>
      <point x="271" y="554" type="line" smooth="yes"/>
      <point x="429" y="554"/>
      <point x="558" y="447"/>
      <point x="558" y="319" type="qcurve"/>
      <point x="558" y="195"/>
      <point x="421" y="79"/>
      <point x="274" y="79" type="qcurve"/>
    </contour>
    <contour>
      <point x="327" y="312" type="qcurve"/>
      <point x="327" y="331"/>
      <point x="310" y="349"/>
      <point x="291" y="349" type="qcurve"/>
      <point x="253" y="349" type="line"/>
      <point x="253" y="274" type="line"/>
      <point x="291" y="274" type="line" smooth="yes"/>
      <point x="311" y="274"/>
      <point x="327" y="292"/>
    </contour>
  </outline>
</glyph>
<glyph name="germandbls" format="1">
  <advance width="604.0"/>
  <unicode hex="00DF"/>
  <outline>
    <contour>
      <point x="260" y="677" type="qcurve"/>
      <point x="379" y="677"/>
      <point x="498" y="604"/>
      <point x="498" y="530" type="qcurve" smooth="yes"/>
      <point x="498" y="522"/>
      <point x="495" y="489"/>
      <point x="494" y="479" type="qcurve"/>
      <point x="477" y="343" type="line"/>
      <point x="508" y="337" type="line" smooth="yes"/>
      <point x="556" y="328"/>
      <point x="594" y="255"/>
      <point x="594" y="177" type="qcurve"/>
      <point x="594" y="83"/>
      <point x="512" y="-10"/>
      <point x="428" y="-10" type="qcurve" smooth="yes"/>
      <point x="402" y="-10"/>
      <point x="344" y="-5"/>
      <point x="293" y="2" type="qcurve"/>
      <point x="293" y="186" type="line"/>
      <point x="317" y="183"/>
      <point x="361" y="180"/>
      <point x="376" y="180" type="qcurve" smooth="yes"/>
      <point x="383" y="180"/>
      <point x="389" y="185"/>
      <point x="389" y="191" type="qcurve"/>
      <point x="389" y="197"/>
      <point x="384" y="201"/>
      <point x="376" y="203" type="qcurve"/>
      <point x="259" y="228" type="line"/>
      <point x="284" y="458" type="line" smooth="yes"/>
      <point x="285" y="465"/>
      <point x="286" y="476"/>
      <point x="286" y="477" type="qcurve" smooth="yes"/>
      <point x="286" y="486"/>
      <point x="275" y="495"/>
      <point x="263" y="495" type="qcurve"/>
      <point x="253" y="495"/>
      <point x="241" y="485"/>
      <point x="241" y="476" type="qcurve"/>
      <point x="241" y="0" type="line"/>
      <point x="21" y="0" type="line"/>
      <point x="21" y="482" type="line"/>
      <point x="21" y="575"/>
      <point x="146" y="677"/>
    </contour>
  </outline>
</glyph>
<glyph name="ae" format="1">
  <advance width="708.0"/>
  <unicode hex="00E6"/>
  <outline>
    <contour>
      <point x="147" y="-12" type="qcurve"/>
      <point x="74" y="-12"/>
      <point x="9" y="61"/>
      <point x="9" y="144" type="qcurve"/>
      <point x="9" y="218"/>
      <point x="90" y="287"/>
      <point x="178" y="287" type="qcurve"/>
      <point x="199" y="287"/>
      <point x="239" y="284"/>
      <point x="256" y="282" type="qcurve"/>
      <point x="256" y="292" type="line" smooth="yes"/>
      <point x="256" y="306"/>
      <point x="222" y="316"/>
      <point x="179" y="316" type="qcurve"/>
      <point x="141" y="316"/>
      <point x="83" y="312"/>
      <point x="52" y="307" type="qcurve"/>
      <point x="52" y="486" type="line"/>
      <point x="94" y="495"/>
      <point x="184" y="504"/>
      <point x="226" y="504" type="qcurve"/>
      <point x="268" y="504"/>
      <point x="334" y="490"/>
      <point x="358" y="476" type="qcurve"/>
      <point x="384" y="490"/>
      <point x="449" y="504"/>
      <point x="490" y="504" type="qcurve"/>
      <point x="597" y="504"/>
      <point x="696" y="412"/>
      <point x="696" y="308" type="qcurve"/>
      <point x="696" y="272"/>
      <point x="694" y="225"/>
      <point x="691" y="199" type="qcurve"/>
      <point x="442" y="199" type="line"/>
      <point x="443" y="181"/>
      <point x="466" y="168"/>
      <point x="493" y="168" type="qcurve"/>
      <point x="541" y="168"/>
      <point x="643" y="176"/>
      <point x="675" y="181" type="qcurve"/>
      <point x="675" y="21" type="line"/>
      <point x="636" y="6"/>
      <point x="533" y="-12"/>
      <point x="478" y="-12" type="qcurve"/>
      <point x="419" y="-12"/>
      <point x="338" y="16"/>
      <point x="311" y="46" type="qcurve"/>
      <point x="280" y="18"/>
      <point x="195" y="-12"/>
    </contour>
    <contour>
      <point x="504" y="319" type="qcurve" smooth="yes"/>
      <point x="502" y="334"/>
      <point x="488" y="344"/>
      <point x="473" y="344" type="qcurve"/>
      <point x="457" y="344"/>
      <point x="442" y="324"/>
      <point x="442" y="296" type="qcurve"/>
      <point x="505" y="296" type="line"/>
      <point x="505" y="303"/>
      <point x="505" y="313"/>
    </contour>
    <contour>
      <point x="222" y="180" type="qcurve"/>
      <point x="211" y="180"/>
      <point x="200" y="169"/>
      <point x="200" y="157" type="qcurve" smooth="yes"/>
      <point x="200" y="144"/>
      <point x="210" y="133"/>
      <point x="222" y="133" type="qcurve"/>
      <point x="234" y="133"/>
      <point x="257" y="137"/>
      <point x="266" y="141" type="qcurve"/>
      <point x="264" y="149"/>
      <point x="261" y="167"/>
      <point x="260" y="177" type="qcurve"/>
      <point x="252" y="178"/>
      <point x="233" y="180"/>
    </contour>
    <contour>
      <point x="375.0" y="530.0" type="move" name="top"/>
    </contour>
  </outline>
</glyph>
<glyph name="ccedilla" format="1">
  <advance width="425.0"/>
  <unicode hex="00E7"/>
  <outline>
    <contour>
      <point x="378" y="-110" type="qcurve"/>
      <point x="378" y="-151"/>
      <point x="313" y="-195"/>
      <point x="254" y="-195" type="qcurve" smooth="yes"/>
      <point x="228" y="-195"/>
      <point x="171" y="-189"/>
      <point x="155" y="-185" type="qcurve"/>
      <point x="155" y="-106" type="line"/>
      <point x="171" y="-110"/>
      <point x="208" y="-115"/>
      <point x="227" y="-115" type="qcurve"/>
      <point x="245" y="-115"/>
      <point x="260" y="-107"/>
      <point x="260" y="-96" type="qcurve" smooth="yes"/>
      <point x="260" y="-86"/>
      <point x="240" y="-77"/>
      <point x="218" y="-77" type="qcurve"/>
      <point x="201" y="-77"/>
      <point x="182" y="-78"/>
      <point x="169" y="-79" type="qcurve"/>
      <point x="183" y="-11" type="line"/>
      <point x="90" y="-4"/>
      <point x="12" y="112"/>
      <point x="12" y="246" type="qcurve" smooth="yes"/>
      <point x="12" y="392"/>
      <point x="127" y="504"/>
      <point x="274" y="504" type="qcurve" smooth="yes"/>
      <point x="293" y="504"/>
      <point x="329" y="502"/>
      <point x="399" y="494" type="qcurve"/>
      <point x="399" y="303" type="line"/>
      <point x="354" y="305"/>
      <point x="293" y="306"/>
      <point x="277" y="306" type="qcurve"/>
      <point x="251" y="306"/>
      <point x="232" y="282"/>
      <point x="232" y="246" type="qcurve" smooth="yes"/>
      <point x="232" y="214"/>
      <point x="253" y="192"/>
      <point x="281" y="192" type="qcurve"/>
      <point x="312" y="192"/>
      <point x="378" y="198"/>
      <point x="412" y="204" type="qcurve"/>
      <point x="412" y="25" type="line"/>
      <point x="398" y="16"/>
      <point x="341" y="0"/>
      <point x="306" y="-5" type="qcurve"/>
      <point x="300" y="-35" type="line"/>
      <point x="333" y="-36"/>
      <point x="378" y="-76"/>
    </contour>
  </outline>
</glyph>
<glyph name="eth" format="1">
  <advance width="542.0"/>
  <unicode hex="00F0"/>
  <outline>
    <contour>
      <point x="529" y="243" type="qcurve"/>
      <point x="529" y="107"/>
      <point x="407" y="-12"/>
      <point x="269" y="-12" type="qcurve"/>
      <point x="131" y="-12"/>
      <point x="10" y="98"/>
      <point x="10" y="223" type="qcurve"/>
      <point x="10" y="348"/>
      <point x="131" y="458"/>
      <point x="269" y="458" type="qcurve"/>
      <point x="273" y="458"/>
      <point x="281" y="458"/>
      <point x="285" y="458" type="qcurve"/>
      <point x="282" y="468"/>
      <point x="276" y="487"/>
      <point x="273" y="495" type="qcurve"/>
      <point x="131" y="464" type="line"/>
      <point x="131" y="582" type="line"/>
      <point x="213" y="600" type="line"/>
      <point x="200" y="618"/>
      <point x="173" y="650"/>
      <point x="159" y="665" type="qcurve"/>
      <point x="389" y="665" type="line"/>
      <point x="393" y="662"/>
      <point x="406" y="647"/>
      <point x="409" y="643" type="qcurve"/>
      <point x="533" y="670" type="line"/>
      <point x="533" y="553" type="line"/>
      <point x="473" y="540" type="line"/>
      <point x="501" y="479"/>
      <point x="529" y="332"/>
    </contour>
    <contour>
      <point x="230" y="226" type="qcurve"/>
      <point x="230" y="208"/>
      <point x="249" y="192"/>
      <point x="269" y="192" type="qcurve"/>
      <point x="290" y="192"/>
      <point x="309" y="208"/>
      <point x="309" y="226" type="qcurve"/>
      <point x="309" y="244"/>
      <point x="290" y="260"/>
      <point x="269" y="260" type="qcurve"/>
      <point x="249" y="260"/>
      <point x="230" y="244"/>
    </contour>
  </outline>
</glyph>
<glyph name="thorn" format="1">
  <advance width="547.0"/>
  <unicode hex="00FE"/>
  <outline>
    <contour>
      <point x="241" y="-152" type="line"/>
      <point x="21" y="-152" type="line"/>
      <point x="21" y="665" type="line"/>
      <point x="241" y="665" type="line"/>
      <point x="241" y="457" type="line"/>
      <point x="264" y="481"/>
      <point x="325" y="505"/>
      <point x="364" y="505" type="qcurve"/>
      <point x="456" y="505"/>
      <point x="535" y="388"/>
      <point x="535" y="247" type="qcurve"/>
      <point x="535" y="114"/>
      <point x="435" y="-11"/>
      <point x="329" y="-11" type="qcurve"/>
      <point x="304" y="-11"/>
      <point x="259" y="-5"/>
      <point x="241" y="0" type="qcurve"/>
    </contour>
    <contour>
      <point x="315" y="248" type="qcurve"/>
      <point x="315" y="281"/>
      <point x="300" y="306"/>
      <point x="279" y="306" type="qcurve"/>
      <point x="270" y="306"/>
      <point x="251" y="302"/>
      <point x="241" y="297" type="qcurve"/>
      <point x="241" y="196" type="line"/>
      <point x="249" y="194"/>
      <point x="267" y="192"/>
      <point x="279" y="192" type="qcurve"/>
      <point x="300" y="192"/>
      <point x="315" y="218"/>
    </contour>
  </outline>
</glyph>
<glyph name="Aogonek" format="1">
  <advance width="642.0"/>
  <unicode hex="0104"/>
  <outline>
    <contour>
      <point x="219" y="0" type="line"/>
      <point x="-10" y="0" type="line"/>
      <point x="206" y="627" type="line"/>
      <point x="442" y="627" type="line"/>
      <point x="649" y="0" type="line"/>
      <point x="644" y="0" type="line"/>
      <point x="582" y="-9"/>
      <point x="527" y="-36"/>
      <point x="527" y="-55" type="qcurve"/>
      <point x="527" y="-69"/>
      <point x="549" y="-81"/>
      <point x="572" y="-81" type="qcurve" smooth="yes"/>
      <point x="584" y="-81"/>
      <point x="596" y="-81"/>
      <point x="601" y="-80" type="qcurve"/>
      <point x="601" y="-193" type="line"/>
      <point x="580" y="-199"/>
      <point x="538" y="-204"/>
      <point x="516" y="-204" type="qcurve" smooth="yes"/>
      <point x="453" y="-204"/>
      <point x="390" y="-153"/>
      <point x="390" y="-103" type="qcurve"/>
      <point x="390" y="-70"/>
      <point x="428" y="-18"/>
      <point x="465" y="0" type="qcurve"/>
      <point x="422" y="0" type="line"/>
      <point x="405" y="64" type="line"/>
      <point x="235" y="64" type="line"/>
    </contour>
    <contour>
      <point x="291" y="285" type="qcurve" smooth="yes"/>
      <point x="287" y="269"/>
      <point x="284" y="257"/>
      <point x="283" y="252" type="qcurve"/>
      <point x="279" y="236" type="line"/>
      <point x="360" y="236" type="line"/>
      <point x="356" y="252" type="line" smooth="yes"/>
      <point x="355" y="257"/>
      <point x="351" y="272"/>
      <point x="346" y="291" type="qcurve" smooth="yes"/>
      <point x="336" y="329"/>
      <point x="324" y="374"/>
      <point x="319" y="395" type="qcurve"/>
      <point x="314" y="373"/>
      <point x="302" y="325"/>
    </contour>
  </outline>
</glyph>
<glyph name="aogonek" format="1">
  <advance width="495.0"/>
  <unicode hex="0105"/>
  <outline>
    <contour>
      <point x="134" y="-12" type="qcurve"/>
      <point x="69" y="-12"/>
      <point x="9" y="63"/>
      <point x="9" y="144" type="qcurve"/>
      <point x="9" y="218"/>
      <point x="90" y="287"/>
      <point x="178" y="287" type="qcurve"/>
      <point x="199" y="287"/>
      <point x="239" y="284"/>
      <point x="256" y="282" type="qcurve"/>
      <point x="256" y="292" type="line" smooth="yes"/>
      <point x="256" y="306"/>
      <point x="222" y="316"/>
      <point x="179" y="316" type="qcurve"/>
      <point x="141" y="316"/>
      <point x="83" y="312"/>
      <point x="52" y="307" type="qcurve"/>
      <point x="52" y="486" type="line"/>
      <point x="92" y="495"/>
      <point x="209" y="504"/>
      <point x="276" y="504" type="qcurve" smooth="yes"/>
      <point x="372" y="504"/>
      <point x="476" y="419"/>
      <point x="476" y="340" type="qcurve"/>
      <point x="476" y="0" type="line"/>
      <point x="414" y="-9"/>
      <point x="359" y="-36"/>
      <point x="359" y="-55" type="qcurve"/>
      <point x="359" y="-69"/>
      <point x="381" y="-81"/>
      <point x="404" y="-81" type="qcurve" smooth="yes"/>
      <point x="416" y="-81"/>
      <point x="428" y="-81"/>
      <point x="433" y="-80" type="qcurve"/>
      <point x="433" y="-193" type="line"/>
      <point x="412" y="-199"/>
      <point x="370" y="-204"/>
      <point x="348" y="-204" type="qcurve" smooth="yes"/>
      <point x="285" y="-204"/>
      <point x="222" y="-153"/>
      <point x="222" y="-103" type="qcurve"/>
      <point x="222" y="-70"/>
      <point x="260" y="-18"/>
      <point x="297" y="0" type="qcurve"/>
      <point x="268" y="0" type="line"/>
      <point x="263" y="35" type="line"/>
      <point x="260" y="35" type="line"/>
      <point x="231" y="9"/>
      <point x="171" y="-12"/>
    </contour>
    <contour>
      <point x="219" y="180" type="qcurve"/>
      <point x="209" y="180"/>
      <point x="200" y="169"/>
      <point x="200" y="157" type="qcurve" smooth="yes"/>
      <point x="200" y="144"/>
      <point x="209" y="133"/>
      <point x="219" y="133" type="qcurve"/>
      <point x="231" y="133"/>
      <point x="248" y="135"/>
      <point x="256" y="137" type="qcurve"/>
      <point x="256" y="178" type="line"/>
      <point x="244" y="179"/>
      <point x="227" y="180"/>
    </contour>
  </outline>
</glyph>
<glyph name="Dcroat" format="1">
  <advance width="658.0"/>
  <unicode hex="0110"/>
  <outline>
    <contour>
      <point x="9" y="246" type="line"/>
      <point x="9" y="394" type="line"/>
      <point x="79" y="394" type="line"/>
      <point x="79" y="627" type="line"/>
      <point x="336" y="627" type="line" smooth="yes"/>
      <point x="511" y="627"/>
      <point x="644" y="484"/>
      <point x="644" y="314" type="qcurve"/>
      <point x="644" y="151"/>
      <point x="498" y="0"/>
      <point x="336" y="0" type="qcurve"/>
      <point x="79" y="0" type="line"/>
      <point x="79" y="246" type="line"/>
    </contour>
    <contour>
      <point x="381" y="394" type="line"/>
      <point x="381" y="246" type="line"/>
      <point x="306" y="246" type="line"/>
      <point x="306" y="200" type="line"/>
      <point x="336" y="200" type="line" smooth="yes"/>
      <point x="381" y="200"/>
      <point x="409" y="245"/>
      <point x="409" y="314" type="qcurve"/>
      <point x="409" y="386"/>
      <point x="382" y="432"/>
      <point x="336" y="432" type="qcurve"/>
      <point x="306" y="432" type="line"/>
      <point x="306" y="394" type="line"/>
    </contour>
  </outline>
</glyph>
<glyph name="dcroat" format="1">
  <advance width="547.0"/>
  <unicode hex="0111"/>
  <outline>
    <contour>
      <point x="596" y="624" type="line"/>
      <point x="596" y="516" type="line"/>
      <point x="526" y="516" type="line"/>
      <point x="526" y="0" type="line"/>
      <point x="331" y="0" type="line"/>
      <point x="320" y="46" type="line"/>
      <point x="317" y="46" type="line"/>
      <point x="294" y="17"/>
      <point x="232" y="-12"/>
      <point x="193" y="-12" type="qcurve"/>
      <point x="96" y="-12"/>
      <point x="12" y="105"/>
      <point x="12" y="246" type="qcurve"/>
      <point x="12" y="377"/>
      <point x="111" y="499"/>
      <point x="218" y="499" type="qcurve"/>
      <point x="243" y="499"/>
      <point x="288" y="493"/>
      <point x="306" y="488" type="qcurve"/>
      <point x="306" y="516" type="line"/>
      <point x="194" y="516" type="line"/>
      <point x="194" y="624" type="line"/>
      <point x="306" y="624" type="line"/>
      <point x="306" y="665" type="line"/>
      <point x="526" y="665" type="line"/>
      <point x="526" y="624" type="line"/>
    </contour>
    <contour>
      <point x="268" y="306" type="qcurve"/>
      <point x="247" y="306"/>
      <point x="232" y="279"/>
      <point x="232" y="247" type="qcurve"/>
      <point x="232" y="216"/>
      <point x="247" y="192"/>
      <point x="268" y="192" type="qcurve"/>
      <point x="277" y="192"/>
      <point x="296" y="196"/>
      <point x="306" y="201" type="qcurve"/>
      <point x="306" y="302" type="line"/>
      <point x="298" y="304"/>
      <point x="280" y="306"/>
    </contour>
  </outline>
</glyph>
<glyph name="Eogonek" format="1">
  <advance width="492.0"/>
  <unicode hex="0118"/>
  <outline>
    <contour>
      <point x="474" y="0" type="line"/>
      <point x="456" y="0" type="line"/>
      <point x="394" y="-9"/>
      <point x="339" y="-36"/>
      <point x="339" y="-55" type="qcurve"/>
      <point x="339" y="-69"/>
      <point x="361" y="-81"/>
      <point x="384" y="-81" type="qcurve" smooth="yes"/>
      <point x="396" y="-81"/>
      <point x="408" y="-81"/>
      <point x="413" y="-80" type="qcurve"/>
      <point x="413" y="-193" type="line"/>
      <point x="392" y="-199"/>
      <point x="350" y="-204"/>
      <point x="328" y="-204" type="qcurve" smooth="yes"/>
      <point x="265" y="-204"/>
      <point x="202" y="-153"/>
      <point x="202" y="-103" type="qcurve"/>
      <point x="202" y="-70"/>
      <point x="240" y="-18"/>
      <point x="277" y="0" type="qcurve"/>
      <point x="26" y="0" type="line"/>
      <point x="26" y="627" type="line"/>
      <point x="465" y="627" type="line"/>
      <point x="465" y="434" type="line"/>
      <point x="253" y="434" type="line"/>
      <point x="253" y="407" type="line"/>
      <point x="428" y="407" type="line"/>
      <point x="428" y="224" type="line"/>
      <point x="253" y="224" type="line"/>
      <point x="253" y="197" type="line"/>
      <point x="474" y="197" type="line"/>
    </contour>
  </outline>
</glyph>
<glyph name="eogonek" format="1">
  <advance width="492.0"/>
  <unicode hex="0119"/>
  <outline>
    <contour>
      <point x="459" y="181" type="qcurve"/>
      <point x="459" y="21" type="line"/>
      <point x="452" y="18"/>
      <point x="433" y="12"/>
      <point x="422" y="9" type="qcurve"/>
      <point x="377" y="-24"/>
      <point x="348" y="-56"/>
      <point x="348" y="-71" type="qcurve"/>
      <point x="348" y="-81"/>
      <point x="362" y="-90"/>
      <point x="376" y="-90" type="qcurve" smooth="yes"/>
      <point x="384" y="-90"/>
      <point x="402" y="-88"/>
      <point x="411" y="-87" type="qcurve"/>
      <point x="411" y="-202" type="line"/>
      <point x="390" y="-208"/>
      <point x="353" y="-213"/>
      <point x="333" y="-213" type="qcurve" smooth="yes"/>
      <point x="273" y="-213"/>
      <point x="211" y="-162"/>
      <point x="211" y="-112" type="qcurve"/>
      <point x="211" y="-83"/>
      <point x="235" y="-34"/>
      <point x="259" y="-12" type="qcurve"/>
      <point x="242" y="-12" type="line"/>
      <point x="120" y="-12"/>
      <point x="11" y="109"/>
      <point x="11" y="244" type="qcurve" smooth="yes"/>
      <point x="11" y="377"/>
      <point x="130" y="504"/>
      <point x="254" y="504" type="qcurve"/>
      <point x="372" y="504"/>
      <point x="480" y="412"/>
      <point x="480" y="308" type="qcurve"/>
      <point x="480" y="272"/>
      <point x="478" y="225"/>
      <point x="475" y="199" type="qcurve"/>
      <point x="226" y="199" type="line"/>
      <point x="227" y="181"/>
      <point x="250" y="168"/>
      <point x="277" y="168" type="qcurve"/>
      <point x="325" y="168"/>
      <point x="427" y="176"/>
    </contour>
    <contour>
      <point x="288" y="319" type="qcurve" smooth="yes"/>
      <point x="286" y="334"/>
      <point x="272" y="344"/>
      <point x="257" y="344" type="qcurve"/>
      <point x="241" y="344"/>
      <point x="226" y="324"/>
      <point x="226" y="296" type="qcurve"/>
      <point x="289" y="296" type="line"/>
      <point x="289" y="303"/>
      <point x="289" y="313"/>
    </contour>
  </outline>
</glyph>
<glyph name="Hbar" format="1">
  <advance width="684.0"/>
  <unicode hex="0126"/>
  <outline>
    <contour>
      <point x="288" y="0" type="line"/>
      <point x="61" y="0" type="line"/>
      <point x="61" y="455" type="line"/>
      <point x="11" y="455" type="line"/>
      <point x="11" y="566" type="line"/>
      <point x="61" y="566" type="line"/>
      <point x="61" y="627" type="line"/>
      <point x="288" y="627" type="line"/>
      <point x="288" y="566" type="line"/>
      <point x="396" y="566" type="line"/>
      <point x="396" y="627" type="line"/>
      <point x="623" y="627" type="line"/>
      <point x="623" y="566" type="line"/>
      <point x="673" y="566" type="line"/>
      <point x="673" y="455" type="line"/>
      <point x="623" y="455" type="line"/>
      <point x="623" y="0" type="line"/>
      <point x="396" y="0" type="line"/>
      <point x="396" y="216" type="line"/>
      <point x="288" y="216" type="line"/>
    </contour>
    <contour>
      <point x="288" y="455" type="line"/>
      <point x="288" y="420" type="line"/>
      <point x="396" y="420" type="line"/>
      <point x="396" y="455" type="line"/>
    </contour>
  </outline>
</glyph>
<glyph name="hbar" format="1">
  <advance width="525.0"/>
  <unicode hex="0127"/>
  <outline>
    <contour>
      <point x="241" y="0" type="line"/>
      <point x="21" y="0" type="line"/>
      <point x="21" y="516" type="line"/>
      <point x="-63" y="516" type="line"/>
      <point x="-63" y="624" type="line"/>
      <point x="21" y="624" type="line"/>
      <point x="21" y="665" type="line"/>
      <point x="241" y="665" type="line"/>
      <point x="241" y="624" type="line"/>
      <point x="339" y="624" type="line"/>
      <point x="339" y="516" type="line"/>
      <point x="241" y="516" type="line"/>
      <point x="241" y="460" type="line"/>
      <point x="265" y="482"/>
      <point x="325" y="504"/>
      <point x="363" y="504" type="qcurve"/>
      <point x="433" y="504"/>
      <point x="506" y="422"/>
      <point x="506" y="342" type="qcurve"/>
      <point x="506" y="0" type="line"/>
      <point x="286" y="0" type="line"/>
      <point x="286" y="282" type="line" smooth="yes"/>
      <point x="286" y="295"/>
      <point x="276" y="306"/>
      <point x="265" y="306" type="qcurve"/>
      <point x="258" y="306"/>
      <point x="246" y="304"/>
      <point x="241" y="302" type="qcurve"/>
    </contour>
  </outline>
</glyph>
<glyph name="Iogonek" format="1">
  <advance width="279.0"/>
  <unicode hex="012E"/>
  <outline>
    <contour>
      <point x="253" y="0" type="line"/>
      <point x="252" y="0" type="line"/>
      <point x="190" y="-9"/>
      <point x="135" y="-36"/>
      <point x="135" y="-55" type="qcurve"/>
      <point x="135" y="-69"/>
      <point x="157" y="-81"/>
      <point x="180" y="-81" type="qcurve" smooth="yes"/>
      <point x="192" y="-81"/>
      <point x="204" y="-81"/>
      <point x="209" y="-80" type="qcurve"/>
      <point x="209" y="-193" type="line"/>
      <point x="188" y="-199"/>
      <point x="146" y="-204"/>
      <point x="124" y="-204" type="qcurve" smooth="yes"/>
      <point x="61" y="-204"/>
      <point x="-2" y="-153"/>
      <point x="-2" y="-103" type="qcurve"/>
      <point x="-2" y="-70"/>
      <point x="36" y="-18"/>
      <point x="73" y="0" type="qcurve"/>
      <point x="26" y="0" type="line"/>
      <point x="26" y="627" type="line"/>
      <point x="253" y="627" type="line"/>
    </contour>
  </outline>
</glyph>
<glyph name="iogonek" format="1">
  <advance width="262.0"/>
  <unicode hex="012F"/>
  <outline>
    <contour>
      <point x="241" y="517" type="line"/>
      <point x="21" y="517" type="line"/>
      <point x="21" y="665" type="line"/>
      <point x="241" y="665" type="line"/>
    </contour>
    <contour>
      <point x="62" y="0" type="qcurve"/>
      <point x="21" y="0" type="line"/>
      <point x="21" y="494" type="line"/>
      <point x="241" y="494" type="line"/>
      <point x="241" y="0" type="line"/>
      <point x="179" y="-9"/>
      <point x="124" y="-36"/>
      <point x="124" y="-55" type="qcurve"/>
      <point x="124" y="-69"/>
      <point x="146" y="-81"/>
      <point x="169" y="-81" type="qcurve" smooth="yes"/>
      <point x="181" y="-81"/>
      <point x="193" y="-81"/>
      <point x="198" y="-80" type="qcurve"/>
      <point x="198" y="-193" type="line"/>
      <point x="177" y="-199"/>
      <point x="135" y="-204"/>
      <point x="113" y="-204" type="qcurve" smooth="yes"/>
      <point x="50" y="-204"/>
      <point x="-13" y="-153"/>
      <point x="-13" y="-103" type="qcurve"/>
      <point x="-13" y="-70"/>
      <point x="25" y="-18"/>
    </contour>
  </outline>
</glyph>
<glyph name="Ldot" format="1">
  <advance width="458.0"/>
  <unicode hex="013F"/>
  <outline>
    <contour>
      <point x="442" y="212" type="line"/>
      <point x="442" y="0" type="line"/>
      <point x="26" y="0" type="line"/>
      <point x="26" y="627" type="line"/>
      <point x="253" y="627" type="line"/>
      <point x="253" y="212" type="line"/>
    </contour>
    <contour>
      <point x="427" y="262" type="line"/>
      <point x="280" y="262" type="line"/>
      <point x="280" y="457" type="line"/>
      <point x="427" y="457" type="line"/>
    </contour>
  </outline>
</glyph>
<glyph name="ldot" format="1">
  <advance width="405.0"/>
  <unicode hex="0140"/>
  <outline>
    <contour>
      <point x="241" y="665" type="line"/>
      <point x="241" y="0" type="line"/>
      <point x="21" y="0" type="line"/>
      <point x="21" y="665" type="line"/>
    </contour>
    <contour>
      <point x="407" y="247" type="line"/>
      <point x="260" y="247" type="line"/>
      <point x="260" y="442" type="line"/>
      <point x="407" y="442" type="line"/>
    </contour>
  </outline>
</glyph>
<glyph name="Lslash" format="1">
  <advance width="509.0"/>
  <unicode hex="0141"/>
  <outline>
    <contour>
      <point x="497" y="212" type="line"/>
      <point x="497" y="0" type="line"/>
      <point x="81" y="0" type="line"/>
      <point x="81" y="224" type="line"/>
      <point x="11" y="204" type="line"/>
      <point x="11" y="355" type="line"/>
      <point x="81" y="375" type="line"/>
      <point x="81" y="627" type="line"/>
      <point x="308" y="627" type="line"/>
      <point x="308" y="439" type="line"/>
      <point x="405" y="467" type="line"/>
      <point x="405" y="316" type="line"/>
      <point x="308" y="288" type="line"/>
      <point x="308" y="212" type="line"/>
    </contour>
  </outline>
</glyph>
<glyph name="lslash" format="1">
  <advance width="372.0"/>
  <unicode hex="0142"/>
  <outline>
    <contour>
      <point x="295" y="287" type="line"/>
      <point x="295" y="0" type="line"/>
      <point x="75" y="0" type="line"/>
      <point x="75" y="220" type="line"/>
      <point x="11" y="200" type="line"/>
      <point x="11" y="347" type="line"/>
      <point x="75" y="367" type="line"/>
      <point x="75" y="665" type="line"/>
      <point x="295" y="665" type="line"/>
      <point x="295" y="434" type="line"/>
      <point x="364" y="455" type="line"/>
      <point x="364" y="308" type="line"/>
    </contour>
  </outline>
</glyph>
<glyph name="Eng" format="1">
  <advance width="629.0"/>
  <unicode hex="014A"/>
  <outline>
    <contour>
      <point x="603" y="627" type="line"/>
      <point x="603" y="-4" type="line" smooth="yes"/>
      <point x="603" y="-83"/>
      <point x="506" y="-169"/>
      <point x="420" y="-169" type="qcurve"/>
      <point x="399" y="-169"/>
      <point x="364" y="-167"/>
      <point x="342" y="-163" type="qcurve"/>
      <point x="342" y="12" type="line"/>
      <point x="347" y="11"/>
      <point x="354" y="11"/>
      <point x="360" y="11" type="qcurve" smooth="yes"/>
      <point x="372" y="11"/>
      <point x="383" y="18"/>
      <point x="383" y="27" type="qcurve"/>
      <point x="238" y="242" type="line"/>
      <point x="238" y="0" type="line"/>
      <point x="26" y="0" type="line"/>
      <point x="26" y="627" type="line"/>
      <point x="235" y="627" type="line"/>
      <point x="392" y="364" type="line"/>
      <point x="392" y="627" type="line"/>
    </contour>
  </outline>
</glyph>
<glyph name="eng" format="1">
  <advance width="525.0"/>
  <unicode hex="014B"/>
  <outline>
    <contour>
      <point x="241" y="0" type="line"/>
      <point x="21" y="0" type="line"/>
      <point x="21" y="494" type="line"/>
      <point x="211" y="494" type="line"/>
      <point x="219" y="441" type="line"/>
      <point x="222" y="441" type="line"/>
      <point x="249" y="473"/>
      <point x="317" y="504"/>
      <point x="363" y="504" type="qcurve"/>
      <point x="433" y="504"/>
      <point x="506" y="422"/>
      <point x="506" y="342" type="qcurve"/>
      <point x="506" y="3" type="line"/>
      <point x="506" y="-76"/>
      <point x="409" y="-162"/>
      <point x="323" y="-162" type="qcurve"/>
      <point x="305" y="-162"/>
      <point x="275" y="-160"/>
      <point x="254" y="-156" type="qcurve"/>
      <point x="254" y="19" type="line"/>
      <point x="259" y="18"/>
      <point x="266" y="18"/>
      <point x="272" y="18" type="qcurve" smooth="yes"/>
      <point x="279" y="18"/>
      <point x="286" y="26"/>
      <point x="286" y="34" type="qcurve"/>
      <point x="286" y="282" type="line"/>
      <point x="286" y="295"/>
      <point x="275" y="306"/>
      <point x="264" y="306" type="qcurve" smooth="yes"/>
      <point x="257" y="306"/>
      <point x="246" y="304"/>
      <point x="241" y="302" type="qcurve"/>
    </contour>
  </outline>
</glyph>
<glyph name="OE" format="1">
  <advance width="825.0"/>
  <unicode hex="0152"/>
  <outline>
    <contour>
      <point x="312" y="-12" type="qcurve"/>
      <point x="151" y="-12"/>
      <point x="14" y="136"/>
      <point x="14" y="313" type="qcurve"/>
      <point x="14" y="484"/>
      <point x="155" y="637"/>
      <point x="312" y="637" type="qcurve"/>
      <point x="344" y="637"/>
      <point x="397" y="632"/>
      <point x="419" y="627" type="qcurve"/>
      <point x="798" y="627" type="line"/>
      <point x="798" y="434" type="line"/>
      <point x="588" y="434" type="line"/>
      <point x="589" y="427"/>
      <point x="590" y="414"/>
      <point x="591" y="407" type="qcurve"/>
      <point x="761" y="407" type="line"/>
      <point x="761" y="224" type="line"/>
      <point x="591" y="224" type="line"/>
      <point x="590" y="217"/>
      <point x="589" y="204"/>
      <point x="588" y="197" type="qcurve"/>
      <point x="807" y="197" type="line"/>
      <point x="807" y="0" type="line"/>
      <point x="422" y="0" type="line"/>
      <point x="399" y="-6"/>
      <point x="344" y="-12"/>
    </contour>
    <contour>
      <point x="244" y="313" type="qcurve"/>
      <point x="244" y="247"/>
      <point x="272" y="200"/>
      <point x="312" y="200" type="qcurve"/>
      <point x="352" y="200"/>
      <point x="381" y="247"/>
      <point x="381" y="313" type="qcurve"/>
      <point x="381" y="383"/>
      <point x="352" y="432"/>
      <point x="312" y="432" type="qcurve"/>
      <point x="272" y="432"/>
      <point x="244" y="382"/>
    </contour>
  </outline>
</glyph>
<glyph name="oe" format="1">
  <advance width="775.0"/>
  <unicode hex="0153"/>
  <outline>
    <contour>
      <point x="408" y="32" type="qcurve"/>
      <point x="381" y="10"/>
      <point x="303" y="-12"/>
      <point x="250" y="-12" type="qcurve"/>
      <point x="129" y="-12"/>
      <point x="11" y="116"/>
      <point x="11" y="246" type="qcurve"/>
      <point x="11" y="380"/>
      <point x="125" y="504"/>
      <point x="250" y="504" type="qcurve"/>
      <point x="304" y="504"/>
      <point x="384" y="479"/>
      <point x="411" y="454" type="qcurve"/>
      <point x="437" y="479"/>
      <point x="510" y="504"/>
      <point x="557" y="504" type="qcurve"/>
      <point x="664" y="504"/>
      <point x="763" y="412"/>
      <point x="763" y="308" type="qcurve"/>
      <point x="763" y="272"/>
      <point x="761" y="225"/>
      <point x="758" y="199" type="qcurve"/>
      <point x="509" y="199" type="line"/>
      <point x="510" y="181"/>
      <point x="533" y="168"/>
      <point x="560" y="168" type="qcurve"/>
      <point x="608" y="168"/>
      <point x="710" y="176"/>
      <point x="742" y="181" type="qcurve"/>
      <point x="742" y="21" type="line"/>
      <point x="703" y="6"/>
      <point x="599" y="-12"/>
      <point x="544" y="-12" type="qcurve"/>
      <point x="499" y="-12"/>
      <point x="432" y="10"/>
    </contour>
    <contour>
      <point x="571" y="319" type="qcurve" smooth="yes"/>
      <point x="569" y="334"/>
      <point x="555" y="344"/>
      <point x="540" y="344" type="qcurve"/>
      <point x="524" y="344"/>
      <point x="509" y="324"/>
      <point x="509" y="296" type="qcurve"/>
      <point x="572" y="296" type="line"/>
      <point x="572" y="303"/>
      <point x="572" y="313"/>
    </contour>
    <contour>
      <point x="231" y="249" type="qcurve"/>
      <point x="231" y="216"/>
      <point x="247" y="192"/>
      <point x="270" y="192" type="qcurve"/>
      <point x="293" y="192"/>
      <point x="310" y="216"/>
      <point x="310" y="249" type="qcurve"/>
      <point x="310" y="282"/>
      <point x="293" y="306"/>
      <point x="270" y="306" type="qcurve"/>
      <point x="247" y="306"/>
      <point x="231" y="282"/>
    </contour>
  </outline>
</glyph>
<glyph name="Scedilla" format="1">
  <advance width="509.0"/>
  <unicode hex="015E"/>
  <outline>
    <contour>
      <point x="269" y="219" type="qcurve"/>
      <point x="165" y="239" type="line" smooth="yes"/>
      <point x="88" y="254"/>
      <point x="18" y="342"/>
      <point x="18" y="421" type="qcurve"/>
      <point x="18" y="533"/>
      <point x="136" y="637"/>
      <point x="266" y="637" type="qcurve" smooth="yes"/>
      <point x="324" y="637"/>
      <point x="420" y="628"/>
      <point x="450" y="619" type="qcurve"/>
      <point x="450" y="420" type="line"/>
      <point x="394" y="429"/>
      <point x="311" y="436"/>
      <point x="267" y="436" type="qcurve" smooth="yes"/>
      <point x="247" y="436"/>
      <point x="231" y="432"/>
      <point x="231" y="426" type="qcurve" smooth="yes"/>
      <point x="231" y="422"/>
      <point x="240" y="418"/>
      <point x="250" y="416" type="qcurve"/>
      <point x="345" y="396" type="line" smooth="yes"/>
      <point x="437" y="376"/>
      <point x="498" y="297"/>
      <point x="498" y="211" type="qcurve"/>
      <point x="498" y="108"/>
      <point x="401" y="2"/>
      <point x="301" y="-9" type="qcurve"/>
      <point x="295" y="-35" type="line"/>
      <point x="328" y="-36"/>
      <point x="373" y="-76"/>
      <point x="373" y="-110" type="qcurve"/>
      <point x="373" y="-151"/>
      <point x="308" y="-195"/>
      <point x="249" y="-195" type="qcurve" smooth="yes"/>
      <point x="223" y="-195"/>
      <point x="166" y="-189"/>
      <point x="150" y="-185" type="qcurve"/>
      <point x="150" y="-106" type="line"/>
      <point x="166" y="-110"/>
      <point x="203" y="-115"/>
      <point x="222" y="-115" type="qcurve"/>
      <point x="240" y="-115"/>
      <point x="255" y="-107"/>
      <point x="255" y="-96" type="qcurve" smooth="yes"/>
      <point x="255" y="-86"/>
      <point x="235" y="-77"/>
      <point x="213" y="-77" type="qcurve"/>
      <point x="196" y="-77"/>
      <point x="177" y="-78"/>
      <point x="164" y="-79" type="qcurve"/>
      <point x="179" y="-10" type="line"/>
      <point x="127" y="-8"/>
      <point x="42" y="4"/>
      <point x="22" y="11" type="qcurve"/>
      <point x="22" y="223" type="line"/>
      <point x="58" y="211"/>
      <point x="183" y="196"/>
      <point x="246" y="196" type="qcurve" smooth="yes"/>
      <point x="271" y="196"/>
      <point x="289" y="201"/>
      <point x="289" y="208" type="qcurve" smooth="yes"/>
      <point x="289" y="213"/>
      <point x="281" y="217"/>
    </contour>
  </outline>
</glyph>
<glyph name="scedilla" format="1">
  <advance width="445.0"/>
  <unicode hex="015F"/>
  <outline>
    <contour>
      <point x="353" y="-120" type="qcurve"/>
      <point x="353" y="-161"/>
      <point x="288" y="-205"/>
      <point x="229" y="-205" type="qcurve" smooth="yes"/>
      <point x="203" y="-205"/>
      <point x="146" y="-199"/>
      <point x="130" y="-195" type="qcurve"/>
      <point x="130" y="-116" type="line"/>
      <point x="146" y="-120"/>
      <point x="183" y="-125"/>
      <point x="202" y="-125" type="qcurve"/>
      <point x="220" y="-125"/>
      <point x="235" y="-117"/>
      <point x="235" y="-106" type="qcurve" smooth="yes"/>
      <point x="235" y="-96"/>
      <point x="215" y="-87"/>
      <point x="193" y="-87" type="qcurve"/>
      <point x="176" y="-87"/>
      <point x="157" y="-88"/>
      <point x="144" y="-89" type="qcurve"/>
      <point x="161" y="-10" type="line"/>
      <point x="120" y="-8"/>
      <point x="49" y="4"/>
      <point x="27" y="12" type="qcurve"/>
      <point x="27" y="174" type="line"/>
      <point x="107" y="158"/>
      <point x="179" y="150"/>
      <point x="210" y="150" type="qcurve"/>
      <point x="237" y="150"/>
      <point x="249" y="155"/>
      <point x="249" y="162" type="qcurve"/>
      <point x="249" y="168"/>
      <point x="243" y="172"/>
      <point x="235" y="173" type="qcurve"/>
      <point x="128" y="186" type="line" smooth="yes"/>
      <point x="64" y="193"/>
      <point x="11" y="260"/>
      <point x="11" y="331" type="qcurve"/>
      <point x="11" y="418"/>
      <point x="123" y="504"/>
      <point x="237" y="504" type="qcurve" smooth="yes"/>
      <point x="288" y="504"/>
      <point x="376" y="499"/>
      <point x="408" y="494" type="qcurve"/>
      <point x="408" y="335" type="line"/>
      <point x="360" y="341"/>
      <point x="279" y="348"/>
      <point x="247" y="348" type="qcurve" smooth="yes"/>
      <point x="220" y="348"/>
      <point x="204" y="344"/>
      <point x="204" y="338" type="qcurve"/>
      <point x="204" y="332"/>
      <point x="210" y="328"/>
      <point x="217" y="327" type="qcurve"/>
      <point x="307" y="317" type="line" smooth="yes"/>
      <point x="384" y="308"/>
      <point x="435" y="243"/>
      <point x="435" y="167" type="qcurve"/>
      <point x="435" y="89"/>
      <point x="361" y="3"/>
      <point x="283" y="-8" type="qcurve"/>
      <point x="275" y="-45" type="line"/>
      <point x="308" y="-46"/>
      <point x="353" y="-86"/>
    </contour>
  </outline>
</glyph>
<glyph name="Tbar" format="1">
  <advance width="525.0"/>
  <unicode hex="0166"/>
  <outline>
    <contour>
      <point x="475" y="350" type="line"/>
      <point x="475" y="202" type="line"/>
      <point x="376" y="202" type="line"/>
      <point x="376" y="0" type="line"/>
      <point x="149" y="0" type="line"/>
      <point x="149" y="202" type="line"/>
      <point x="50" y="202" type="line"/>
      <point x="50" y="350" type="line"/>
      <point x="149" y="350" type="line"/>
      <point x="149" y="422" type="line"/>
      <point x="16" y="422" type="line"/>
      <point x="16" y="627" type="line"/>
      <point x="509" y="627" type="line"/>
      <point x="509" y="422" type="line"/>
      <point x="376" y="422" type="line"/>
      <point x="376" y="350" type="line"/>
    </contour>
  </outline>
</glyph>
<glyph name="tbar" format="1">
  <advance width="394.0"/>
  <unicode hex="0167"/>
  <outline>
    <contour>
      <point x="55" y="312" type="line"/>
      <point x="13" y="312" type="line"/>
      <point x="13" y="494" type="line"/>
      <point x="65" y="494" type="line"/>
      <point x="89" y="604" type="line"/>
      <point x="275" y="604" type="line"/>
      <point x="275" y="494" type="line"/>
      <point x="377" y="494" type="line"/>
      <point x="377" y="312" type="line"/>
      <point x="275" y="312" type="line"/>
      <point x="275" y="295" type="line"/>
      <point x="377" y="295" type="line"/>
      <point x="377" y="217" type="line"/>
      <point x="275" y="217" type="line"/>
      <point x="276" y="204"/>
      <point x="296" y="192"/>
      <point x="316" y="192" type="qcurve" smooth="yes"/>
      <point x="330" y="192"/>
      <point x="373" y="196"/>
      <point x="385" y="199" type="qcurve"/>
      <point x="385" y="7" type="line"/>
      <point x="372" y="1"/>
      <point x="278" y="-12"/>
      <point x="242" y="-12" type="qcurve"/>
      <point x="142" y="-12"/>
      <point x="55" y="75"/>
      <point x="55" y="172" type="qcurve"/>
      <point x="55" y="217" type="line"/>
      <point x="12" y="217" type="line"/>
      <point x="12" y="295" type="line"/>
      <point x="55" y="295" type="line"/>
    </contour>
  </outline>
</glyph>
<glyph name="Uogonek" format="1">
  <advance width="620.0"/>
  <unicode hex="0172"/>
  <outline>
    <contour>
      <point x="372" y="278" type="qcurve"/>
      <point x="372" y="627" type="line"/>
      <point x="599" y="627" type="line"/>
      <point x="599" y="276" type="line" smooth="yes"/>
      <point x="599" y="183"/>
      <point x="535" y="55"/>
      <point x="472" y="22" type="qcurve"/>
      <point x="432" y="-8"/>
      <point x="404" y="-39"/>
      <point x="404" y="-54" type="qcurve"/>
      <point x="404" y="-64"/>
      <point x="418" y="-73"/>
      <point x="432" y="-73" type="qcurve" smooth="yes"/>
      <point x="440" y="-73"/>
      <point x="458" y="-71"/>
      <point x="467" y="-70" type="qcurve"/>
      <point x="467" y="-185" type="line"/>
      <point x="446" y="-191"/>
      <point x="409" y="-196"/>
      <point x="389" y="-196" type="qcurve" smooth="yes"/>
      <point x="329" y="-196"/>
      <point x="267" y="-145"/>
      <point x="267" y="-95" type="qcurve"/>
      <point x="267" y="-72"/>
      <point x="283" y="-31"/>
      <point x="299" y="-12" type="qcurve"/>
      <point x="153" y="-9"/>
      <point x="21" y="127"/>
      <point x="21" y="276" type="qcurve"/>
      <point x="21" y="627" type="line"/>
      <point x="248" y="627" type="line"/>
      <point x="248" y="278" type="line" smooth="yes"/>
      <point x="248" y="232"/>
      <point x="275" y="200"/>
      <point x="311" y="200" type="qcurve"/>
      <point x="345" y="200"/>
      <point x="372" y="233"/>
    </contour>
  </outline>
</glyph>
<glyph name="uogonek" format="1">
  <advance width="522.0"/>
  <unicode hex="0173"/>
  <outline>
    <contour>
      <point x="172" y="-10" type="qcurve"/>
      <point x="96" y="-10"/>
      <point x="19" y="71"/>
      <point x="19" y="152" type="qcurve"/>
      <point x="19" y="494" type="line"/>
      <point x="239" y="494" type="line"/>
      <point x="239" y="212" type="line" smooth="yes"/>
      <point x="239" y="201"/>
      <point x="249" y="192"/>
      <point x="259" y="192" type="qcurve"/>
      <point x="263" y="192"/>
      <point x="275" y="195"/>
      <point x="281" y="197" type="qcurve"/>
      <point x="281" y="494" type="line"/>
      <point x="501" y="494" type="line"/>
      <point x="501" y="0" type="line"/>
      <point x="488" y="0" type="line"/>
      <point x="426" y="-9"/>
      <point x="371" y="-36"/>
      <point x="371" y="-55" type="qcurve"/>
      <point x="371" y="-69"/>
      <point x="393" y="-81"/>
      <point x="416" y="-81" type="qcurve" smooth="yes"/>
      <point x="428" y="-81"/>
      <point x="440" y="-81"/>
      <point x="445" y="-80" type="qcurve"/>
      <point x="445" y="-193" type="line"/>
      <point x="424" y="-199"/>
      <point x="382" y="-204"/>
      <point x="360" y="-204" type="qcurve" smooth="yes"/>
      <point x="297" y="-204"/>
      <point x="234" y="-153"/>
      <point x="234" y="-103" type="qcurve"/>
      <point x="234" y="-69"/>
      <point x="272" y="-17"/>
      <point x="311" y="1" type="qcurve"/>
      <point x="303" y="55" type="line"/>
      <point x="299" y="55" type="line"/>
      <point x="273" y="23"/>
      <point x="208" y="-10"/>
    </contour>
  </outline>
</glyph>
<glyph name="uni018F" format="1">
  <advance width="577.0"/>
  <unicode hex="018F"/>
  <outline>
    <contour>
      <point x="268" y="637" type="qcurve"/>
      <point x="420" y="637"/>
      <point x="564" y="481"/>
      <point x="564" y="314" type="qcurve" smooth="yes"/>
      <point x="564" y="145"/>
      <point x="422" y="-12"/>
      <point x="267" y="-12" type="qcurve"/>
      <point x="140" y="-12"/>
      <point x="13" y="123"/>
      <point x="13" y="257" type="qcurve"/>
      <point x="13" y="289"/>
      <point x="17" y="341"/>
      <point x="24" y="393" type="qcurve"/>
      <point x="321" y="393" type="line"/>
      <point x="313" y="415"/>
      <point x="277" y="432"/>
      <point x="236" y="432" type="qcurve"/>
      <point x="194" y="432"/>
      <point x="111" y="427"/>
      <point x="72" y="423" type="qcurve"/>
      <point x="72" y="620" type="line"/>
      <point x="111" y="628"/>
      <point x="216" y="637"/>
    </contour>
    <contour>
      <point x="239" y="231" type="qcurve"/>
      <point x="239" y="211"/>
      <point x="260" y="192"/>
      <point x="282" y="192" type="qcurve"/>
      <point x="304" y="192"/>
      <point x="324" y="216"/>
      <point x="327" y="247" type="qcurve"/>
      <point x="240" y="247" type="line"/>
      <point x="239" y="244"/>
      <point x="239" y="237"/>
    </contour>
  </outline>
</glyph>
<glyph name="florin" format="1">
  <advance width="459.0"/>
  <unicode hex="0192"/>
  <outline>
    <contour>
      <point x="84" y="273" type="line"/>
      <point x="16" y="273" type="line"/>
      <point x="16" y="385" type="line"/>
      <point x="102" y="385" type="line"/>
      <point x="115" y="461" type="line" smooth="yes"/>
      <point x="131" y="558"/>
      <point x="231" y="638"/>
      <point x="336" y="638" type="qcurve"/>
      <point x="364" y="638"/>
      <point x="432" y="630"/>
      <point x="448" y="626" type="qcurve"/>
      <point x="448" y="435" type="line"/>
      <point x="422" y="437"/>
      <point x="389" y="439"/>
      <point x="382" y="439" type="qcurve"/>
      <point x="360" y="439"/>
      <point x="338" y="421"/>
      <point x="334" y="401" type="qcurve"/>
      <point x="331" y="385" type="line"/>
      <point x="427" y="385" type="line"/>
      <point x="427" y="273" type="line"/>
      <point x="313" y="273" type="line"/>
      <point x="242" y="-152" type="line"/>
      <point x="13" y="-152" type="line"/>
    </contour>
  </outline>
</glyph>
<glyph name="uni01B5" format="1">
  <advance width="507.0"/>
  <unicode hex="01B5"/>
  <outline>
    <contour>
      <point x="490" y="212" type="line"/>
      <point x="490" y="0" type="line"/>
      <point x="17" y="0" type="line"/>
      <point x="17" y="212" type="line"/>
      <point x="69" y="267" type="line"/>
      <point x="34" y="267" type="line"/>
      <point x="34" y="375" type="line"/>
      <point x="171" y="375" type="line"/>
      <point x="215" y="422" type="line"/>
      <point x="46" y="422" type="line"/>
      <point x="46" y="627" type="line"/>
      <point x="471" y="627" type="line"/>
      <point x="471" y="422" type="line"/>
      <point x="427" y="375" type="line"/>
      <point x="473" y="375" type="line"/>
      <point x="473" y="267" type="line"/>
      <point x="326" y="267" type="line"/>
      <point x="274" y="212" type="line"/>
    </contour>
  </outline>
</glyph>
<glyph name="uni01B6" format="1">
  <advance width="426.0"/>
  <unicode hex="01B6"/>
  <outline>
    <contour>
      <point x="412" y="190" type="line"/>
      <point x="412" y="0" type="line"/>
      <point x="15" y="0" type="line"/>
      <point x="15" y="190" type="line"/>
      <point x="50" y="222" type="line"/>
      <point x="32" y="222" type="line"/>
      <point x="32" y="291" type="line"/>
      <point x="127" y="291" type="line"/>
      <point x="150" y="312" type="line"/>
      <point x="33" y="312" type="line"/>
      <point x="33" y="494" type="line"/>
      <point x="395" y="494" type="line"/>
      <point x="395" y="312" type="line"/>
      <point x="373" y="291" type="line"/>
      <point x="392" y="291" type="line"/>
      <point x="392" y="222" type="line"/>
      <point x="300" y="222" type="line"/>
      <point x="266" y="190" type="line"/>
    </contour>
  </outline>
</glyph>
<glyph name="uni0237" format="1">
  <advance width="266.0"/>
  <unicode hex="0237"/>
  <outline>
    <contour>
      <point x="62" y="-162" type="qcurve"/>
      <point x="41" y="-162"/>
      <point x="6" y="-160"/>
      <point x="-16" y="-156" type="qcurve"/>
      <point x="-16" y="-16" type="line"/>
      <point x="-11" y="-17"/>
      <point x="-4" y="-17"/>
      <point x="2" y="-17" type="qcurve" smooth="yes"/>
      <point x="14" y="-17"/>
      <point x="25" y="-10"/>
      <point x="25" y="-1" type="qcurve"/>
      <point x="25" y="494" type="line"/>
      <point x="245" y="494" type="line"/>
      <point x="245" y="3" type="line" smooth="yes"/>
      <point x="245" y="-76"/>
      <point x="148" y="-162"/>
    </contour>
    <contour>
      <point x="136.0" y="530" type="move" name="top"/>
    </contour>
  </outline>
</glyph>
<glyph name="uni0259" format="1">
  <advance width="492.0"/>
  <unicode hex="0259"/>
  <outline>
    <contour>
      <point x="33" y="313" type="qcurve"/>
      <point x="33" y="471" type="line"/>
      <point x="72" y="487"/>
      <point x="179" y="504"/>
      <point x="240" y="504" type="qcurve"/>
      <point x="366" y="504"/>
      <point x="481" y="383"/>
      <point x="481" y="248" type="qcurve" smooth="yes"/>
      <point x="481" y="115"/>
      <point x="362" y="-12"/>
      <point x="238" y="-12" type="qcurve"/>
      <point x="120" y="-12"/>
      <point x="12" y="80"/>
      <point x="12" y="184" type="qcurve"/>
      <point x="12" y="221"/>
      <point x="14" y="269"/>
      <point x="17" y="295" type="qcurve"/>
      <point x="266" y="295" type="line"/>
      <point x="265" y="313"/>
      <point x="242" y="326"/>
      <point x="215" y="326" type="qcurve"/>
      <point x="167" y="326"/>
      <point x="65" y="318"/>
    </contour>
    <contour>
      <point x="204" y="175" type="qcurve" smooth="yes"/>
      <point x="206" y="160"/>
      <point x="220" y="150"/>
      <point x="235" y="150" type="qcurve"/>
      <point x="251" y="150"/>
      <point x="266" y="170"/>
      <point x="266" y="198" type="qcurve"/>
      <point x="203" y="198" type="line"/>
      <point x="203" y="191"/>
      <point x="203" y="181"/>
    </contour>
  </outline>
</glyph>
<glyph name="circumflex" format="1">
  <advance width="490.0"/>
  <unicode hex="02C6"/>
  <outline>
    <contour>
      <point x="440" y="530" type="line"/>
      <point x="284" y="530" type="line"/>
      <point x="245" y="581" type="line"/>
      <point x="206" y="530" type="line"/>
      <point x="50" y="530" type="line"/>
      <point x="151" y="672" type="line"/>
      <point x="339" y="672" type="line"/>
    </contour>
    <contour>
      <point x="245" y="530" type="move" name="_top"/>
    </contour>
  </outline>
</glyph>
<glyph name="caron" format="1">
  <advance width="490.0"/>
  <unicode hex="02C7"/>
  <outline>
    <contour>
      <point x="50" y="672" type="line"/>
      <point x="206" y="672" type="line"/>
      <point x="245" y="621" type="line"/>
      <point x="284" y="672" type="line"/>
      <point x="440" y="672" type="line"/>
      <point x="339" y="530" type="line"/>
      <point x="151" y="530" type="line"/>
    </contour>
    <contour>
      <point x="246" y="530" type="move" name="_top"/>
    </contour>
  </outline>
</glyph>
<glyph name="breve" format="1">
  <advance width="390.0"/>
  <unicode hex="02D8"/>
  <outline>
    <contour>
      <point x="220" y="672" type="qcurve"/>
      <point x="340" y="672" type="line"/>
      <point x="340" y="603"/>
      <point x="262" y="523"/>
      <point x="196" y="523" type="qcurve" smooth="yes"/>
      <point x="129" y="523"/>
      <point x="50" y="603"/>
      <point x="50" y="672" type="qcurve"/>
      <point x="170" y="672" type="line"/>
      <point x="170" y="652"/>
      <point x="182" y="634"/>
      <point x="196" y="634" type="qcurve" smooth="yes"/>
      <point x="209" y="634"/>
      <point x="220" y="652"/>
    </contour>
    <contour>
      <point x="196" y="530" type="move" name="_top"/>
    </contour>
  </outline>
</glyph>
<glyph name="dotaccent" format="1">
  <advance width="322.0"/>
  <unicode hex="02D9"/>
  <outline>
    <contour>
      <point x="272" y="530" type="line"/>
      <point x="50" y="530" type="line"/>
      <point x="50" y="687" type="line"/>
      <point x="272" y="687" type="line"/>
    </contour>
    <contour>
      <point x="164" y="530" type="move" name="_top"/>
    </contour>
  </outline>
</glyph>
<glyph name="ring" format="1">
  <advance width="347.0"/>
  <unicode hex="02DA"/>
  <outline>
    <contour>
      <point x="298" y="637" type="qcurve" smooth="yes"/>
      <point x="298" y="584"/>
      <point x="230" y="523"/>
      <point x="172" y="523" type="qcurve" smooth="yes"/>
      <point x="114" y="523"/>
      <point x="47" y="584"/>
      <point x="47" y="637" type="qcurve" smooth="yes"/>
      <point x="47" y="690"/>
      <point x="113" y="750"/>
      <point x="172" y="750" type="qcurve" smooth="yes"/>
      <point x="231" y="750"/>
      <point x="298" y="690"/>
    </contour>
    <contour>
      <point x="142" y="637" type="qcurve" smooth="yes"/>
      <point x="142" y="626"/>
      <point x="159" y="612"/>
      <point x="172" y="612" type="qcurve" smooth="yes"/>
      <point x="187" y="612"/>
      <point x="204" y="626"/>
      <point x="204" y="637" type="qcurve" smooth="yes"/>
      <point x="204" y="648"/>
      <point x="187" y="662"/>
      <point x="172" y="662" type="qcurve" smooth="yes"/>
      <point x="159" y="662"/>
      <point x="142" y="648"/>
    </contour>
    <contour>
      <point x="172.0" y="530.0" type="move" name="_top"/>
    </contour>
  </outline>
</glyph>
<glyph name="ogonek" format="1">
  <advance width="345.0"/>
  <unicode hex="02DB"/>
  <outline>
    <contour>
      <point x="214" y="38" type="qcurve"/>
      <point x="295" y="9" type="line"/>
      <point x="233" y="0"/>
      <point x="178" y="-27"/>
      <point x="178" y="-46" type="qcurve"/>
      <point x="178" y="-60"/>
      <point x="200" y="-72"/>
      <point x="223" y="-72" type="qcurve" smooth="yes"/>
      <point x="235" y="-72"/>
      <point x="247" y="-72"/>
      <point x="252" y="-71" type="qcurve"/>
      <point x="252" y="-184" type="line"/>
      <point x="231" y="-190"/>
      <point x="189" y="-195"/>
      <point x="167" y="-195" type="qcurve" smooth="yes"/>
      <point x="104" y="-195"/>
      <point x="41" y="-144"/>
      <point x="41" y="-94" type="qcurve"/>
      <point x="41" y="-43"/>
      <point x="129" y="24"/>
    </contour>
    <contour>
      <point x="295" y="9" type="move" name="_ogonek"/>
    </contour>
  </outline>
</glyph>
<glyph name="tilde" format="1">
  <advance width="413.0"/>
  <unicode hex="02DC"/>
  <outline>
    <contour>
      <point x="259" y="674" type="qcurve"/>
      <point x="363" y="674" type="line"/>
      <point x="363" y="603"/>
      <point x="319" y="526"/>
      <point x="276" y="526" type="qcurve" smooth="yes"/>
      <point x="264" y="526"/>
      <point x="235" y="534"/>
      <point x="208" y="547" type="qcurve" smooth="yes"/>
      <point x="189" y="556"/>
      <point x="173" y="561"/>
      <point x="167" y="561" type="qcurve"/>
      <point x="160" y="561"/>
      <point x="154" y="548"/>
      <point x="154" y="530" type="qcurve"/>
      <point x="50" y="530" type="line"/>
      <point x="50" y="602"/>
      <point x="93" y="678"/>
      <point x="135" y="678" type="qcurve" smooth="yes"/>
      <point x="147" y="678"/>
      <point x="175" y="671"/>
      <point x="201" y="661" type="qcurve" smooth="yes"/>
      <point x="221" y="653"/>
      <point x="239" y="648"/>
      <point x="245" y="648" type="qcurve"/>
      <point x="252" y="648"/>
      <point x="259" y="659"/>
    </contour>
    <contour>
      <point x="207" y="530" type="move" name="_top"/>
    </contour>
  </outline>
</glyph>
<glyph name="uni0312" format="1">
  <advance width="271.0"/>
  <unicode hex="0312"/>
  <outline>
    <contour>
      <point x="50" y="540" type="line"/>
      <point x="70" y="651" type="line" smooth="yes"/>
      <point x="75" y="683"/>
      <point x="123" y="720"/>
      <point x="157" y="720" type="qcurve"/>
      <point x="224" y="720" type="line"/>
      <point x="224" y="540" type="line"/>
    </contour>
    <contour>
      <point x="137" y="530" type="move" name="_top"/>
    </contour>
  </outline>
</glyph>
<glyph name="uni0326" format="1">
  <advance width="271.0"/>
  <unicode hex="0326"/>
  <outline>
    <contour>
      <point x="222" y="-34" type="line"/>
      <point x="202" y="-145" type="line" smooth="yes"/>
      <point x="198" y="-176"/>
      <point x="151" y="-214"/>
      <point x="116" y="-214" type="qcurve"/>
      <point x="49" y="-214" type="line"/>
      <point x="49" y="-34" type="line"/>
    </contour>
    <contour>
      <point x="137" y="0" type="move" name="_bottom"/>
    </contour>
  </outline>
</glyph>
<glyph name="uni0394" format="1">
  <advance width="618.0"/>
  <unicode hex="0394"/>
  <outline>
    <contour>
      <point x="15" y="0" type="line"/>
      <point x="15" y="212" type="line"/>
      <point x="192" y="627" type="line"/>
      <point x="426" y="627" type="line"/>
      <point x="603" y="212" type="line"/>
      <point x="603" y="0" type="line"/>
    </contour>
    <contour>
      <point x="309" y="397" type="line"/>
      <point x="235" y="212" type="line"/>
      <point x="383" y="212" type="line"/>
    </contour>
  </outline>
</glyph>
<glyph name="uni03A9" format="1">
  <advance width="664.0"/>
  <unicode hex="03A9"/>
  <outline>
    <contour>
      <point x="37" y="0" type="line"/>
      <point x="37" y="172" type="line"/>
      <point x="138" y="172" type="line"/>
      <point x="138" y="181" type="line"/>
      <point x="77" y="208"/>
      <point x="11" y="317"/>
      <point x="11" y="390" type="qcurve"/>
      <point x="11" y="512"/>
      <point x="179" y="647"/>
      <point x="332" y="647" type="qcurve" smooth="yes"/>
      <point x="485" y="647"/>
      <point x="653" y="512"/>
      <point x="653" y="392" type="qcurve"/>
      <point x="653" y="320"/>
      <point x="587" y="211"/>
      <point x="526" y="182" type="qcurve"/>
      <point x="526" y="172" type="line"/>
      <point x="628" y="172" type="line"/>
      <point x="628" y="0" type="line"/>
      <point x="353" y="0" type="line"/>
      <point x="353" y="294" type="line"/>
      <point x="386" y="300"/>
      <point x="419" y="337"/>
      <point x="419" y="368" type="qcurve"/>
      <point x="419" y="406"/>
      <point x="377" y="442"/>
      <point x="332" y="442" type="qcurve" smooth="yes"/>
      <point x="287" y="442"/>
      <point x="245" y="406"/>
      <point x="245" y="368" type="qcurve"/>
      <point x="245" y="336"/>
      <point x="279" y="299"/>
      <point x="311" y="294" type="qcurve"/>
      <point x="311" y="0" type="line"/>
    </contour>
  </outline>
</glyph>
<glyph name="uni03BC" format="1">
  <advance width="533.0"/>
  <unicode hex="03BC"/>
  <outline>
    <contour>
      <point x="244" y="-4" type="qcurve"/>
      <point x="234" y="-4"/>
      <point x="220" y="-1"/>
      <point x="217" y="2" type="qcurve"/>
      <point x="217" y="-43"/>
      <point x="236" y="-122"/>
      <point x="254" y="-152" type="qcurve"/>
      <point x="47" y="-152" type="line"/>
      <point x="33" y="-117"/>
      <point x="21" y="-31"/>
      <point x="21" y="60" type="qcurve"/>
      <point x="21" y="494" type="line"/>
      <point x="241" y="494" type="line"/>
      <point x="241" y="206" type="line" smooth="yes"/>
      <point x="241" y="193"/>
      <point x="250" y="184"/>
      <point x="261" y="184" type="qcurve" smooth="yes"/>
      <point x="271" y="184"/>
      <point x="287" y="189"/>
      <point x="292" y="193" type="qcurve"/>
      <point x="292" y="494" type="line"/>
      <point x="512" y="494" type="line"/>
      <point x="512" y="0" type="line"/>
      <point x="322" y="0" type="line"/>
      <point x="317" y="37" type="line"/>
      <point x="305" y="17"/>
      <point x="268" y="-4"/>
    </contour>
  </outline>
</glyph>
<glyph name="pi" format="1">
  <advance width="570.0"/>
  <unicode hex="03C0"/>
  <outline>
    <contour>
      <point x="260" y="143" type="qcurve" smooth="yes"/>
      <point x="257" y="123"/>
      <point x="241" y="52"/>
      <point x="227" y="0" type="qcurve"/>
      <point x="7" y="0" type="line"/>
      <point x="42" y="83"/>
      <point x="73" y="220"/>
      <point x="75" y="289" type="qcurve"/>
      <point x="17" y="289" type="line"/>
      <point x="17" y="494" type="line"/>
      <point x="555" y="494" type="line"/>
      <point x="555" y="289" type="line"/>
      <point x="499" y="289" type="line"/>
      <point x="499" y="230" type="line" smooth="yes"/>
      <point x="499" y="217"/>
      <point x="508" y="208"/>
      <point x="518" y="208" type="qcurve"/>
      <point x="535" y="208" type="line"/>
      <point x="535" y="0" type="line"/>
      <point x="434" y="0" type="line" smooth="yes"/>
      <point x="371" y="0"/>
      <point x="299" y="71"/>
      <point x="299" y="134" type="qcurve"/>
      <point x="299" y="289" type="line"/>
      <point x="273" y="289" type="line"/>
      <point x="272" y="251"/>
      <point x="266" y="178"/>
    </contour>
  </outline>
</glyph>
<glyph name="uni1E9E" format="1">
  <advance width="661.0"/>
  <unicode hex="1E9E"/>
  <outline>
    <contour>
      <point x="300" y="637" type="qcurve"/>
      <point x="370" y="637"/>
      <point x="502" y="620"/>
      <point x="561" y="603" type="qcurve"/>
      <point x="526" y="376" type="line"/>
      <point x="562" y="368" type="line"/>
      <point x="614" y="356"/>
      <point x="653" y="288"/>
      <point x="653" y="211" type="qcurve"/>
      <point x="653" y="100"/>
      <point x="563" y="-10"/>
      <point x="472" y="-10" type="qcurve" smooth="yes"/>
      <point x="433" y="-10"/>
      <point x="352" y="-4"/>
      <point x="308" y="3" type="qcurve"/>
      <point x="308" y="196" type="line"/>
      <point x="331" y="193"/>
      <point x="390" y="190"/>
      <point x="417" y="190" type="qcurve" smooth="yes"/>
      <point x="428" y="190"/>
      <point x="438" y="196"/>
      <point x="438" y="203" type="qcurve" smooth="yes"/>
      <point x="438" y="209"/>
      <point x="432" y="214"/>
      <point x="422" y="216" type="qcurve"/>
      <point x="299" y="242" type="line"/>
      <point x="325" y="436" type="line"/>
      <point x="319" y="438"/>
      <point x="301" y="439"/>
      <point x="288" y="439" type="qcurve"/>
      <point x="270" y="439"/>
      <point x="250" y="424"/>
      <point x="250" y="411" type="qcurve"/>
      <point x="250" y="0" type="line"/>
      <point x="23" y="0" type="line"/>
      <point x="23" y="424" type="line" smooth="yes"/>
      <point x="23" y="533"/>
      <point x="158" y="637"/>
    </contour>
  </outline>
</glyph>
<glyph name="endash" format="1">
  <advance width="445.0"/>
  <unicode hex="2013"/>
  <outline>
    <contour>
      <point x="427" y="401" type="line"/>
      <point x="427" y="237" type="line"/>
      <point x="18" y="237" type="line"/>
      <point x="18" y="401" type="line"/>
    </contour>
  </outline>
</glyph>
<glyph name="emdash" format="1">
  <advance width="725.0"/>
  <unicode hex="2014"/>
  <outline>
    <contour>
      <point x="707" y="401" type="line"/>
      <point x="707" y="237" type="line"/>
      <point x="18" y="237" type="line"/>
      <point x="18" y="401" type="line"/>
    </contour>
  </outline>
</glyph>
<glyph name="quoteleft" format="1">
  <advance width="210.0"/>
  <unicode hex="2018"/>
  <outline>
    <contour>
      <point x="2" y="357" type="line"/>
      <point x="37" y="559" type="line" smooth="yes"/>
      <point x="42" y="590"/>
      <point x="89" y="627"/>
      <point x="123" y="627" type="qcurve"/>
      <point x="192" y="627" type="line"/>
      <point x="192" y="357" type="line"/>
    </contour>
  </outline>
</glyph>
<glyph name="quoteright" format="1">
  <advance width="207.0"/>
  <unicode hex="2019"/>
  <outline>
    <contour>
      <point x="208" y="627" type="line"/>
      <point x="173" y="425" type="line" smooth="yes"/>
      <point x="168" y="394"/>
      <point x="121" y="357"/>
      <point x="87" y="357" type="qcurve"/>
      <point x="18" y="357" type="line"/>
      <point x="18" y="627" type="line"/>
    </contour>
  </outline>
</glyph>
<glyph name="quotedblleft" format="1">
  <advance width="420.0"/>
  <unicode hex="201C"/>
  <outline>
    <contour>
      <point x="2" y="357" type="line"/>
      <point x="37" y="559" type="line" smooth="yes"/>
      <point x="42" y="590"/>
      <point x="89" y="627"/>
      <point x="123" y="627" type="qcurve"/>
      <point x="192" y="627" type="line"/>
      <point x="192" y="357" type="line"/>
    </contour>
    <contour>
      <point x="212" y="357" type="line"/>
      <point x="247" y="559" type="line" smooth="yes"/>
      <point x="252" y="590"/>
      <point x="299" y="627"/>
      <point x="333" y="627" type="qcurve"/>
      <point x="402" y="627" type="line"/>
      <point x="402" y="357" type="line"/>
    </contour>
  </outline>
</glyph>
<glyph name="dagger" format="1">
  <advance width="327.0"/>
  <unicode hex="2020"/>
  <outline>
    <contour>
      <point x="219" y="429" type="line"/>
      <point x="229" y="221" type="line"/>
      <point x="99" y="221" type="line"/>
      <point x="111" y="429" type="line"/>
      <point x="11" y="423" type="line"/>
      <point x="11" y="535" type="line"/>
      <point x="109" y="530" type="line"/>
      <point x="103" y="627" type="line"/>
      <point x="225" y="627" type="line"/>
      <point x="220" y="529" type="line"/>
      <point x="316" y="535" type="line"/>
      <point x="316" y="423" type="line"/>
    </contour>
  </outline>
</glyph>
<glyph name="daggerdbl" format="1">
  <advance width="339.0"/>
  <unicode hex="2021"/>
  <outline>
    <contour>
      <point x="322" y="322" type="line"/>
      <point x="322" y="210" type="line"/>
      <point x="225" y="215" type="line"/>
      <point x="231" y="118" type="line"/>
      <point x="109" y="118" type="line"/>
      <point x="115" y="216" type="line"/>
      <point x="17" y="210" type="line"/>
      <point x="17" y="322" type="line"/>
      <point x="120" y="316" type="line"/>
      <point x="120" y="429" type="line"/>
      <point x="17" y="423" type="line"/>
      <point x="17" y="535" type="line"/>
      <point x="115" y="530" type="line"/>
      <point x="109" y="627" type="line"/>
      <point x="231" y="627" type="line"/>
      <point x="226" y="529" type="line"/>
      <point x="322" y="535" type="line"/>
      <point x="322" y="423" type="line"/>
      <point x="222" y="429" type="line"/>
      <point x="222" y="316" type="line"/>
    </contour>
  </outline>
</glyph>
<glyph name="bullet" format="1">
  <advance width="310.0"/>
  <unicode hex="2022"/>
  <outline>
    <contour>
      <point x="267" y="185" type="line"/>
      <point x="43" y="185" type="line"/>
      <point x="43" y="435" type="line"/>
      <point x="267" y="435" type="line"/>
    </contour>
  </outline>
</glyph>
<glyph name="ellipsis" format="1">
  <advance width="772.0"/>
  <unicode hex="2026"/>
  <outline>
    <contour>
      <point x="476" y="0" type="line"/>
      <point x="297" y="0" type="line"/>
      <point x="297" y="195" type="line"/>
      <point x="476" y="195" type="line"/>
    </contour>
    <contour>
      <point x="197" y="0" type="line"/>
      <point x="17" y="0" type="line"/>
      <point x="17" y="195" type="line"/>
      <point x="197" y="195" type="line"/>
    </contour>
    <contour>
      <point x="755" y="0" type="line"/>
      <point x="576" y="0" type="line"/>
      <point x="576" y="195" type="line"/>
      <point x="755" y="195" type="line"/>
    </contour>
  </outline>
</glyph>
<glyph name="guilsinglleft" format="1">
  <advance width="326.0"/>
  <unicode hex="2039"/>
  <outline>
    <contour>
      <point x="318" y="64" type="line"/>
      <point x="130" y="64" type="line"/>
      <point x="9" y="281" type="line"/>
      <point x="130" y="494" type="line"/>
      <point x="318" y="494" type="line"/>
      <point x="199" y="285" type="line"/>
    </contour>
  </outline>
</glyph>
<glyph name="fraction" format="1">
  <advance width="220.0"/>
  <unicode hex="2044"/>
  <outline>
    <contour>
      <point x="330" y="627" type="line"/>
      <point x="30" y="0" type="line"/>
      <point x="-110" y="0" type="line"/>
      <point x="190" y="627" type="line"/>
    </contour>
  </outline>
</glyph>
<glyph name="uni2070" format="1">
  <advance width="338.0"/>
  <unicode hex="2070"/>
  <outline>
    <contour>
      <point x="327" y="448" type="qcurve"/>
      <point x="327" y="346"/>
      <point x="259" y="263"/>
      <point x="169" y="263" type="qcurve"/>
      <point x="76" y="263"/>
      <point x="11" y="339"/>
      <point x="11" y="448" type="qcurve"/>
      <point x="11" y="549"/>
      <point x="80" y="632"/>
      <point x="169" y="632" type="qcurve"/>
      <point x="262" y="632"/>
      <point x="327" y="556"/>
    </contour>
    <contour>
      <point x="198" y="448" type="qcurve"/>
      <point x="198" y="496"/>
      <point x="188" y="522"/>
      <point x="169" y="522" type="qcurve"/>
      <point x="150" y="522"/>
      <point x="140" y="496"/>
      <point x="140" y="448" type="qcurve"/>
      <point x="140" y="402"/>
      <point x="150" y="377"/>
      <point x="169" y="377" type="qcurve"/>
      <point x="188" y="377"/>
      <point x="198" y="402"/>
    </contour>
  </outline>
</glyph>
<glyph name="uni2074" format="1">
  <advance width="316.0"/>
  <unicode hex="2074"/>
  <outline>
    <contour>
      <point x="309" y="445" type="line"/>
      <point x="309" y="339" type="line"/>
      <point x="277" y="339" type="line"/>
      <point x="277" y="270" type="line"/>
      <point x="149" y="270" type="line"/>
      <point x="149" y="339" type="line"/>
      <point x="9" y="339" type="line"/>
      <point x="9" y="445" type="line"/>
      <point x="49" y="627" type="line"/>
      <point x="169" y="627" type="line"/>
      <point x="136" y="445" type="line"/>
      <point x="157" y="445" type="line"/>
      <point x="174" y="564" type="line"/>
      <point x="277" y="564" type="line"/>
      <point x="277" y="445" type="line"/>
    </contour>
  </outline>
</glyph>
<glyph name="uni2075" format="1">
  <advance width="273.0"/>
  <unicode hex="2075"/>
  <outline>
    <contour>
      <point x="264" y="384" type="qcurve" smooth="yes"/>
      <point x="264" y="325"/>
      <point x="194" y="263"/>
      <point x="130" y="263" type="qcurve"/>
      <point x="94" y="263"/>
      <point x="28" y="270"/>
      <point x="12" y="276" type="qcurve"/>
      <point x="12" y="379" type="line"/>
      <point x="33" y="376"/>
      <point x="75" y="373"/>
      <point x="106" y="373" type="qcurve"/>
      <point x="122" y="373"/>
      <point x="136" y="381"/>
      <point x="136" y="390" type="qcurve"/>
      <point x="136" y="400"/>
      <point x="122" y="406"/>
      <point x="103" y="406" type="qcurve"/>
      <point x="78" y="406"/>
      <point x="42" y="404"/>
      <point x="24" y="402" type="qcurve"/>
      <point x="24" y="627" type="line"/>
      <point x="240" y="627" type="line"/>
      <point x="240" y="517" type="line"/>
      <point x="151" y="517" type="line"/>
      <point x="151" y="492" type="line"/>
      <point x="159" y="493"/>
      <point x="175" y="494"/>
      <point x="180" y="494" type="qcurve" smooth="yes"/>
      <point x="223" y="494"/>
      <point x="264" y="440"/>
    </contour>
  </outline>
</glyph>
<glyph name="uni2076" format="1">
  <advance width="302.0"/>
  <unicode hex="2076"/>
  <outline>
    <contour>
      <point x="161" y="263" type="qcurve"/>
      <point x="77" y="263"/>
      <point x="10" y="341"/>
      <point x="10" y="439" type="qcurve"/>
      <point x="10" y="536"/>
      <point x="103" y="632"/>
      <point x="197" y="632" type="qcurve"/>
      <point x="219" y="632"/>
      <point x="258" y="629"/>
      <point x="265" y="626" type="qcurve"/>
      <point x="265" y="525" type="line"/>
      <point x="248" y="528"/>
      <point x="220" y="530"/>
      <point x="204" y="530" type="qcurve"/>
      <point x="170" y="530"/>
      <point x="143" y="513"/>
      <point x="138" y="491" type="qcurve"/>
      <point x="155" y="499"/>
      <point x="185" y="506"/>
      <point x="200" y="506" type="qcurve"/>
      <point x="249" y="506"/>
      <point x="296" y="451"/>
      <point x="296" y="394" type="qcurve"/>
      <point x="296" y="331"/>
      <point x="226" y="263"/>
    </contour>
    <contour>
      <point x="180" y="391" type="qcurve"/>
      <point x="180" y="404"/>
      <point x="170" y="416"/>
      <point x="157" y="416" type="qcurve"/>
      <point x="153" y="416"/>
      <point x="144" y="414"/>
      <point x="134" y="412" type="qcurve"/>
      <point x="135" y="381"/>
      <point x="144" y="364"/>
      <point x="158" y="364" type="qcurve"/>
      <point x="169" y="364"/>
      <point x="180" y="377"/>
    </contour>
  </outline>
</glyph>
<glyph name="uni2077" format="1">
  <advance width="271.0"/>
  <unicode hex="2077"/>
  <outline>
    <contour>
      <point x="263" y="627" type="line"/>
      <point x="263" y="517" type="line"/>
      <point x="144" y="270" type="line"/>
      <point x="0" y="270" type="line"/>
      <point x="126" y="517" type="line"/>
      <point x="13" y="517" type="line"/>
      <point x="13" y="627" type="line"/>
    </contour>
  </outline>
</glyph>
<glyph name="uni2078" format="1">
  <advance width="305.0"/>
  <unicode hex="2078"/>
  <outline>
    <contour>
      <point x="295" y="366" type="qcurve"/>
      <point x="295" y="312"/>
      <point x="226" y="263"/>
      <point x="152" y="263" type="qcurve"/>
      <point x="73" y="263"/>
      <point x="10" y="310"/>
      <point x="10" y="369" type="qcurve"/>
      <point x="10" y="401"/>
      <point x="39" y="445"/>
      <point x="66" y="455" type="qcurve"/>
      <point x="39" y="467"/>
      <point x="15" y="506"/>
      <point x="16" y="536" type="qcurve"/>
      <point x="16" y="587"/>
      <point x="80" y="632"/>
      <point x="152" y="632" type="qcurve"/>
      <point x="228" y="632"/>
      <point x="288" y="589"/>
      <point x="288" y="535" type="qcurve"/>
      <point x="288" y="504"/>
      <point x="264" y="466"/>
      <point x="239" y="455" type="qcurve"/>
      <point x="267" y="445"/>
      <point x="295" y="400"/>
    </contour>
    <contour>
      <point x="178" y="517" type="qcurve"/>
      <point x="178" y="528"/>
      <point x="166" y="538"/>
      <point x="152" y="538" type="qcurve"/>
      <point x="139" y="538"/>
      <point x="127" y="528"/>
      <point x="127" y="517" type="qcurve"/>
      <point x="127" y="506"/>
      <point x="139" y="496"/>
      <point x="152" y="496" type="qcurve"/>
      <point x="166" y="496"/>
      <point x="178" y="506"/>
    </contour>
    <contour>
      <point x="179" y="384" type="qcurve"/>
      <point x="179" y="395"/>
      <point x="166" y="405"/>
      <point x="152" y="405" type="qcurve"/>
      <point x="138" y="405"/>
      <point x="126" y="395"/>
      <point x="126" y="384" type="qcurve"/>
      <point x="126" y="372"/>
      <point x="138" y="362"/>
      <point x="152" y="362" type="qcurve"/>
      <point x="167" y="362"/>
      <point x="179" y="372"/>
    </contour>
  </outline>
</glyph>
<glyph name="uni2079" format="1">
  <advance width="301.0"/>
  <unicode hex="2079"/>
  <outline>
    <contour>
      <point x="142" y="633" type="qcurve"/>
      <point x="225" y="633"/>
      <point x="291" y="555"/>
      <point x="291" y="457" type="qcurve"/>
      <point x="291" y="359"/>
      <point x="199" y="264"/>
      <point x="105" y="264" type="qcurve"/>
      <point x="83" y="264"/>
      <point x="44" y="267"/>
      <point x="36" y="270" type="qcurve"/>
      <point x="36" y="371" type="line"/>
      <point x="49" y="369"/>
      <point x="80" y="367"/>
      <point x="98" y="367" type="qcurve"/>
      <point x="132" y="367"/>
      <point x="158" y="383"/>
      <point x="163" y="405" type="qcurve"/>
      <point x="149" y="398"/>
      <point x="118" y="391"/>
      <point x="102" y="391" type="qcurve"/>
      <point x="53" y="391"/>
      <point x="6" y="445"/>
      <point x="6" y="503" type="qcurve"/>
      <point x="6" y="566"/>
      <point x="76" y="633"/>
    </contour>
    <contour>
      <point x="144" y="532" type="qcurve"/>
      <point x="133" y="532"/>
      <point x="122" y="518"/>
      <point x="122" y="504" type="qcurve"/>
      <point x="122" y="490"/>
      <point x="132" y="479"/>
      <point x="145" y="479" type="qcurve"/>
      <point x="151" y="479"/>
      <point x="162" y="482"/>
      <point x="168" y="484" type="qcurve"/>
      <point x="168" y="514"/>
      <point x="159" y="532"/>
    </contour>
  </outline>
</glyph>
<glyph name="Euro" format="1">
  <advance width="517.0"/>
  <unicode hex="20AC"/>
  <outline>
    <contour>
      <point x="11" y="217" type="line"/>
      <point x="11" y="309" type="line"/>
      <point x="78" y="309" type="line"/>
      <point x="78" y="313" type="line" smooth="yes"/>
      <point x="78" y="317"/>
      <point x="78" y="325"/>
      <point x="78" y="329" type="qcurve"/>
      <point x="11" y="329" type="line"/>
      <point x="11" y="421" type="line"/>
      <point x="86" y="421" type="line"/>
      <point x="105" y="533"/>
      <point x="237" y="637"/>
      <point x="363" y="637" type="qcurve"/>
      <point x="388" y="637"/>
      <point x="438" y="634"/>
      <point x="483" y="628" type="qcurve"/>
      <point x="483" y="438" type="line"/>
      <point x="445" y="441"/>
      <point x="395" y="444"/>
      <point x="376" y="444" type="qcurve"/>
      <point x="343" y="444"/>
      <point x="325" y="434"/>
      <point x="320" y="421" type="qcurve"/>
      <point x="436" y="421" type="line"/>
      <point x="436" y="329" type="line"/>
      <point x="312" y="329" type="line"/>
      <point x="312" y="325"/>
      <point x="312" y="317"/>
      <point x="312" y="313" type="qcurve"/>
      <point x="312" y="309" type="line"/>
      <point x="436" y="309" type="line"/>
      <point x="436" y="217" type="line"/>
      <point x="319" y="217" type="line"/>
      <point x="323" y="203"/>
      <point x="340" y="192"/>
      <point x="366" y="192" type="qcurve"/>
      <point x="401" y="192"/>
      <point x="466" y="200"/>
      <point x="497" y="208" type="qcurve"/>
      <point x="497" y="21" type="line"/>
      <point x="466" y="4"/>
      <point x="382" y="-12"/>
      <point x="326" y="-12" type="qcurve"/>
      <point x="205" y="-12"/>
      <point x="95" y="93"/>
      <point x="82" y="217" type="qcurve"/>
    </contour>
  </outline>
</glyph>
